SplineFontDB: 3.2
FontName: NotoSansSylotiNagri-Regular
FullName: Noto Sans Syloti Nagri Regular
FamilyName: Noto Sans Syloti Nagri
Weight: Book
Copyright: Copyright 2022 The Noto Project Authors (https://github.com/notofonts/syloti-nagri)
Version: 2.004
ItalicAngle: 0
UnderlinePosition: -125
UnderlineWidth: 50
Ascent: 800
Descent: 200
InvalidEm: 0
sfntRevision: 0x00020106
LayerCount: 2
Layer: 0 1 "+BBcEMAQ0BD0EOAQ5 +BD8EOwQwBD0A" 1
Layer: 1 1 "+BB8ENQRABDUENAQ9BDgEOQAA +BD8EOwQwBD0A" 0
HasVMetrics: 1
XUID: [1021 59 1751208496 2048]
StyleMap: 0x0040
FSType: 0
OS2Version: 4
OS2_WeightWidthSlopeOnly: 0
OS2_UseTypoMetrics: 1
CreationTime: 1494962206
ModificationTime: 1687519408
PfmFamily: 17
TTFWeight: 400
TTFWidth: 5
LineGap: 0
VLineGap: 1000
Panose: 2 11 5 2 4 5 4 2 2 4
OS2TypoAscent: 1069
OS2TypoAOffset: 0
OS2TypoDescent: -293
OS2TypoDOffset: 0
OS2TypoLinegap: 0
OS2WinAscent: 1069
OS2WinAOffset: 0
OS2WinDescent: 293
OS2WinDOffset: 0
HheadAscent: 1069
HheadAOffset: 0
HheadDescent: -293
HheadDOffset: 0
OS2SubXSize: 650
OS2SubYSize: 600
OS2SubXOff: 0
OS2SubYOff: 75
OS2SupXSize: 650
OS2SupYSize: 600
OS2SupXOff: 0
OS2SupYOff: 350
OS2StrikeYSize: 50
OS2StrikeYPos: 322
OS2CapHeight: 679
OS2XHeight: 536
OS2Vendor: 'GOOG'
OS2CodePages: 00000001.00000000
OS2UnicodeRanges: 80018003.00002000.00000000.00000010
Lookup: 4 0 0 "'ccmp' +BBoEPgQ8BD8EPgQ3BDgERgQ4BE8A-/+BDQENQQ6BD4EPAQ/BD4ENwQ4BEYEOARP +BDMEOwQ4BEQEMAAA in Syloti Nagri lookup 0" { "'ccmp' +BBoEPgQ8BD8EPgQ3BDgERgQ4BE8A-/+BDQENQQ6BD4EPAQ/BD4ENwQ4BEYEOARP +BDMEOwQ4BEQEMAAA in Syloti Nagri lookup 0 subtable"  } ['ccmp' ('DFLT' <'dflt' > 'sylo' <'dflt' > ) ]
Lookup: 260 0 0 "'abvm' +BB0EMAQ0 +BD4EQgQ8BDUEQgQ6BD4EOQAA +BD4EQQQ9BD4EMgRL in Syloti Nagri lookup 0" { "'abvm' +BB0EMAQ0 +BD4EQgQ8BDUEQgQ6BD4EOQAA +BD4EQQQ9BD4EMgRL in Syloti Nagri lookup 0 subtable"  } ['abvm' ('DFLT' <'dflt' > 'sylo' <'dflt' > ) ]

StartChar: .notdef
Encoding: 65536 -1 0
Width: 600
VWidth: 0
GlyphClass: 1
Flags: W
HStem: 0 51<145 454> 663 51<145 454>
VStem: 94 51<51 663> 454 51<51 663>
LayerCount: 2
Fore
SplineSet
94 0 m 1,0,-1
 94 714 l 1,1,-1
 505 714 l 1,2,-1
 505 0 l 1,3,-1
 94 0 l 1,0,-1
145 51 m 1,4,-1
 454 51 l 1,5,-1
 454 663 l 1,6,-1
 145 663 l 1,7,-1
 145 51 l 1,4,-1
EndSplineSet
EndChar

StartChar: uni0964
Encoding: 2404 2404 5
Width: 379
VWidth: 0
GlyphClass: 1
Flags: W
HStem: 0 21G<194 275>
VStem: 194 81<0 622>
LayerCount: 2
Fore
SplineSet
275 0 m 1,0,-1
 194 0 l 1,1,-1
 194 622 l 1,2,-1
 275 622 l 1,3,-1
 275 0 l 1,0,-1
EndSplineSet
EndChar

StartChar: uni0965
Encoding: 2405 2405 6
Width: 599
VWidth: 0
GlyphClass: 1
Flags: W
HStem: 0 21G<194 275 414 495>
VStem: 194 81<0 622> 414 81<0 622>
LayerCount: 2
Fore
SplineSet
495 0 m 1,0,-1
 414 0 l 1,1,-1
 414 622 l 1,2,-1
 495 622 l 1,3,-1
 495 0 l 1,0,-1
275 0 m 1,4,-1
 194 0 l 1,5,-1
 194 622 l 1,6,-1
 275 622 l 1,7,-1
 275 0 l 1,4,-1
EndSplineSet
EndChar

StartChar: uni09E6
Encoding: 2534 2534 7
Width: 592
VWidth: 0
GlyphClass: 1
Flags: W
HStem: 91 71<208.548 372.299> 473 71<220.385 384.651>
VStem: 72 80<221.12 402.561> 439 81<231.901 416.48>
LayerCount: 2
Fore
SplineSet
72 320 m 0,0,1
 72 387 72 387 100.5 437.5 c 128,-1,2
 129 488 129 488 180 516 c 128,-1,3
 231 544 231 544 300 544 c 0,4,5
 407 544 407 544 463.5 483.5 c 128,-1,6
 520 423 520 423 520 314 c 0,7,8
 520 248 520 248 492.5 197.5 c 128,-1,9
 465 147 465 147 413.5 119 c 128,-1,10
 362 91 362 91 290 91 c 0,11,12
 187 91 187 91 129.5 150 c 128,-1,13
 72 209 72 209 72 320 c 0,0,1
152 311 m 0,14,15
 152 241 152 241 187.5 201.5 c 128,-1,16
 223 162 223 162 289 162 c 0,17,18
 359 162 359 162 399 206 c 128,-1,19
 439 250 439 250 439 324 c 0,20,21
 439 395 439 395 404.5 434 c 128,-1,22
 370 473 370 473 305 473 c 0,23,24
 234 473 234 473 193 429.5 c 128,-1,25
 152 386 152 386 152 311 c 0,14,15
EndSplineSet
EndChar

StartChar: uni09E7
Encoding: 2535 2535 8
Width: 592
VWidth: 0
GlyphClass: 1
Flags: W
HStem: 0 75<220.589 369.523>
VStem: 123 82<87.0526 151.423 486.245 583.019> 415 80<118.11 252.104>
LayerCount: 2
Fore
SplineSet
234 243 m 1,0,-1
 263 167 l 1,1,2
 232 160 232 160 218.5 149.5 c 128,-1,3
 205 139 205 139 205 120 c 0,4,5
 205 99 205 99 226.5 87 c 128,-1,6
 248 75 248 75 286 75 c 0,7,8
 345 75 345 75 380 104.5 c 128,-1,9
 415 134 415 134 415 181 c 0,10,11
 415 224 415 224 395.5 249.5 c 128,-1,12
 376 275 376 275 342 302 c 0,13,14
 327 314 327 314 304 331 c 128,-1,15
 281 348 281 348 256.5 366 c 128,-1,16
 232 384 232 384 212.5 399 c 128,-1,17
 193 414 193 414 184 421 c 0,18,19
 150 451 150 451 136 475.5 c 128,-1,20
 122 500 122 500 122 529 c 0,21,22
 122 553 122 553 136 580.5 c 128,-1,23
 150 608 150 608 174 631 c 1,24,-1
 238 596 l 1,25,26
 224 581 224 581 215 566.5 c 128,-1,27
 206 552 206 552 206 534 c 0,28,29
 206 513 206 513 217 498 c 128,-1,30
 228 483 228 483 243 472 c 128,-1,31
 258 461 258 461 270 451 c 0,32,33
 291 435 291 435 322 414.5 c 128,-1,34
 353 394 353 394 384 372 c 128,-1,35
 415 350 415 350 436 328 c 0,36,37
 458 306 458 306 476.5 273.5 c 128,-1,38
 495 241 495 241 495 178 c 0,39,40
 495 123 495 123 467 83 c 128,-1,41
 439 43 439 43 392 21.5 c 128,-1,42
 345 0 345 0 287 0 c 0,43,44
 209 0 209 0 166 33.5 c 128,-1,45
 123 67 123 67 123 122 c 0,46,47
 123 212 123 212 234 243 c 1,0,-1
EndSplineSet
EndChar

StartChar: uni09E8
Encoding: 2536 2536 9
Width: 592
VWidth: 0
GlyphClass: 1
Flags: W
VStem: 127 84<522.165 598.216> 419 81<276.158 385.735>
LayerCount: 2
Fore
SplineSet
316 173 m 1,0,1
 376 148 376 148 435.5 112 c 128,-1,2
 495 76 495 76 553 28 c 1,3,-1
 507 -26 l 1,4,5
 459 14 459 14 414.5 45 c 128,-1,6
 370 76 370 76 320.5 101 c 128,-1,7
 271 126 271 126 209.5 146.5 c 128,-1,8
 148 167 148 167 65 185 c 1,9,-1
 80 256 l 1,10,11
 122 243 122 243 158 238 c 128,-1,12
 194 233 194 233 235 233 c 0,13,14
 419 233 419 233 419 333 c 0,15,16
 419 366 419 366 403 383.5 c 128,-1,17
 387 401 387 401 357 410.5 c 128,-1,18
 327 420 327 420 285 428 c 0,19,20
 202 445 202 445 164.5 470.5 c 128,-1,21
 127 496 127 496 127 539 c 0,22,23
 127 579 127 579 170 631 c 1,24,-1
 233 596 l 1,25,26
 211 572 211 572 211 549 c 0,27,28
 211 533 211 533 220 525.5 c 128,-1,29
 229 518 229 518 250 511 c 0,30,31
 261 507 261 507 279 503 c 128,-1,32
 297 499 297 499 322 494 c 0,33,34
 416 477 416 477 458 440.5 c 128,-1,35
 500 404 500 404 500 333 c 0,36,37
 500 272 500 272 451.5 228 c 128,-1,38
 403 184 403 184 316 173 c 1,0,1
EndSplineSet
EndChar

StartChar: uni09E9
Encoding: 2537 2537 10
Width: 592
VWidth: 0
GlyphClass: 1
Flags: W
HStem: 39 75<261.965 415.576> 509 70<298.851 404.179>
VStem: 207 85<385.632 501.943> 473 80<177.911 415.622>
LayerCount: 2
Fore
SplineSet
29 490 m 1,0,-1
 103 510 l 1,1,2
 120 430 120 430 139 358.5 c 128,-1,3
 158 287 158 287 184 232 c 128,-1,4
 210 177 210 177 248 145.5 c 128,-1,5
 286 114 286 114 341 114 c 0,6,7
 473 114 473 114 473 295 c 0,8,9
 473 347 473 347 458 396 c 128,-1,10
 443 445 443 445 415 477 c 128,-1,11
 387 509 387 509 347 509 c 0,12,13
 292 509 292 509 292 458 c 0,14,15
 292 427 292 427 311 390 c 1,16,-1
 231 369 l 1,17,18
 207 420 207 420 207 467 c 0,19,20
 207 520 207 520 244 549.5 c 128,-1,21
 281 579 281 579 337 579 c 0,22,23
 407 579 407 579 455 540 c 128,-1,24
 503 501 503 501 528 436.5 c 128,-1,25
 553 372 553 372 553 295 c 0,26,27
 553 173 553 173 500 106 c 128,-1,28
 447 39 447 39 346 39 c 0,29,30
 268 39 268 39 215.5 73 c 128,-1,31
 163 107 163 107 129 168.5 c 128,-1,32
 95 230 95 230 72 312 c 128,-1,33
 49 394 49 394 29 490 c 1,0,-1
EndSplineSet
EndChar

StartChar: uni09EA
Encoding: 2538 2538 11
Width: 592
VWidth: 0
GlyphClass: 1
Flags: W
HStem: 0 71<193.094 403.292> 551 71<193.673 400.829>
VStem: 63 80<113.995 226.287> 74 80<418.59 516.225> 438 81<423.642 518.115> 450 80<113.687 226.803>
LayerCount: 2
Fore
SplineSet
393 331 m 1,0,1
 467 302 467 302 498.5 265 c 128,-1,2
 530 228 530 228 530 174 c 0,3,4
 530 0 530 0 296 0 c 0,5,6
 187 0 187 0 125 47 c 128,-1,7
 63 94 63 94 63 174 c 0,8,9
 63 272 63 272 198 326 c 1,10,11
 129 358 129 358 101.5 390 c 128,-1,12
 74 422 74 422 74 471 c 256,13,14
 74 520 74 520 104.5 553.5 c 128,-1,15
 135 587 135 587 184.5 604.5 c 128,-1,16
 234 622 234 622 290 622 c 0,17,18
 401 622 401 622 460 581.5 c 128,-1,19
 519 541 519 541 519 476 c 0,20,21
 519 427 519 427 489 392.5 c 128,-1,22
 459 358 459 358 393 331 c 1,0,1
297 363 m 1,23,24
 360 380 360 380 399 408.5 c 128,-1,25
 438 437 438 437 438 471 c 0,26,27
 438 509 438 509 399.5 530 c 128,-1,28
 361 551 361 551 291 551 c 0,29,30
 233 551 233 551 193.5 529 c 128,-1,31
 154 507 154 507 154 471 c 0,32,33
 154 433 154 433 188.5 407.5 c 128,-1,34
 223 382 223 382 297 363 c 1,23,24
296 292 m 1,35,36
 217 271 217 271 180 241.5 c 128,-1,37
 143 212 143 212 143 169 c 0,38,39
 143 125 143 125 183.5 98 c 128,-1,40
 224 71 224 71 296 71 c 0,41,42
 371 71 371 71 410.5 97 c 128,-1,43
 450 123 450 123 450 173 c 0,44,45
 450 214 450 214 408.5 245.5 c 128,-1,46
 367 277 367 277 296 292 c 1,35,36
EndSplineSet
EndChar

StartChar: uni09EB
Encoding: 2539 2539 12
Width: 592
VWidth: 0
GlyphClass: 1
Flags: W
HStem: 0 71<214.98 453.814>
VStem: 49 81<149.781 331.903> 316 76<167.279 284.989> 367 67<474.005 524.816>
LayerCount: 2
Fore
SplineSet
414 629 m 1,0,-1
 453 575 l 1,1,2
 434 550 434 550 434 519 c 0,3,4
 434 491 434 491 457 473 c 128,-1,5
 480 455 480 455 518 455 c 0,6,7
 527 455 527 455 533 456 c 1,8,-1
 566 400 l 1,9,10
 471 348 471 348 431.5 307 c 128,-1,11
 392 266 392 266 392 221 c 0,12,13
 392 184 392 184 417.5 164 c 128,-1,14
 443 144 443 144 492 144 c 0,15,16
 505 144 505 144 514 144.5 c 128,-1,17
 523 145 523 145 528 146 c 1,18,-1
 561 63 l 1,19,20
 512 32 512 32 448 16 c 128,-1,21
 384 0 384 0 313 0 c 0,22,23
 233 0 233 0 173.5 30 c 128,-1,24
 114 60 114 60 81.5 116 c 128,-1,25
 49 172 49 172 49 248 c 0,26,27
 49 355 49 355 136.5 447 c 128,-1,28
 224 539 224 539 414 629 c 1,0,-1
368 525 m 1,29,30
 130 401 130 401 130 238 c 0,31,32
 130 158 130 158 181.5 114.5 c 128,-1,33
 233 71 233 71 320 71 c 0,34,35
 357 71 357 71 384.5 74.5 c 128,-1,36
 412 78 412 78 455 89 c 1,37,38
 388 98 388 98 352 132 c 128,-1,39
 316 166 316 166 316 222 c 0,40,41
 316 272 316 272 347 316 c 128,-1,42
 378 360 378 360 445 407 c 1,43,44
 409 417 409 417 388 444.5 c 128,-1,45
 367 472 367 472 367 507 c 0,46,47
 367 521 367 521 368 525 c 1,29,30
EndSplineSet
EndChar

StartChar: uni09EC
Encoding: 2540 2540 13
Width: 592
VWidth: 0
GlyphClass: 1
Flags: W
HStem: 39 75<258.927 423.799> 257 71<316.731 395.457> 517 76<175 221.071>
VStem: 21 75<385.862 454.147> 235 77<331.305 503.133> 483 76<175.611 348.416>
LayerCount: 2
Fore
SplineSet
21 452 m 1,0,-1
 96 475 l 1,1,2
 135 291 135 291 191.5 202.5 c 128,-1,3
 248 114 248 114 342 114 c 0,4,5
 410 114 410 114 446.5 155 c 128,-1,6
 483 196 483 196 483 271 c 0,7,8
 483 291 483 291 480 310.5 c 128,-1,9
 477 330 477 330 469 349 c 1,10,11
 419 257 419 257 340 257 c 0,12,13
 291 257 291 257 263 289 c 128,-1,14
 235 321 235 321 235 388 c 2,15,-1
 235 451 l 2,16,17
 235 492 235 492 221.5 503.5 c 128,-1,18
 208 515 208 515 166 517 c 1,19,-1
 175 593 l 1,20,21
 244 592 244 592 278 567 c 128,-1,22
 312 542 312 542 312 471 c 2,23,-1
 312 380 l 2,24,25
 312 328 312 328 348 328 c 0,26,27
 379 328 379 328 401.5 356 c 128,-1,28
 424 384 424 384 443 438 c 1,29,-1
 499 452 l 1,30,31
 527 413 527 413 543 362.5 c 128,-1,32
 559 312 559 312 559 268 c 0,33,34
 559 161 559 161 503.5 100 c 128,-1,35
 448 39 448 39 347 39 c 0,36,37
 276 39 276 39 223.5 70.5 c 128,-1,38
 171 102 171 102 133.5 158.5 c 128,-1,39
 96 215 96 215 69 290 c 128,-1,40
 42 365 42 365 21 452 c 1,0,-1
EndSplineSet
EndChar

StartChar: uni09ED
Encoding: 2541 2541 14
Width: 592
VWidth: 0
GlyphClass: 1
Flags: W
HStem: 0 77<472.929 520> 248 74<179.545 377.377> 551 71<223.848 363.277>
VStem: 70 81<349.516 478.949> 383 76<91.3813 266 337.844 530.041>
LayerCount: 2
Fore
SplineSet
383 122 m 2,0,-1
 383 266 l 1,1,2
 354 256 354 256 325.5 252 c 128,-1,3
 297 248 297 248 268 248 c 0,4,5
 173 248 173 248 121.5 290 c 128,-1,6
 70 332 70 332 70 411 c 0,7,8
 70 455 70 455 89 493.5 c 128,-1,9
 108 532 108 532 140.5 561 c 128,-1,10
 173 590 173 590 213 606 c 128,-1,11
 253 622 253 622 296 622 c 0,12,13
 371 622 371 622 415 585.5 c 128,-1,14
 459 549 459 549 459 467 c 2,15,-1
 459 141 l 2,16,17
 459 103 459 103 472.5 91 c 128,-1,18
 486 79 486 79 528 77 c 1,19,-1
 520 0 l 1,20,21
 450 2 450 2 416.5 27 c 128,-1,22
 383 52 383 52 383 122 c 2,0,-1
382 346 m 1,23,-1
 382 455 l 2,24,25
 382 514 382 514 360 532.5 c 128,-1,26
 338 551 338 551 296 551 c 0,27,28
 260 551 260 551 226.5 531 c 128,-1,29
 193 511 193 511 172 478 c 128,-1,30
 151 445 151 445 151 406 c 0,31,32
 151 322 151 322 266 322 c 0,33,34
 331 322 331 322 382 346 c 1,23,-1
EndSplineSet
EndChar

StartChar: uni09EE
Encoding: 2542 2542 15
Width: 592
VWidth: 0
GlyphClass: 1
Flags: W
HStem: 0 71<183.178 310.251> 292 68<430.094 485.649> 304 71<169.817 340.796> 547 77<31 77.0712>
VStem: 91 76<87.875 289.395 355 533.133> 368 80<131.103 276.941>
LayerCount: 2
Fore
SplineSet
167 501 m 2,0,-1
 167 355 l 1,1,2
 193 365 193 365 221 370 c 128,-1,3
 249 375 249 375 269 375 c 0,4,5
 300 375 300 375 319.5 371 c 128,-1,6
 339 367 339 367 359 363.5 c 128,-1,7
 379 360 379 360 408 360 c 0,8,9
 455 360 455 360 477 375 c 128,-1,10
 499 390 499 390 514 418 c 1,11,-1
 586 383 l 1,12,13
 550 292 550 292 442 292 c 0,14,15
 439 292 439 292 436 292 c 128,-1,16
 433 292 433 292 430 293 c 1,17,18
 448 259 448 259 448 213 c 0,19,20
 448 150 448 150 420 102 c 128,-1,21
 392 54 392 54 344.5 27 c 128,-1,22
 297 0 297 0 237 0 c 0,23,24
 167 0 167 0 129 39.5 c 128,-1,25
 91 79 91 79 91 154 c 2,26,-1
 91 481 l 2,27,28
 91 522 91 522 77.5 533.5 c 128,-1,29
 64 545 64 545 22 547 c 1,30,-1
 31 624 l 1,31,32
 101 622 101 622 134 597 c 128,-1,33
 167 572 167 572 167 501 c 2,0,-1
167 281 m 1,34,-1
 167 168 l 2,35,36
 167 108 167 108 185.5 89.5 c 128,-1,37
 204 71 204 71 238 71 c 0,38,39
 277 71 277 71 306.5 90 c 128,-1,40
 336 109 336 109 352 141 c 128,-1,41
 368 173 368 173 368 212 c 0,42,43
 368 257 368 257 343 280.5 c 128,-1,44
 318 304 318 304 274 304 c 0,45,46
 218 304 218 304 167 281 c 1,34,-1
EndSplineSet
EndChar

StartChar: uni09EF
Encoding: 2543 2543 16
Width: 592
VWidth: 0
GlyphClass: 1
Flags: W
HStem: 0 68<183 207.406> 245 70<115.607 235.497>
VStem: 27 81<148.766 235.229> 35 83<507.519 588.925> 257 76<113.214 224.086> 476 82<145.475 285.995>
LayerCount: 2
Fore
SplineSet
290 73 m 1,0,1
 476 97 476 97 476 214 c 0,2,3
 476 261 476 261 455.5 284.5 c 128,-1,4
 435 308 435 308 395 331 c 0,5,6
 382 339 382 339 355.5 348.5 c 128,-1,7
 329 358 329 358 297.5 367.5 c 128,-1,8
 266 377 266 377 237 386 c 128,-1,9
 208 395 208 395 188 401 c 0,10,11
 103 430 103 430 69 460 c 128,-1,12
 35 490 35 490 35 536 c 0,13,14
 35 588 35 588 83 631 c 1,15,-1
 146 596 l 1,16,17
 118 568 118 568 118 549 c 0,18,19
 118 521 118 521 140 507.5 c 128,-1,20
 162 494 162 494 200 479 c 0,21,22
 219 472 219 472 255 461.5 c 128,-1,23
 291 451 291 451 328.5 440.5 c 128,-1,24
 366 430 366 430 389 420 c 0,25,26
 445 398 445 398 482.5 372 c 128,-1,27
 520 346 520 346 539 308.5 c 128,-1,28
 558 271 558 271 558 216 c 0,29,30
 558 110 558 110 464.5 55 c 128,-1,31
 371 0 371 0 197 0 c 2,32,-1
 183 0 l 1,33,-1
 161 68 l 1,34,35
 257 102 257 102 257 169 c 0,36,37
 257 204 257 204 235.5 224.5 c 128,-1,38
 214 245 214 245 175 245 c 0,39,40
 108 245 108 245 108 196 c 0,41,42
 108 173 108 173 120 152 c 1,43,-1
 44 135 l 1,44,45
 27 175 27 175 27 207 c 0,46,47
 27 257 27 257 65.5 286 c 128,-1,48
 104 315 104 315 174 315 c 0,49,50
 220 315 220 315 256 298 c 128,-1,51
 292 281 292 281 312.5 250.5 c 128,-1,52
 333 220 333 220 333 181 c 0,53,54
 333 148 333 148 323 122.5 c 128,-1,55
 313 97 313 97 290 73 c 1,0,1
EndSplineSet
EndChar

StartChar: uniA800
Encoding: 43008 43008 17
Width: 808
VWidth: 0
GlyphClass: 2
Flags: W
HStem: 4 77<125.949 216.647> 611 68<-17 662 743 816>
VStem: 668 75<0 505>
AnchorPoint: "+BBEENQQ3BEsEPARPBD0EPQQ+BDUA--2" 708 0 basechar 0
AnchorPoint: "+BBEENQQ3BEsEPARPBD0EPQQ+BDUA--1" 380 725 basechar 0
AnchorPoint: "+BBEENQQ3BEsEPARPBD0EPQQ+BDUA--0" 703 725 basechar 0
LayerCount: 2
Fore
SplineSet
668 0 m 1,0,-1
 668 505 l 1,1,-1
 665 506 l 1,2,3
 574 394 574 394 507 310.5 c 128,-1,4
 440 227 440 227 390 168.5 c 128,-1,5
 340 110 340 110 301 73.5 c 128,-1,6
 262 37 262 37 227.5 20.5 c 128,-1,7
 193 4 193 4 157 4 c 0,8,9
 119 4 119 4 88.5 25.5 c 128,-1,10
 58 47 58 47 37 106 c 1,11,-1
 108 139 l 1,12,13
 120 108 120 108 132 94.5 c 128,-1,14
 144 81 144 81 164 81 c 0,15,16
 183 81 183 81 206 95.5 c 128,-1,17
 229 110 229 110 263.5 145 c 128,-1,18
 298 180 298 180 350 240.5 c 128,-1,19
 402 301 402 301 478.5 392.5 c 128,-1,20
 555 484 555 484 662 611 c 1,21,-1
 -17 611 l 1,22,-1
 -17 679 l 1,23,-1
 816 679 l 1,24,-1
 816 611 l 1,25,-1
 743 611 l 1,26,-1
 743 0 l 1,27,-1
 668 0 l 1,0,-1
EndSplineSet
EndChar

StartChar: uniA801
Encoding: 43009 43009 18
Width: 514
VWidth: 0
GlyphClass: 2
Flags: W
HStem: 205 74<76.9595 136.04> 221 53<189 275.508> 467 66<242.522 351.522> 611 68<-17 122 200 526>
VStem: 122 78<483 611> 367 76<343.279 453.883>
AnchorPoint: "+BBEENQQ3BEsEPARPBD0EPQQ+BDUA--2" 386 0 basechar 0
AnchorPoint: "+BBEENQQ3BEsEPARPBD0EPQQ+BDUA--1" 236 725 basechar 0
AnchorPoint: "+BBEENQQ3BEsEPARPBD0EPQQ+BDUA--0" 347 725 basechar 0
LayerCount: 2
Fore
SplineSet
395 -14 m 1,0,1
 355 45 355 45 310 84 c 128,-1,2
 265 123 265 123 220.5 146.5 c 128,-1,3
 176 170 176 170 136.5 183 c 128,-1,4
 97 196 97 196 67 205 c 1,5,-1
 78 279 l 1,6,7
 101 276 101 276 116 275 c 128,-1,8
 131 274 131 274 148 274 c 0,9,10
 206 274 206 274 256 289 c 128,-1,11
 306 304 306 304 336.5 333.5 c 128,-1,12
 367 363 367 363 367 404 c 0,13,14
 367 440 367 440 348 453.5 c 128,-1,15
 329 467 329 467 305 467 c 0,16,17
 294 467 294 467 272.5 460 c 128,-1,18
 251 453 251 453 225.5 433 c 128,-1,19
 200 413 200 413 178 374 c 1,20,-1
 122 397 l 1,21,-1
 122 611 l 1,22,-1
 -17 611 l 1,23,-1
 -17 679 l 1,24,-1
 526 679 l 1,25,-1
 526 611 l 1,26,-1
 200 611 l 1,27,-1
 200 483 l 1,28,29
 241 517 241 517 270.5 525 c 128,-1,30
 300 533 300 533 326 533 c 0,31,32
 376 533 376 533 409.5 499.5 c 128,-1,33
 443 466 443 466 443 410 c 0,34,35
 443 350 443 350 408 308 c 128,-1,36
 373 266 373 266 315 243.5 c 128,-1,37
 257 221 257 221 189 221 c 1,38,-1
 188 217 l 1,39,40
 228 203 228 203 274 183 c 128,-1,41
 320 163 320 163 367 127 c 128,-1,42
 414 91 414 91 456 28 c 1,43,-1
 395 -14 l 1,0,1
EndSplineSet
EndChar

StartChar: uniA802
Encoding: 43010 43010 19
Width: 0
VWidth: 0
GlyphClass: 4
Flags: W
HStem: 726 249
VStem: -451 327
AnchorPoint: "+BBEENQQ3BEsEPARPBD0EPQQ+BDUA--4" -167 725 mark 0
AnchorPoint: "+BBEENQQ3BEsEPARPBD0EPQQ+BDUA--0" -167 725 mark 0
LayerCount: 2
Fore
SplineSet
-176 734 m 1,0,-1
 -311 935 l 1,1,-1
 -248 975 l 1,2,-1
 -124 767 l 1,3,-1
 -176 734 l 1,0,-1
-279 726 m 1,4,-1
 -451 898 l 1,5,-1
 -397 947 l 1,6,-1
 -235 769 l 1,7,-1
 -279 726 l 1,4,-1
EndSplineSet
EndChar

StartChar: uniA803
Encoding: 43011 43011 20
Width: 726
VWidth: 0
GlyphClass: 2
Flags: W
HStem: 0 74<266.349 506.545> 278 71<414.831 456.23> 295 52<527 560.834> 493 67<394.644 487.087> 611 68<-7 192 270.969 737>
VStem: 53 78<203.171 430.661> 298 79<411.068 478.895> 502 75<385.515 479.889> 589 77<137.237 266.875>
AnchorPoint: "+BBEENQQ3BEsEPARPBD0EPQQ+BDUA--2" 397 0 basechar 0
AnchorPoint: "+BBEENQQ3BEsEPARPBD0EPQQ+BDUA--1" 365 725 basechar 0
AnchorPoint: "+BBEENQQ3BEsEPARPBD0EPQQ+BDUA--0" 503 725 basechar 0
LayerCount: 2
Fore
SplineSet
380 0 m 0,0,1
 324 0 324 0 266.5 18 c 128,-1,2
 209 36 209 36 160.5 74.5 c 128,-1,3
 112 113 112 113 82.5 172.5 c 128,-1,4
 53 232 53 232 53 314 c 0,5,6
 53 382 53 382 74.5 438 c 128,-1,7
 96 494 96 494 128 537 c 128,-1,8
 160 580 160 580 192 611 c 1,9,-1
 -7 611 l 1,10,-1
 -7 679 l 1,11,-1
 737 679 l 1,12,-1
 737 611 l 1,13,-1
 296 611 l 1,14,15
 276 595 276 595 248 568.5 c 128,-1,16
 220 542 220 542 193 505 c 128,-1,17
 166 468 166 468 148.5 420 c 128,-1,18
 131 372 131 372 131 314 c 0,19,20
 131 233 131 233 165 180 c 128,-1,21
 199 127 199 127 255.5 100.5 c 128,-1,22
 312 74 312 74 379 74 c 0,23,24
 413 74 413 74 449.5 80 c 128,-1,25
 486 86 486 86 517.5 100.5 c 128,-1,26
 549 115 549 115 569 139.5 c 128,-1,27
 589 164 589 164 589 200 c 0,28,29
 589 249 589 249 562.5 272 c 128,-1,30
 536 295 536 295 500 295 c 0,31,32
 481 295 481 295 458 290 c 128,-1,33
 435 285 435 285 417 278 c 1,34,-1
 395 349 l 1,35,36
 454 365 454 365 478 383.5 c 128,-1,37
 502 402 502 402 502 433 c 0,38,39
 502 465 502 465 483.5 479 c 128,-1,40
 465 493 465 493 441 493 c 0,41,42
 421 493 421 493 399 479.5 c 128,-1,43
 377 466 377 466 377 435 c 0,44,45
 377 424 377 424 380 412 c 1,46,-1
 304 395 l 1,47,48
 298 416 298 416 298 435 c 0,49,50
 298 477 298 477 321.5 504.5 c 128,-1,51
 345 532 345 532 379 546 c 128,-1,52
 413 560 413 560 446 560 c 0,53,54
 473 560 473 560 503.5 548.5 c 128,-1,55
 534 537 534 537 555.5 510 c 128,-1,56
 577 483 577 483 577 435 c 0,57,58
 577 410 577 410 564.5 386.5 c 128,-1,59
 552 363 552 363 527 347 c 1,60,61
 591 347 591 347 628.5 308 c 128,-1,62
 666 269 666 269 666 199 c 0,63,64
 666 143 666 143 639 104.5 c 128,-1,65
 612 66 612 66 569 43 c 128,-1,66
 526 20 526 20 476 10 c 128,-1,67
 426 0 426 0 380 0 c 0,0,1
EndSplineSet
EndChar

StartChar: uniA804
Encoding: 43012 43012 21
Width: 567
VWidth: 0
GlyphClass: 2
Flags: W
HStem: -8 70<199.867 343.472> 237 69<166 291.392> 611 68<-17 90 166 407 483 578> 868 64<154.578 253.625>
VStem: 90 76<97.4844 237 306 611> 408 75<437.584 611 679 753.408>
AnchorPoint: "+BBEENQQ3BEsEPARPBD0EPQQ+BDUA--2" 273 0 basechar 0
AnchorPoint: "+BBEENQQ3BEsEPARPBD0EPQQ+BDUA--1" 139 725 basechar 0
AnchorPoint: "+BBEENQQ3BEsEPARPBD0EPQQ+BDUA--0" 170 725 basechar 0
LayerCount: 2
Fore
SplineSet
259 -8 m 0,0,1
 183 -8 183 -8 136.5 41 c 128,-1,2
 90 90 90 90 90 187 c 2,3,-1
 90 611 l 1,4,-1
 -17 611 l 1,5,-1
 -17 679 l 1,6,-1
 407 679 l 1,7,8
 401 736 401 736 376.5 770 c 128,-1,9
 352 804 352 804 314 823 c 128,-1,10
 276 842 276 842 232 851.5 c 128,-1,11
 188 861 188 861 143 868 c 1,12,-1
 156 932 l 1,13,14
 204 927 204 927 257 916 c 128,-1,15
 310 905 310 905 358 879 c 128,-1,16
 406 853 406 853 438.5 805 c 128,-1,17
 471 757 471 757 478 679 c 1,18,-1
 578 679 l 1,19,-1
 578 611 l 1,20,-1
 483 611 l 1,21,22
 483 472 483 472 450 390 c 128,-1,23
 417 308 417 308 347 272.5 c 128,-1,24
 277 237 277 237 166 237 c 1,25,-1
 166 187 l 2,26,27
 166 121 166 121 192 91.5 c 128,-1,28
 218 62 218 62 259 62 c 0,29,30
 281 62 281 62 305 68.5 c 128,-1,31
 329 75 329 75 361 93 c 1,32,-1
 397 28 l 1,33,34
 354 6 354 6 322.5 -1 c 128,-1,35
 291 -8 291 -8 259 -8 c 0,0,1
166 306 m 1,36,37
 252 306 252 306 305 333.5 c 128,-1,38
 358 361 358 361 383 427 c 128,-1,39
 408 493 408 493 408 611 c 1,40,-1
 166 611 l 1,41,-1
 166 306 l 1,36,37
EndSplineSet
EndChar

StartChar: uniA805
Encoding: 43013 43013 22
Width: 597
VWidth: 0
GlyphClass: 2
Flags: W
HStem: -9 114<91.9874 177.497> 0 21G<438 514> 136 72<191.947 381.762> 459 71<193.634 389.379> 611 68<-17 438 514 610>
VStem: 59 82<254.581 409.92> 76 118<6.47192 90.0438> 438 76<0 185 251.109 424.605 482 611>
AnchorPoint: "+BBEENQQ3BEsEPARPBD0EPQQ+BDUA--2" 478 0 basechar 0
AnchorPoint: "+BBEENQQ3BEsEPARPBD0EPQQ+BDUA--1" 279 725 basechar 0
AnchorPoint: "+BBEENQQ3BEsEPARPBD0EPQQ+BDUA--0" 481 725 basechar 0
LayerCount: 2
Fore
SplineSet
438 0 m 1,0,-1
 438 185 l 1,1,2
 410 165 410 165 371 150.5 c 128,-1,3
 332 136 332 136 283 136 c 0,4,5
 174 136 174 136 116.5 186 c 128,-1,6
 59 236 59 236 59 333 c 0,7,8
 59 428 59 428 118 479 c 128,-1,9
 177 530 177 530 281 530 c 0,10,11
 329 530 329 530 368 516.5 c 128,-1,12
 407 503 407 503 438 482 c 1,13,-1
 438 611 l 1,14,-1
 -17 611 l 1,15,-1
 -17 679 l 1,16,-1
 610 679 l 1,17,-1
 610 611 l 1,18,-1
 514 611 l 1,19,-1
 514 0 l 1,20,-1
 438 0 l 1,0,-1
285 208 m 0,21,22
 334 208 334 208 370.5 224.5 c 128,-1,23
 407 241 407 241 438 269 c 1,24,-1
 438 411 l 1,25,26
 413 429 413 429 376 444 c 128,-1,27
 339 459 339 459 291 459 c 0,28,29
 141 459 141 459 141 333 c 0,30,31
 141 208 141 208 285 208 c 0,21,22
135 -9 m 0,32,33
 107 -9 107 -9 91.5 6 c 128,-1,34
 76 21 76 21 76 49 c 0,35,36
 76 76 76 76 91.5 90.5 c 128,-1,37
 107 105 107 105 135 105 c 0,38,39
 162 105 162 105 178 90.5 c 128,-1,40
 194 76 194 76 194 49 c 0,41,42
 194 21 194 21 178 6 c 128,-1,43
 162 -9 162 -9 135 -9 c 0,32,33
EndSplineSet
EndChar

StartChar: uniA806
Encoding: 43014 43014 23
Width: 0
VWidth: 0
GlyphClass: 4
Flags: W
HStem: 755 212
VStem: -368 326
AnchorPoint: "+BBEENQQ3BEsEPARPBD0EPQQ+BDUA--5" -206 725 mark 0
AnchorPoint: "+BBEENQQ3BEsEPARPBD0EPQQ+BDUA--1" -206 725 mark 0
LayerCount: 2
Fore
SplineSet
-314 755 m 1,0,-1
 -368 805 l 1,1,-1
 -210 967 l 1,2,-1
 -42 805 l 1,3,-1
 -95 755 l 1,4,-1
 -209 878 l 1,5,-1
 -314 755 l 1,0,-1
EndSplineSet
EndChar

StartChar: uniA807
Encoding: 43015 43015 24
Width: 896
VWidth: 0
GlyphClass: 2
Flags: W
HStem: 0 21G<405 480 751 827> 611 68<-17 87 164 405 480 753 827 902>
VStem: 87 77<190 611> 405 75<0 307 456 611> 751 76<0 522>
AnchorPoint: "+BBEENQQ3BEsEPARPBD0EPQQ+BDUA--2" 791 0 basechar 0
AnchorPoint: "+BBEENQQ3BEsEPARPBD0EPQQ+BDUA--1" 445 725 basechar 0
AnchorPoint: "+BBEENQQ3BEsEPARPBD0EPQQ+BDUA--0" 800 725 basechar 0
LayerCount: 2
Fore
SplineSet
405 0 m 1,0,-1
 405 307 l 1,1,2
 347 258 347 258 285.5 197.5 c 128,-1,3
 224 137 224 137 159 62 c 1,4,-1
 87 95 l 1,5,-1
 87 611 l 1,6,-1
 -17 611 l 1,7,-1
 -17 679 l 1,8,-1
 902 679 l 1,9,-1
 902 611 l 1,10,-1
 827 611 l 1,11,-1
 827 0 l 1,12,-1
 751 0 l 1,13,-1
 751 522 l 1,14,-1
 748 523 l 1,15,16
 690 498 690 498 622.5 460 c 128,-1,17
 555 422 555 422 480 366 c 1,18,-1
 480 0 l 1,19,-1
 405 0 l 1,0,-1
168 189 m 1,20,21
 226 252 226 252 286 305 c 128,-1,22
 346 358 346 358 405 403 c 1,23,-1
 405 611 l 1,24,-1
 164 611 l 1,25,-1
 164 190 l 1,26,-1
 168 189 l 1,20,21
753 611 m 1,27,-1
 480 611 l 1,28,-1
 480 456 l 1,29,30
 552 505 552 505 620.5 543 c 128,-1,31
 689 581 689 581 753 611 c 1,27,-1
EndSplineSet
EndChar

StartChar: uniA808
Encoding: 43016 43016 25
Width: 962
VWidth: 0
GlyphClass: 2
Flags: W
HStem: 0 21G<810 886> 611 68<-17 68 144 400 507 762 886 971>
VStem: 68 76<341 611> 430 77<341 544> 810 76<0 558>
AnchorPoint: "+BBEENQQ3BEsEPARPBD0EPQQ+BDUA--2" 844 0 basechar 0
AnchorPoint: "+BBEENQQ3BEsEPARPBD0EPQQ+BDUA--1" 472 725 basechar 0
AnchorPoint: "+BBEENQQ3BEsEPARPBD0EPQQ+BDUA--0" 848 725 basechar 0
LayerCount: 2
Fore
SplineSet
810 0 m 1,0,-1
 810 558 l 1,1,-1
 807 560 l 1,2,3
 720 484 720 484 645.5 393 c 128,-1,4
 571 302 571 302 510 204 c 1,5,-1
 430 236 l 1,6,-1
 430 544 l 1,7,-1
 427 545 l 1,8,9
 345 471 345 471 275 383.5 c 128,-1,10
 205 296 205 296 147 204 c 1,11,-1
 68 236 l 1,12,-1
 68 611 l 1,13,-1
 -17 611 l 1,14,-1
 -17 679 l 1,15,-1
 971 679 l 1,16,-1
 971 611 l 1,17,-1
 886 611 l 1,18,-1
 886 0 l 1,19,-1
 810 0 l 1,0,-1
148 340 m 1,20,21
 206 420 206 420 265 483.5 c 128,-1,22
 324 547 324 547 400 611 c 1,23,-1
 144 611 l 1,24,-1
 144 341 l 1,25,-1
 148 340 l 1,20,21
511 340 m 1,26,27
 569 420 569 420 627.5 483.5 c 128,-1,28
 686 547 686 547 762 611 c 1,29,-1
 507 611 l 1,30,-1
 507 341 l 1,31,-1
 511 340 l 1,26,27
EndSplineSet
EndChar

StartChar: uniA809
Encoding: 43017 43017 26
Width: 660
VWidth: 0
GlyphClass: 2
Flags: W
HStem: 0 21G<503 579> 128 68<155.861 263.785> 611 68<-17 182.694 252 503 579 673>
VStem: 56 78<217.432 332.586> 304 77<237.466 397.197> 503 76<0 611>
AnchorPoint: "+BBEENQQ3BEsEPARPBD0EPQQ+BDUA--2" 543 0 basechar 0
AnchorPoint: "+BBEENQQ3BEsEPARPBD0EPQQ+BDUA--1" 327 725 basechar 0
AnchorPoint: "+BBEENQQ3BEsEPARPBD0EPQQ+BDUA--0" 542 725 basechar 0
LayerCount: 2
Fore
SplineSet
503 0 m 1,0,-1
 503 611 l 1,1,-1
 252 611 l 1,2,3
 282 574 282 574 311.5 527.5 c 128,-1,4
 341 481 341 481 361 427.5 c 128,-1,5
 381 374 381 374 381 316 c 0,6,7
 381 254 381 254 358 212 c 128,-1,8
 335 170 335 170 297 149 c 128,-1,9
 259 128 259 128 214 128 c 0,10,11
 172 128 172 128 136 147 c 128,-1,12
 100 166 100 166 78 202 c 128,-1,13
 56 238 56 238 56 288 c 0,14,15
 56 323 56 323 76 355.5 c 128,-1,16
 96 388 96 388 143 416 c 128,-1,17
 190 444 190 444 269 464 c 1,18,19
 245 508 245 508 216.5 547 c 128,-1,20
 188 586 188 586 162 611 c 1,21,-1
 -17 611 l 1,22,-1
 -17 679 l 1,23,-1
 673 679 l 1,24,-1
 673 611 l 1,25,-1
 579 611 l 1,26,-1
 579 0 l 1,27,-1
 503 0 l 1,0,-1
207 196 m 0,28,29
 228 196 228 196 250.5 208.5 c 128,-1,30
 273 221 273 221 288.5 247 c 128,-1,31
 304 273 304 273 304 314 c 0,32,33
 304 335 304 335 301 356 c 128,-1,34
 298 377 298 377 293 398 c 1,35,36
 229 384 229 384 194.5 363.5 c 128,-1,37
 160 343 160 343 147 320.5 c 128,-1,38
 134 298 134 298 134 276 c 0,39,40
 134 238 134 238 155.5 217 c 128,-1,41
 177 196 177 196 207 196 c 0,28,29
EndSplineSet
EndChar

StartChar: uniA80A
Encoding: 43018 43018 27
Width: 613
VWidth: 0
GlyphClass: 2
Flags: W
HStem: 0 21G<450 526> 57 71<242.911 450> 272 71<257.012 449.593> 486 69<245.781 450> 611 68<-17 450 526 623>
VStem: 450 76<0 57 128.002 270.312 343.062 485.959 555 611>
AnchorPoint: "+BBEENQQ3BEsEPARPBD0EPQQ+BDUA--2" 490 0 basechar 0
AnchorPoint: "+BBEENQQ3BEsEPARPBD0EPQQ+BDUA--1" 295 725 basechar 0
AnchorPoint: "+BBEENQQ3BEsEPARPBD0EPQQ+BDUA--0" 483 725 basechar 0
LayerCount: 2
Fore
SplineSet
450 0 m 1,0,-1
 450 57 l 1,1,-1
 434 57 l 2,2,3
 291 57 291 57 201 92 c 128,-1,4
 111 127 111 127 49 202 c 1,5,6
 67 224 67 224 95 245.5 c 128,-1,7
 123 267 123 267 156.5 284.5 c 128,-1,8
 190 302 190 302 221 311 c 1,9,10
 178 331 178 331 137 363.5 c 128,-1,11
 96 396 96 396 76 433 c 1,12,13
 126 483 126 483 177.5 509 c 128,-1,14
 229 535 229 535 290.5 545 c 128,-1,15
 352 555 352 555 429 555 c 2,16,-1
 450 555 l 1,17,-1
 450 611 l 1,18,-1
 -17 611 l 1,19,-1
 -17 679 l 1,20,-1
 623 679 l 1,21,-1
 623 611 l 1,22,-1
 526 611 l 1,23,-1
 526 0 l 1,24,-1
 450 0 l 1,0,-1
378 343 m 0,25,26
 403 343 403 343 420 343 c 128,-1,27
 437 343 437 343 450 344 c 1,28,-1
 450 485 l 1,29,30
 436 486 436 486 422.5 486 c 128,-1,31
 409 486 409 486 396 486 c 0,32,33
 339 486 339 486 299 479 c 128,-1,34
 259 472 259 472 229.5 457.5 c 128,-1,35
 200 443 200 443 173 420 c 1,36,37
 195 400 195 400 222 382.5 c 128,-1,38
 249 365 249 365 287 354 c 128,-1,39
 325 343 325 343 378 343 c 0,25,26
405 128 m 0,40,41
 416 128 416 128 427 128 c 128,-1,42
 438 128 438 128 450 129 c 1,43,-1
 450 269 l 1,44,45
 434 270 434 270 416.5 271 c 128,-1,46
 399 272 399 272 379 272 c 0,47,48
 293 272 293 272 239.5 252.5 c 128,-1,49
 186 233 186 233 141 199 c 1,50,51
 177 168 177 168 240 148 c 128,-1,52
 303 128 303 128 405 128 c 0,40,41
EndSplineSet
EndChar

StartChar: uniA80B
Encoding: 43019 43019 28
Width: 0
VWidth: 0
GlyphClass: 4
Flags: W
HStem: 747 61<-196.022 -115.507> 902 61<-192.455 -114.862>
VStem: -269 65<816.62 890.816> -104 67<819.116 890.816>
AnchorPoint: "+BBEENQQ3BEsEPARPBD0EPQQ+BDUA--7" -157 725 mark 0
AnchorPoint: "+BBEENQQ3BEsEPARPBD0EPQQ+BDUA--4" -154 725 mark 0
AnchorPoint: "+BBEENQQ3BEsEPARPBD0EPQQ+BDUA--3" -352 725 basemark 0
AnchorPoint: "+BBEENQQ3BEsEPARPBD0EPQQ+BDUA--3" -157 725 mark 0
AnchorPoint: "+BBEENQQ3BEsEPARPBD0EPQQ+BDUA--0" -154 725 mark 0
LayerCount: 2
Fore
SplineSet
-154 747 m 0,0,1
 -200 747 -200 747 -234.5 777.5 c 128,-1,2
 -269 808 -269 808 -269 855 c 0,3,4
 -269 903 -269 903 -234.5 933 c 128,-1,5
 -200 963 -200 963 -154 963 c 0,6,7
 -107 963 -107 963 -72 933 c 128,-1,8
 -37 903 -37 903 -37 855 c 0,9,10
 -37 808 -37 808 -72 777.5 c 128,-1,11
 -107 747 -107 747 -154 747 c 0,0,1
-155 808 m 0,12,13
 -132 808 -132 808 -118 822 c 128,-1,14
 -104 836 -104 836 -104 855 c 0,15,16
 -104 875 -104 875 -118 888.5 c 128,-1,17
 -132 902 -132 902 -155 902 c 0,18,19
 -175 902 -175 902 -189.5 888.5 c 128,-1,20
 -204 875 -204 875 -204 855 c 0,21,22
 -204 836 -204 836 -189.5 822 c 128,-1,23
 -175 808 -175 808 -155 808 c 0,12,13
EndSplineSet
Position2: "Single Positioning lookup 5 subtable" dx=100 dy=100 dh=0 dv=0
EndChar

StartChar: uniA80C
Encoding: 43020 43020 29
Width: 603
VWidth: 0
GlyphClass: 2
Flags: W
HStem: 0 21G<440 516> 158 75<291.588 440> 444 71<267.552 440> 611 68<-17 440 516 613>
VStem: 440 76<0 158 233 443.959 515 611>
AnchorPoint: "+BBEENQQ3BEsEPARPBD0EPQQ+BDUA--2" 484 0 basechar 0
AnchorPoint: "+BBEENQQ3BEsEPARPBD0EPQQ+BDUA--1" 295 725 basechar 0
AnchorPoint: "+BBEENQQ3BEsEPARPBD0EPQQ+BDUA--0" 483 725 basechar 0
LayerCount: 2
Fore
SplineSet
440 0 m 1,0,-1
 440 158 l 1,1,2
 315 163 315 163 216 204.5 c 128,-1,3
 117 246 117 246 45 349 c 1,4,5
 95 399 95 399 147.5 436 c 128,-1,6
 200 473 200 473 265.5 494 c 128,-1,7
 331 515 331 515 419 515 c 2,8,-1
 440 515 l 1,9,-1
 440 611 l 1,10,-1
 -17 611 l 1,11,-1
 -17 679 l 1,12,-1
 613 679 l 1,13,-1
 613 611 l 1,14,-1
 516 611 l 1,15,-1
 516 0 l 1,16,-1
 440 0 l 1,0,-1
424 233 m 2,17,-1
 440 233 l 1,18,-1
 440 443 l 1,19,20
 426 444 426 444 412.5 444 c 128,-1,21
 399 444 399 444 386 444 c 0,22,23
 324 444 324 444 278.5 427 c 128,-1,24
 233 410 233 410 200.5 386 c 128,-1,25
 168 362 168 362 142 339 c 1,26,27
 246 233 246 233 424 233 c 2,17,-1
EndSplineSet
EndChar

StartChar: uniA80D
Encoding: 43021 43021 30
Width: 735
VWidth: 0
GlyphClass: 2
Flags: W
HStem: -82 70<504.819 586.094> 126 62<500 547.25> 133 62<500.578 603.466> 611 68<-17 87 164 747>
VStem: 87 77<276 611> 426 74<2.44092 91 188 404> 617 76<19.7856 118.522>
AnchorPoint: "+BBEENQQ3BEsEPARPBD0EPQQ+BDUA--2" 537 -69 basechar 0
AnchorPoint: "+BBEENQQ3BEsEPARPBD0EPQQ+BDUA--1" 354 725 basechar 0
AnchorPoint: "+BBEENQQ3BEsEPARPBD0EPQQ+BDUA--0" 461 725 basechar 0
LayerCount: 2
Fore
SplineSet
259 -147 m 1,0,-1
 191 -122 l 1,1,2
 215 -49 215 -49 254 7 c 128,-1,3
 293 63 293 63 338 103 c 128,-1,4
 383 143 383 143 426 166 c 1,5,-1
 426 404 l 1,6,-1
 423 405 l 1,7,8
 402 392 402 392 360.5 361 c 128,-1,9
 319 330 319 330 268 277 c 128,-1,10
 217 224 217 224 167 143 c 1,11,-1
 87 176 l 1,12,-1
 87 611 l 1,13,-1
 -17 611 l 1,14,-1
 -17 679 l 1,15,-1
 747 679 l 1,16,-1
 747 611 l 1,17,-1
 164 611 l 1,18,-1
 164 276 l 1,19,-1
 168 275 l 1,20,21
 205 316 205 316 235 345 c 128,-1,22
 265 374 265 374 292.5 397.5 c 128,-1,23
 320 421 320 421 349.5 442.5 c 128,-1,24
 379 464 379 464 416 490 c 1,25,-1
 500 457 l 1,26,-1
 500 188 l 1,27,28
 513 191 513 191 525.5 193 c 128,-1,29
 538 195 538 195 550 195 c 0,30,31
 624 195 624 195 658.5 163.5 c 128,-1,32
 693 132 693 132 693 80 c 0,33,34
 693 56 693 56 680.5 28.5 c 128,-1,35
 668 1 668 1 646 -24.5 c 128,-1,36
 624 -50 624 -50 594.5 -66 c 128,-1,37
 565 -82 565 -82 532 -82 c 0,38,39
 483 -82 483 -82 460.5 -62 c 128,-1,40
 438 -42 438 -42 432 -12 c 128,-1,41
 426 18 426 18 426 46 c 2,42,-1
 426 91 l 1,43,44
 386 60 386 60 338 1.5 c 128,-1,45
 290 -57 290 -57 259 -147 c 1,0,-1
533 -12 m 0,46,47
 557 -12 557 -12 576 1.5 c 128,-1,48
 595 15 595 15 606 36 c 128,-1,49
 617 57 617 57 617 79 c 0,50,51
 617 99 617 99 602 116 c 128,-1,52
 587 133 587 133 548 133 c 0,53,54
 524 133 524 133 500 126 c 1,55,-1
 500 44 l 2,56,57
 500 16 500 16 505.5 2 c 128,-1,58
 511 -12 511 -12 533 -12 c 0,46,47
EndSplineSet
EndChar

StartChar: uniA80E
Encoding: 43022 43022 31
Width: 749
VWidth: 0
GlyphClass: 2
Flags: W
HStem: 0 21G<596 672> 81 66<191.09 349.841> 348 69<304 365.939> 611 68<-13 165 239.395 596 672 760>
VStem: 42 75<224.969 443.604> 395 77<189.052 322.815> 596 76<0 380 450 611>
AnchorPoint: "+BBEENQQ3BEsEPARPBD0EPQQ+BDUA--2" 640 0 basechar 0
AnchorPoint: "+BBEENQQ3BEsEPARPBD0EPQQ+BDUA--1" 349 725 basechar 0
AnchorPoint: "+BBEENQQ3BEsEPARPBD0EPQQ+BDUA--0" 644 725 basechar 0
LayerCount: 2
Fore
SplineSet
596 0 m 1,0,-1
 596 380 l 1,1,-1
 425 361 l 1,2,-1
 424 358 l 1,3,4
 447 343 447 343 459.5 315 c 128,-1,5
 472 287 472 287 472 255 c 0,6,7
 472 194 472 194 443.5 155.5 c 128,-1,8
 415 117 415 117 368.5 99 c 128,-1,9
 322 81 322 81 268 81 c 0,10,11
 234 81 234 81 195 93 c 128,-1,12
 156 105 156 105 121 133 c 128,-1,13
 86 161 86 161 64 209.5 c 128,-1,14
 42 258 42 258 42 331 c 0,15,16
 42 390 42 390 60 440.5 c 128,-1,17
 78 491 78 491 106 533.5 c 128,-1,18
 134 576 134 576 165 611 c 1,19,-1
 -13 611 l 1,20,-1
 -13 679 l 1,21,-1
 760 679 l 1,22,-1
 760 611 l 1,23,-1
 672 611 l 1,24,-1
 672 0 l 1,25,-1
 596 0 l 1,0,-1
273 147 m 0,26,27
 324 147 324 147 359.5 175.5 c 128,-1,28
 395 204 395 204 395 256 c 0,29,30
 395 294 395 294 381 313.5 c 128,-1,31
 367 333 367 333 345.5 340.5 c 128,-1,32
 324 348 324 348 300 348 c 1,33,-1
 304 417 l 1,34,-1
 596 450 l 1,35,-1
 596 611 l 1,36,-1
 260 611 l 1,37,38
 225 576 225 576 192 534 c 128,-1,39
 159 492 159 492 138 442 c 128,-1,40
 117 392 117 392 117 331 c 0,41,42
 117 276 117 276 131.5 240.5 c 128,-1,43
 146 205 146 205 169.5 184.5 c 128,-1,44
 193 164 193 164 220.5 155.5 c 128,-1,45
 248 147 248 147 273 147 c 0,26,27
EndSplineSet
EndChar

StartChar: uniA80F
Encoding: 43023 43023 32
Width: 937
VWidth: 0
GlyphClass: 2
Flags: W
HStem: 611 68<-17 87 164 943>
VStem: 87 77<265 611> 407 74<145 434> 654 75<257.542 441.55> 809 72<234.238 438.611>
AnchorPoint: "+BBEENQQ3BEsEPARPBD0EPQQ+BDUA--2" 474 80 basechar 0
AnchorPoint: "+BBEENQQ3BEsEPARPBD0EPQQ+BDUA--1" 435 725 basechar 0
AnchorPoint: "+BBEENQQ3BEsEPARPBD0EPQQ+BDUA--0" 708 725 basechar 0
LayerCount: 2
Fore
SplineSet
407 63 m 1,0,-1
 407 434 l 1,1,-1
 404 435 l 1,2,3
 364 402 364 402 302.5 329.5 c 128,-1,4
 241 257 241 257 167 126 c 1,5,-1
 87 156 l 1,6,-1
 87 611 l 1,7,-1
 -17 611 l 1,8,-1
 -17 679 l 1,9,-1
 943 679 l 1,10,-1
 943 611 l 1,11,-1
 164 611 l 1,12,-1
 164 265 l 1,13,-1
 168 264 l 1,14,15
 194 304 194 304 217.5 335 c 128,-1,16
 241 366 241 366 266 394.5 c 128,-1,17
 291 423 291 423 322.5 453 c 128,-1,18
 354 483 354 483 397 520 c 1,19,-1
 481 487 l 1,20,-1
 481 145 l 1,21,-1
 484 143 l 1,22,23
 541 158 541 158 579 190 c 128,-1,24
 617 222 617 222 635.5 264.5 c 128,-1,25
 654 307 654 307 654 352 c 0,26,27
 654 384 654 384 644.5 414 c 128,-1,28
 635 444 635 444 612 469 c 1,29,-1
 662 518 l 1,30,31
 700 482 700 482 714.5 438.5 c 128,-1,32
 729 395 729 395 729 348 c 0,33,34
 729 293 729 293 705.5 243 c 128,-1,35
 682 193 682 193 639 153 c 128,-1,36
 596 113 596 113 537 89 c 128,-1,37
 478 65 478 65 407 63 c 1,0,-1
676 31 m 1,38,-1
 643 88 l 1,39,40
 729 132 729 132 769 198.5 c 128,-1,41
 809 265 809 265 809 335 c 0,42,43
 809 373 809 373 798 409.5 c 128,-1,44
 787 446 787 446 764 481 c 1,45,-1
 818 522 l 1,46,47
 852 479 852 479 866.5 429 c 128,-1,48
 881 379 881 379 881 332 c 0,49,50
 881 275 881 275 859 218.5 c 128,-1,51
 837 162 837 162 792 113.5 c 128,-1,52
 747 65 747 65 676 31 c 1,38,-1
EndSplineSet
EndChar

StartChar: uniA810
Encoding: 43024 43024 33
Width: 543
VWidth: 0
GlyphClass: 2
Flags: W
HStem: -6 67<183.218 332.214> 602 77<200.992 341.305> 611 68<-17 137 401 557>
VStem: 68 78<97.9932 227.889> 83 77<441.786 561.395> 373 78<100.147 200.688 433.047 571.098>
AnchorPoint: "+BBEENQQ3BEsEPARPBD0EPQQ+BDUA--2" 264 0 basechar 0
AnchorPoint: "+BBEENQQ3BEsEPARPBD0EPQQ+BDUA--1" 257 725 basechar 0
AnchorPoint: "+BBEENQQ3BEsEPARPBD0EPQQ+BDUA--0" 370 725 basechar 0
LayerCount: 2
Fore
SplineSet
259 -6 m 0,0,1
 194 -6 194 -6 151.5 19 c 128,-1,2
 109 44 109 44 88.5 83.5 c 128,-1,3
 68 123 68 123 68 167 c 0,4,5
 68 214 68 214 90.5 248 c 128,-1,6
 113 282 113 282 154 309 c 128,-1,7
 195 336 195 336 251 362 c 0,8,9
 304 387 304 387 340 421 c 128,-1,10
 376 455 376 455 376 501 c 0,11,12
 376 546 376 546 348.5 574 c 128,-1,13
 321 602 321 602 273 602 c 0,14,15
 220 602 220 602 190 571 c 128,-1,16
 160 540 160 540 160 496 c 0,17,18
 160 473 160 473 169 446 c 1,19,-1
 96 424 l 1,20,21
 90 440 90 440 86.5 457.5 c 128,-1,22
 83 475 83 475 83 494 c 0,23,24
 83 526 83 526 96.5 557 c 128,-1,25
 110 588 110 588 137 611 c 1,26,-1
 -17 611 l 1,27,-1
 -17 679 l 1,28,-1
 557 679 l 1,29,-1
 557 611 l 1,30,-1
 401 611 l 1,31,32
 425 589 425 589 437 559 c 128,-1,33
 449 529 449 529 449 495 c 0,34,35
 449 425 449 425 404.5 380 c 128,-1,36
 360 335 360 335 289 303 c 0,37,38
 210 268 210 268 178 238.5 c 128,-1,39
 146 209 146 209 146 165 c 0,40,41
 146 119 146 119 174.5 90 c 128,-1,42
 203 61 203 61 259 61 c 0,43,44
 281 61 281 61 307.5 70 c 128,-1,45
 334 79 334 79 353.5 101 c 128,-1,46
 373 123 373 123 373 163 c 0,47,48
 373 172 373 172 372 181.5 c 128,-1,49
 371 191 371 191 369 201 c 1,50,-1
 447 212 l 1,51,52
 449 198 449 198 450 185 c 128,-1,53
 451 172 451 172 451 158 c 0,54,55
 451 83 451 83 401 38.5 c 128,-1,56
 351 -6 351 -6 259 -6 c 0,0,1
EndSplineSet
EndChar

StartChar: uniA811
Encoding: 43025 43025 34
Width: 526
VWidth: 0
GlyphClass: 2
Flags: W
HStem: 408 70<260.061 375.537> 611 68<-17 68 144 536>
VStem: 68 76<75 611> 397 76<230.609 384.444>
AnchorPoint: "+BBEENQQ3BEsEPARPBD0EPQQ+BDUA--2" 108 0 basechar 0
AnchorPoint: "+BBEENQQ3BEsEPARPBD0EPQQ+BDUA--1" 241 725 basechar 0
AnchorPoint: "+BBEENQQ3BEsEPARPBD0EPQQ+BDUA--0" 445 725 basechar 0
LayerCount: 2
Fore
SplineSet
76 -5 m 1,0,-1
 68 3 l 1,1,-1
 68 611 l 1,2,-1
 -17 611 l 1,3,-1
 -17 679 l 1,4,-1
 536 679 l 1,5,-1
 536 611 l 1,6,-1
 144 611 l 1,7,-1
 144 75 l 1,8,-1
 147 73 l 1,9,10
 199 80 199 80 244 103.5 c 128,-1,11
 289 127 289 127 323.5 161 c 128,-1,12
 358 195 358 195 377.5 235 c 128,-1,13
 397 275 397 275 397 315 c 0,14,15
 397 359 397 359 378 383.5 c 128,-1,16
 359 408 359 408 321 408 c 0,17,18
 308 408 308 408 292.5 403 c 128,-1,19
 277 398 277 398 268 392 c 1,20,-1
 238 459 l 1,21,22
 278 478 278 478 321 478 c 0,23,24
 389 478 389 478 431 434 c 128,-1,25
 473 390 473 390 473 316 c 0,26,27
 473 261 473 261 444 205 c 128,-1,28
 415 149 415 149 362 102 c 128,-1,29
 309 55 309 55 236 26 c 128,-1,30
 163 -3 163 -3 76 -5 c 1,0,-1
EndSplineSet
EndChar

StartChar: uniA812
Encoding: 43026 43026 35
Width: 769
VWidth: 0
GlyphClass: 2
Flags: W
HStem: -8 76<265.591 507.233> 611 68<-7 346 423 776>
VStem: 50 82<185.057 376.55> 346 77<361 611> 637 75<188.023 396.35>
AnchorPoint: "+BBEENQQ3BEsEPARPBD0EPQQ+BDUA--2" 393 0 basechar 0
AnchorPoint: "+BBEENQQ3BEsEPARPBD0EPQQ+BDUA--1" 381 725 basechar 0
AnchorPoint: "+BBEENQQ3BEsEPARPBD0EPQQ+BDUA--0" 392 725 basechar 0
LayerCount: 2
Fore
SplineSet
390 -8 m 256,0,1
 295 -8 295 -8 218 26.5 c 128,-1,2
 141 61 141 61 95.5 126 c 128,-1,3
 50 191 50 191 50 282 c 0,4,5
 50 337 50 337 67 378 c 128,-1,6
 84 419 84 419 106.5 448.5 c 128,-1,7
 129 478 129 478 145 497 c 1,8,-1
 207 447 l 1,9,10
 179 418 179 418 155.5 380 c 128,-1,11
 132 342 132 342 132 280 c 0,12,13
 132 212 132 212 166 164.5 c 128,-1,14
 200 117 200 117 258.5 92.5 c 128,-1,15
 317 68 317 68 392 68 c 0,16,17
 462 68 462 68 517.5 94 c 128,-1,18
 573 120 573 120 605 169.5 c 128,-1,19
 637 219 637 219 637 289 c 0,20,21
 637 313 637 313 632.5 341 c 128,-1,22
 628 369 628 369 618 397 c 1,23,24
 544 379 544 379 498.5 337 c 128,-1,25
 453 295 453 295 420 227 c 1,26,-1
 346 259 l 1,27,-1
 346 611 l 1,28,-1
 -7 611 l 1,29,-1
 -7 679 l 1,30,-1
 776 679 l 1,31,-1
 776 611 l 1,32,-1
 423 611 l 1,33,-1
 423 361 l 1,34,-1
 427 360 l 1,35,36
 474 413 474 413 534.5 440 c 128,-1,37
 595 467 595 467 665 473 c 1,38,39
 688 428 688 428 700 378 c 128,-1,40
 712 328 712 328 712 284 c 0,41,42
 712 198 712 198 671 132 c 128,-1,43
 630 66 630 66 557.5 29 c 128,-1,44
 485 -8 485 -8 390 -8 c 256,0,1
EndSplineSet
EndChar

StartChar: uniA813
Encoding: 43027 43027 36
Width: 551
VWidth: 0
GlyphClass: 2
Flags: W
HStem: 0 21G<73 135> 397 68<297.441 398.367> 611 68<-17 73 149 567>
VStem: 73 76<80 611> 210 75<309.409 385.984> 420 78<221.363 374.838>
AnchorPoint: "+BBEENQQ3BEsEPARPBD0EPQQ+BDUA--2" 108 0 basechar 0
AnchorPoint: "+BBEENQQ3BEsEPARPBD0EPQQ+BDUA--1" 263 725 basechar 0
AnchorPoint: "+BBEENQQ3BEsEPARPBD0EPQQ+BDUA--0" 483 725 basechar 0
LayerCount: 2
Fore
SplineSet
86 0 m 1,0,-1
 73 12 l 1,1,-1
 73 611 l 1,2,-1
 -17 611 l 1,3,-1
 -17 679 l 1,4,-1
 567 679 l 1,5,-1
 567 611 l 1,6,-1
 149 611 l 1,7,-1
 149 80 l 1,8,-1
 152 78 l 1,9,10
 209 81 209 81 258 101 c 128,-1,11
 307 121 307 121 343 153 c 128,-1,12
 379 185 379 185 399.5 223.5 c 128,-1,13
 420 262 420 262 420 302 c 0,14,15
 420 397 420 397 342 397 c 0,16,17
 319 397 319 397 302 385 c 128,-1,18
 285 373 285 373 285 348 c 0,19,20
 285 330 285 330 293.5 320 c 128,-1,21
 302 310 302 310 313 306.5 c 128,-1,22
 324 303 324 303 330 301 c 1,23,-1
 304 232 l 1,24,25
 285 236 285 236 263 248 c 128,-1,26
 241 260 241 260 225.5 283.5 c 128,-1,27
 210 307 210 307 210 345 c 0,28,29
 210 387 210 387 231 413.5 c 128,-1,30
 252 440 252 440 283.5 452.5 c 128,-1,31
 315 465 315 465 346 465 c 0,32,33
 414 465 414 465 456 421 c 128,-1,34
 498 377 498 377 498 303 c 0,35,36
 498 248 498 248 470.5 195 c 128,-1,37
 443 142 443 142 389.5 98.5 c 128,-1,38
 336 55 336 55 260 28.5 c 128,-1,39
 184 2 184 2 86 0 c 1,0,-1
EndSplineSet
EndChar

StartChar: uniA814
Encoding: 43028 43028 37
Width: 572
VWidth: 0
GlyphClass: 2
Flags: W
HStem: 0 21G<434 509> 300 70<156.437 360.657> 611 68<-17 434 509 577>
VStem: 121 73<114.748 281.215> 434 75<0 344 417.491 611>
AnchorPoint: "+BBEENQQ3BEsEPARPBD0EPQQ+BDUA--2" 468 0 basechar 0
AnchorPoint: "+BBEENQQ3BEsEPARPBD0EPQQ+BDUA--1" 279 725 basechar 0
AnchorPoint: "+BBEENQQ3BEsEPARPBD0EPQQ+BDUA--0" 483 725 basechar 0
LayerCount: 2
Fore
SplineSet
91 -15 m 1,0,-1
 34 37 l 1,1,2
 80 79 80 79 100.5 116.5 c 128,-1,3
 121 154 121 154 121 194 c 0,4,5
 121 242 121 242 100.5 279 c 128,-1,6
 80 316 80 316 38 352 c 1,7,-1
 78 414 l 1,8,9
 124 390 124 390 167.5 380 c 128,-1,10
 211 370 211 370 245 370 c 0,11,12
 306 370 306 370 352 388 c 128,-1,13
 398 406 398 406 434 431 c 1,14,-1
 434 611 l 1,15,-1
 -17 611 l 1,16,-1
 -17 679 l 1,17,-1
 577 679 l 1,18,-1
 577 611 l 1,19,-1
 509 611 l 1,20,-1
 509 0 l 1,21,-1
 434 0 l 1,22,-1
 434 344 l 1,23,24
 397 323 397 323 352.5 311.5 c 128,-1,25
 308 300 308 300 245 300 c 0,26,27
 227 300 227 300 202.5 304 c 128,-1,28
 178 308 178 308 157 317 c 1,29,-1
 155 314 l 1,30,31
 175 289 175 289 184.5 257.5 c 128,-1,32
 194 226 194 226 194 194 c 0,33,34
 194 141 194 141 170.5 89.5 c 128,-1,35
 147 38 147 38 91 -15 c 1,0,-1
EndSplineSet
EndChar

StartChar: uniA815
Encoding: 43029 43029 38
Width: 925
VWidth: 0
GlyphClass: 2
Flags: W
HStem: 0 21G<772 847> 142 79<106.181 185.51> 611 68<-17 726 847 932>
VStem: 414 75<331 411> 772 75<0 558>
AnchorPoint: "+BBEENQQ3BEsEPARPBD0EPQQ+BDUA--2" 812 0 basechar 0
AnchorPoint: "+BBEENQQ3BEsEPARPBD0EPQQ+BDUA--1" 435 725 basechar 0
AnchorPoint: "+BBEENQQ3BEsEPARPBD0EPQQ+BDUA--0" 811 725 basechar 0
LayerCount: 2
Fore
SplineSet
772 0 m 1,0,-1
 772 558 l 1,1,-1
 769 559 l 1,2,3
 687 481 687 481 620 385.5 c 128,-1,4
 553 290 553 290 495 184 c 1,5,-1
 414 216 l 1,6,-1
 414 411 l 1,7,8
 384 371 384 371 350 325 c 128,-1,9
 316 279 316 279 274 226 c 0,10,11
 246 190 246 190 213 166 c 128,-1,12
 180 142 180 142 136 142 c 0,13,14
 106 142 106 142 80 157 c 128,-1,15
 54 172 54 172 31 212 c 1,16,-1
 97 258 l 1,17,18
 116 221 116 221 141 221 c 0,19,20
 158 221 158 221 173.5 232.5 c 128,-1,21
 189 244 189 244 211 271 c 0,22,23
 254 322 254 322 287 365.5 c 128,-1,24
 320 409 320 409 351.5 449.5 c 128,-1,25
 383 490 383 490 419 529 c 1,26,-1
 489 499 l 1,27,-1
 489 331 l 1,28,-1
 493 330 l 1,29,30
 546 409 546 409 599 477 c 128,-1,31
 652 545 652 545 726 611 c 1,32,-1
 -17 611 l 1,33,-1
 -17 679 l 1,34,-1
 932 679 l 1,35,-1
 932 611 l 1,36,-1
 847 611 l 1,37,-1
 847 0 l 1,38,-1
 772 0 l 1,0,-1
EndSplineSet
EndChar

StartChar: uniA816
Encoding: 43030 43030 39
Width: 674
VWidth: 0
GlyphClass: 2
Flags: W
HStem: -164 75<508.723 619.777> 611 68<-17 87 164 687>
VStem: 87 77<276 611> 426 74<-68.8878 404>
AnchorPoint: "+BBEENQQ3BEsEPARPBD0EPQQ+BDUA--2" 554 -147 basechar 0
AnchorPoint: "+BBEENQQ3BEsEPARPBD0EPQQ+BDUA--1" 306 725 basechar 0
AnchorPoint: "+BBEENQQ3BEsEPARPBD0EPQQ+BDUA--0" 547 725 basechar 0
LayerCount: 2
Fore
SplineSet
548 -164 m 0,0,1
 497 -164 497 -164 471 -142 c 128,-1,2
 445 -120 445 -120 435.5 -87 c 128,-1,3
 426 -54 426 -54 426 -22 c 2,4,-1
 426 404 l 1,5,-1
 423 406 l 1,6,7
 359 363 359 363 295.5 301.5 c 128,-1,8
 232 240 232 240 167 143 c 1,9,-1
 87 176 l 1,10,-1
 87 611 l 1,11,-1
 -17 611 l 1,12,-1
 -17 679 l 1,13,-1
 687 679 l 1,14,-1
 687 611 l 1,15,-1
 164 611 l 1,16,-1
 164 276 l 1,17,-1
 168 275 l 1,18,19
 205 316 205 316 235 345 c 128,-1,20
 265 374 265 374 292.5 397.5 c 128,-1,21
 320 421 320 421 349.5 442.5 c 128,-1,22
 379 464 379 464 416 490 c 1,23,-1
 500 457 l 1,24,-1
 500 -19 l 2,25,26
 500 -50 500 -50 509 -69.5 c 128,-1,27
 518 -89 518 -89 546 -89 c 0,28,29
 564 -89 564 -89 580 -82 c 128,-1,30
 596 -75 596 -75 609 -67 c 1,31,-1
 646 -132 l 1,32,33
 623 -149 623 -149 600.5 -156.5 c 128,-1,34
 578 -164 578 -164 548 -164 c 0,0,1
EndSplineSet
EndChar

StartChar: uniA817
Encoding: 43031 43031 40
Width: 806
VWidth: 0
GlyphClass: 2
Flags: W
HStem: 0 21G<648 724> 393 69<156.421 289.5> 611 68<-17 38 112 649 724 809>
VStem: 38 74<514.944 611> 290 77<314 409> 648 76<0 517>
AnchorPoint: "+BBEENQQ3BEsEPARPBD0EPQQ+BDUA--2" 694 0 basechar 0
AnchorPoint: "+BBEENQQ3BEsEPARPBD0EPQQ+BDUA--1" 381 725 basechar 0
AnchorPoint: "+BBEENQQ3BEsEPARPBD0EPQQ+BDUA--0" 687 725 basechar 0
LayerCount: 2
Fore
SplineSet
648 0 m 1,0,-1
 648 517 l 1,1,-1
 645 518 l 1,2,3
 611 488 611 488 579 458.5 c 128,-1,4
 547 429 547 429 515.5 392.5 c 128,-1,5
 484 356 484 356 450 306 c 128,-1,6
 416 256 416 256 377 185 c 1,7,-1
 290 212 l 1,8,-1
 290 409 l 1,9,10
 274 402 274 402 256 397.5 c 128,-1,11
 238 393 238 393 218 393 c 0,12,13
 155 393 155 393 116.5 420.5 c 128,-1,14
 78 448 78 448 59.5 497.5 c 128,-1,15
 41 547 41 547 38 611 c 1,16,-1
 -17 611 l 1,17,-1
 -17 679 l 1,18,-1
 809 679 l 1,19,-1
 809 611 l 1,20,-1
 724 611 l 1,21,-1
 724 0 l 1,22,-1
 648 0 l 1,0,-1
371 313 m 1,23,24
 418 381 418 381 460.5 430.5 c 128,-1,25
 503 480 503 480 549 522.5 c 128,-1,26
 595 565 595 565 649 611 c 1,27,-1
 112 611 l 1,28,29
 115 545 115 545 139.5 503.5 c 128,-1,30
 164 462 164 462 227 462 c 0,31,32
 252 462 252 462 284.5 468.5 c 128,-1,33
 317 475 317 475 358 503 c 1,34,-1
 367 499 l 1,35,-1
 367 314 l 1,36,-1
 371 313 l 1,23,24
EndSplineSet
EndChar

StartChar: uniA818
Encoding: 43032 43032 41
Width: 630
VWidth: 0
GlyphClass: 2
Flags: W
HStem: 0 21G<466 541> 83 70<149.356 252.017> 593 86<365.588 465.875> 611 68<-17 306 541 637>
VStem: 44 78<181.123 338.402> 271 78<173.455 295.384> 466 75<0 593>
AnchorPoint: "+BBEENQQ3BEsEPARPBD0EPQQ+BDUA--2" 506 0 basechar 0
AnchorPoint: "+BBEENQQ3BEsEPARPBD0EPQQ+BDUA--1" 295 725 basechar 0
AnchorPoint: "+BBEENQQ3BEsEPARPBD0EPQQ+BDUA--0" 504 725 basechar 0
LayerCount: 2
Fore
SplineSet
466 0 m 1,0,-1
 466 592 l 1,1,2
 462 593 462 593 456 593 c 0,3,4
 412 593 412 593 362.5 570 c 128,-1,5
 313 547 313 547 268 509 c 128,-1,6
 223 471 223 471 190 426 c 1,7,8
 282 388 282 388 315.5 337.5 c 128,-1,9
 349 287 349 287 349 230 c 0,10,11
 349 192 349 192 331.5 158.5 c 128,-1,12
 314 125 314 125 280.5 104 c 128,-1,13
 247 83 247 83 199 83 c 0,14,15
 160 83 160 83 124.5 102.5 c 128,-1,16
 89 122 89 122 66.5 159 c 128,-1,17
 44 196 44 196 44 249 c 0,18,19
 44 306 44 306 66 360 c 128,-1,20
 88 414 88 414 125.5 461.5 c 128,-1,21
 163 509 163 509 210 547.5 c 128,-1,22
 257 586 257 586 306 611 c 1,23,-1
 -17 611 l 1,24,-1
 -17 679 l 1,25,-1
 637 679 l 1,26,-1
 637 611 l 1,27,-1
 541 611 l 1,28,-1
 541 0 l 1,29,-1
 466 0 l 1,0,-1
200 153 m 0,30,31
 234 153 234 153 252.5 175 c 128,-1,32
 271 197 271 197 271 225 c 0,33,34
 271 263 271 263 246 300 c 128,-1,35
 221 337 221 337 156 364 c 1,36,37
 140 334 140 334 131 305 c 128,-1,38
 122 276 122 276 122 245 c 0,39,40
 122 206 122 206 145 179.5 c 128,-1,41
 168 153 168 153 200 153 c 0,30,31
EndSplineSet
EndChar

StartChar: uniA819
Encoding: 43033 43033 42
Width: 750
VWidth: 0
GlyphClass: 2
Flags: W
HStem: 0 21G<608 684> 611 68<-17 68 144 610 684 769>
VStem: 68 76<197 611> 608 76<0 517>
AnchorPoint: "+BBEENQQ3BEsEPARPBD0EPQQ+BDUA--2" 651 0 basechar 0
AnchorPoint: "+BBEENQQ3BEsEPARPBD0EPQQ+BDUA--1" 349 725 basechar 0
AnchorPoint: "+BBEENQQ3BEsEPARPBD0EPQQ+BDUA--0" 649 725 basechar 0
LayerCount: 2
Fore
SplineSet
608 0 m 1,0,-1
 608 517 l 1,1,-1
 605 518 l 1,2,3
 534 473 534 473 453.5 405.5 c 128,-1,4
 373 338 373 338 294 251 c 128,-1,5
 215 164 215 164 147 59 c 1,6,-1
 68 91 l 1,7,-1
 68 611 l 1,8,-1
 -17 611 l 1,9,-1
 -17 679 l 1,10,-1
 769 679 l 1,11,-1
 769 611 l 1,12,-1
 684 611 l 1,13,-1
 684 0 l 1,14,-1
 608 0 l 1,0,-1
148 196 m 1,15,16
 208 280 208 280 285 355.5 c 128,-1,17
 362 431 362 431 446 495.5 c 128,-1,18
 530 560 530 560 610 611 c 1,19,-1
 144 611 l 1,20,-1
 144 197 l 1,21,-1
 148 196 l 1,15,16
EndSplineSet
EndChar

StartChar: uniA81A
Encoding: 43034 43034 43
Width: 908
VWidth: 0
GlyphClass: 2
Flags: W
HStem: 0 21G<608 684> 64 71<802.531 879.085> 217 53<716 789.902> 386 61<684.938 809.686> 611 68<-17 68 144 610 684 920>
VStem: 68 76<197 611> 608 76<0 167 270 377.91 435 517> 821 71<297.219 375.41>
AnchorPoint: "+BBEENQQ3BEsEPARPBD0EPQQ+BDUA--2" 651 0 basechar 0
AnchorPoint: "+BBEENQQ3BEsEPARPBD0EPQQ+BDUA--1" 397 725 basechar 0
AnchorPoint: "+BBEENQQ3BEsEPARPBD0EPQQ+BDUA--0" 649 725 basechar 0
LayerCount: 2
Fore
SplineSet
608 0 m 1,0,-1
 608 517 l 1,1,-1
 605 518 l 1,2,3
 484 442 484 442 363 329.5 c 128,-1,4
 242 217 242 217 147 63 c 1,5,-1
 68 95 l 1,6,-1
 68 611 l 1,7,-1
 -17 611 l 1,8,-1
 -17 679 l 1,9,-1
 920 679 l 1,10,-1
 920 611 l 1,11,-1
 684 611 l 1,12,-1
 684 435 l 1,13,14
 703 440 703 440 723.5 443.5 c 128,-1,15
 744 447 744 447 769 447 c 0,16,17
 801 447 801 447 829 436.5 c 128,-1,18
 857 426 857 426 874.5 401.5 c 128,-1,19
 892 377 892 377 892 335 c 0,20,21
 892 287 892 287 865 261.5 c 128,-1,22
 838 236 838 236 797.5 227 c 128,-1,23
 757 218 757 218 716 217 c 1,24,-1
 715 214 l 1,25,26
 735 190 735 190 783 165.5 c 128,-1,27
 831 141 831 141 889 135 c 1,28,-1
 878 64 l 1,29,30
 812 70 812 70 764 100 c 128,-1,31
 716 130 716 130 684 167 c 1,32,-1
 684 0 l 1,33,-1
 608 0 l 1,0,-1
148 196 m 1,34,35
 208 280 208 280 285 355.5 c 128,-1,36
 362 431 362 431 446 495.5 c 128,-1,37
 530 560 530 560 610 611 c 1,38,-1
 144 611 l 1,39,-1
 144 197 l 1,40,-1
 148 196 l 1,34,35
684 270 m 1,41,42
 718 271 718 271 749 277.5 c 128,-1,43
 780 284 780 284 800.5 298 c 128,-1,44
 821 312 821 312 821 335 c 0,45,46
 821 361 821 361 806 373.5 c 128,-1,47
 791 386 791 386 765 386 c 0,48,49
 725 386 725 386 684 371 c 1,50,-1
 684 270 l 1,41,42
EndSplineSet
EndChar

StartChar: uniA81B
Encoding: 43035 43035 44
Width: 593
VWidth: 0
GlyphClass: 2
Flags: W
HStem: 0 21G<438 514> 122 74<189.39 374.941> 447 72<193.282 389.489> 611 68<-17 438 514 610>
VStem: 59 82<243.112 398.616> 438 76<0 176 242.702 410.729 474 611>
AnchorPoint: "+BBEENQQ3BEsEPARPBD0EPQQ+BDUA--2" 484 0 basechar 0
AnchorPoint: "+BBEENQQ3BEsEPARPBD0EPQQ+BDUA--1" 273 725 basechar 0
AnchorPoint: "+BBEENQQ3BEsEPARPBD0EPQQ+BDUA--0" 483 725 basechar 0
LayerCount: 2
Fore
SplineSet
438 0 m 1,0,-1
 438 176 l 1,1,2
 406 153 406 153 366.5 137.5 c 128,-1,3
 327 122 327 122 278 122 c 0,4,5
 175 122 175 122 117 173.5 c 128,-1,6
 59 225 59 225 59 322 c 0,7,8
 59 417 59 417 118 468 c 128,-1,9
 177 519 177 519 281 519 c 0,10,11
 329 519 329 519 368 506.5 c 128,-1,12
 407 494 407 494 438 474 c 1,13,-1
 438 611 l 1,14,-1
 -17 611 l 1,15,-1
 -17 679 l 1,16,-1
 610 679 l 1,17,-1
 610 611 l 1,18,-1
 514 611 l 1,19,-1
 514 0 l 1,20,-1
 438 0 l 1,0,-1
280 196 m 0,21,22
 328 196 328 196 367.5 214 c 128,-1,23
 407 232 407 232 438 260 c 1,24,-1
 438 397 l 1,25,26
 410 417 410 417 374.5 432 c 128,-1,27
 339 447 339 447 289 447 c 0,28,29
 141 447 141 447 141 322 c 0,30,31
 141 196 141 196 280 196 c 0,21,22
EndSplineSet
EndChar

StartChar: uniA81C
Encoding: 43036 43036 45
Width: 716
VWidth: 0
GlyphClass: 2
Flags: W
HStem: 0 21G<552 628> 83 70<236.065 339.017> 390 70<43.2059 163.313> 593 86<449.561 551.875> 611 68<-17 393 628 724>
VStem: 131 78<180.705 340.793> 358 78<173.455 294.14> 552 76<0 593>
AnchorPoint: "+BBEENQQ3BEsEPARPBD0EPQQ+BDUA--2" 592 0 basechar 0
AnchorPoint: "+BBEENQQ3BEsEPARPBD0EPQQ+BDUA--1" 322 725 basechar 0
AnchorPoint: "+BBEENQQ3BEsEPARPBD0EPQQ+BDUA--0" 596 725 basechar 0
LayerCount: 2
Fore
SplineSet
552 0 m 1,0,-1
 552 592 l 1,1,2
 548 593 548 593 542 593 c 0,3,4
 498 593 498 593 448 570.5 c 128,-1,5
 398 548 398 548 352 510.5 c 128,-1,6
 306 473 306 473 274 428 c 1,7,8
 366 390 366 390 401 338.5 c 128,-1,9
 436 287 436 287 436 230 c 0,10,11
 436 192 436 192 418.5 158.5 c 128,-1,12
 401 125 401 125 367.5 104 c 128,-1,13
 334 83 334 83 286 83 c 0,14,15
 247 83 247 83 211.5 102.5 c 128,-1,16
 176 122 176 122 153.5 159 c 128,-1,17
 131 196 131 196 131 249 c 0,18,19
 131 284 131 284 139.5 318.5 c 128,-1,20
 148 353 148 353 164 385 c 1,21,22
 142 388 142 388 121 389 c 128,-1,23
 100 390 100 390 82 390 c 0,24,25
 72 390 72 390 62 390 c 128,-1,26
 52 390 52 390 44 389 c 1,27,-1
 35 458 l 1,28,29
 40 458 40 458 54.5 459 c 128,-1,30
 69 460 69 460 91 460 c 0,31,32
 114 460 114 460 143.5 458 c 128,-1,33
 173 456 173 456 204 450 c 1,34,35
 242 501 242 501 291.5 542.5 c 128,-1,36
 341 584 341 584 393 611 c 1,37,-1
 -17 611 l 1,38,-1
 -17 679 l 1,39,-1
 724 679 l 1,40,-1
 724 611 l 1,41,-1
 628 611 l 1,42,-1
 628 0 l 1,43,-1
 552 0 l 1,0,-1
287 153 m 0,44,45
 321 153 321 153 339.5 175 c 128,-1,46
 358 197 358 197 358 225 c 0,47,48
 358 263 358 263 332.5 300 c 128,-1,49
 307 337 307 337 242 364 c 1,50,51
 226 334 226 334 217.5 305 c 128,-1,52
 209 276 209 276 209 245 c 0,53,54
 209 206 209 206 231.5 179.5 c 128,-1,55
 254 153 254 153 287 153 c 0,44,45
EndSplineSet
EndChar

StartChar: uniA81D
Encoding: 43037 43037 46
Width: 662
VWidth: 0
GlyphClass: 2
Flags: W
HStem: 0 21G<509 585> 103 69<159.703 255.789> 611 68<-17 54.1105 135 490 585 670>
VStem: 70 74<189.419 299.278> 274 72<189.712 330.091> 509 76<0 541>
AnchorPoint: "+BBEENQQ3BEsEPARPBD0EPQQ+BDUA--2" 549 0 basechar 0
AnchorPoint: "+BBEENQQ3BEsEPARPBD0EPQQ+BDUA--1" 295 725 basechar 0
AnchorPoint: "+BBEENQQ3BEsEPARPBD0EPQQ+BDUA--0" 547 725 basechar 0
LayerCount: 2
Fore
SplineSet
509 0 m 1,0,-1
 509 541 l 1,1,2
 442 502 442 502 388.5 469.5 c 128,-1,3
 335 437 335 437 294 409 c 1,4,5
 324 358 324 358 335 317 c 128,-1,6
 346 276 346 276 346 236 c 0,7,8
 346 200 346 200 328 170 c 128,-1,9
 310 140 310 140 278.5 121.5 c 128,-1,10
 247 103 247 103 204 103 c 0,11,12
 156 103 156 103 126.5 123 c 128,-1,13
 97 143 97 143 83.5 174 c 128,-1,14
 70 205 70 205 70 238 c 0,15,16
 70 286 70 286 100 329.5 c 128,-1,17
 130 373 130 373 197 424 c 1,18,19
 169 464 169 464 128.5 510.5 c 128,-1,20
 88 557 88 557 32 611 c 1,21,-1
 -17 611 l 1,22,-1
 -17 679 l 1,23,-1
 670 679 l 1,24,-1
 670 611 l 1,25,-1
 585 611 l 1,26,-1
 585 0 l 1,27,-1
 509 0 l 1,0,-1
256 467 m 1,28,29
 302 498 302 498 360 533.5 c 128,-1,30
 418 569 418 569 490 611 c 1,31,-1
 135 611 l 1,32,33
 173 569 173 569 203.5 533.5 c 128,-1,34
 234 498 234 498 256 467 c 1,28,29
207 172 m 0,35,36
 235 172 235 172 254.5 190.5 c 128,-1,37
 274 209 274 209 274 243 c 0,38,39
 274 267 274 267 264.5 297.5 c 128,-1,40
 255 328 255 328 234 367 c 1,41,42
 187 330 187 330 165.5 299.5 c 128,-1,43
 144 269 144 269 144 238 c 0,44,45
 144 213 144 213 159.5 192.5 c 128,-1,46
 175 172 175 172 207 172 c 0,35,36
EndSplineSet
EndChar

StartChar: uniA81E
Encoding: 43038 43038 47
Width: 652
VWidth: 0
GlyphClass: 2
Flags: W
HStem: 0 21G<499 575> 217 82<118.101 211.183> 611 68<-17 456 575 660>
VStem: 499 76<0 558>
AnchorPoint: "+BBEENQQ3BEsEPARPBD0EPQQ+BDUA--2" 543 0 basechar 0
AnchorPoint: "+BBEENQQ3BEsEPARPBD0EPQQ+BDUA--1" 311 725 basechar 0
AnchorPoint: "+BBEENQQ3BEsEPARPBD0EPQQ+BDUA--0" 531 725 basechar 0
LayerCount: 2
Fore
SplineSet
159 217 m 0,0,1
 130 217 130 217 107 227.5 c 128,-1,2
 84 238 84 238 55 272 c 1,3,-1
 112 328 l 1,4,5
 123 313 123 313 137.5 306 c 128,-1,6
 152 299 152 299 165 299 c 0,7,8
 184 299 184 299 198.5 309.5 c 128,-1,9
 213 320 213 320 238 350 c 0,10,11
 292 414 292 414 343.5 483 c 128,-1,12
 395 552 395 552 456 611 c 1,13,-1
 -17 611 l 1,14,-1
 -17 679 l 1,15,-1
 660 679 l 1,16,-1
 660 611 l 1,17,-1
 575 611 l 1,18,-1
 575 0 l 1,19,-1
 499 0 l 1,20,-1
 499 558 l 1,21,-1
 498 558 l 1,22,23
 442 502 442 502 397 438 c 128,-1,24
 352 374 352 374 299 309 c 0,25,26
 264 266 264 266 233.5 241.5 c 128,-1,27
 203 217 203 217 159 217 c 0,0,1
EndSplineSet
EndChar

StartChar: uniA81F
Encoding: 43039 43039 48
Width: 652
VWidth: 0
GlyphClass: 2
Flags: W
HStem: 0 21G<499 575> 231 79<107.049 198.093> 611 68<-17 453 575 660>
VStem: 267 70<25.024 175.696> 499 76<0 557>
AnchorPoint: "+BBEENQQ3BEsEPARPBD0EPQQ+BDUA--2" 533 0 basechar 0
AnchorPoint: "+BBEENQQ3BEsEPARPBD0EPQQ+BDUA--1" 306 725 basechar 0
AnchorPoint: "+BBEENQQ3BEsEPARPBD0EPQQ+BDUA--0" 542 725 basechar 0
LayerCount: 2
Fore
SplineSet
499 0 m 1,0,-1
 499 557 l 1,1,2
 442 506 442 506 392 447 c 128,-1,3
 342 388 342 388 288 323 c 0,4,5
 253 280 253 280 222 255.5 c 128,-1,6
 191 231 191 231 147 231 c 0,7,8
 119 231 119 231 93.5 243.5 c 128,-1,9
 68 256 68 256 45 288 c 1,10,-1
 99 340 l 1,11,12
 113 324 113 324 127 317 c 128,-1,13
 141 310 141 310 154 310 c 0,14,15
 173 310 173 310 187.5 322 c 128,-1,16
 202 334 202 334 227 365 c 0,17,18
 280 429 280 429 335.5 492.5 c 128,-1,19
 391 556 391 556 453 611 c 1,20,-1
 -17 611 l 1,21,-1
 -17 679 l 1,22,-1
 660 679 l 1,23,-1
 660 611 l 1,24,-1
 575 611 l 1,25,-1
 575 0 l 1,26,-1
 499 0 l 1,0,-1
357 -70 m 1,27,28
 323 -49 323 -49 295 -7.5 c 128,-1,29
 267 34 267 34 267 95 c 0,30,31
 267 145 267 145 288 183 c 128,-1,32
 309 221 309 221 340 250.5 c 128,-1,33
 371 280 371 280 401 301 c 1,34,-1
 438 250 l 1,35,36
 398 222 398 222 367.5 187 c 128,-1,37
 337 152 337 152 337 99 c 0,38,39
 337 58 337 58 354.5 31 c 128,-1,40
 372 4 372 4 401 -14 c 1,41,-1
 357 -70 l 1,27,28
EndSplineSet
EndChar

StartChar: uniA820
Encoding: 43040 43040 49
Width: 609
VWidth: 0
GlyphClass: 2
Flags: W
HStem: 611 68<-17 87 164 624>
VStem: 87 77<276 611> 453 75<125.71 370.127>
AnchorPoint: "+BBEENQQ3BEsEPARPBD0EPQQ+BDUA--2" 329 -113 basechar 0
AnchorPoint: "+BBEENQQ3BEsEPARPBD0EPQQ+BDUA--1" 295 725 basechar 0
AnchorPoint: "+BBEENQQ3BEsEPARPBD0EPQQ+BDUA--0" 520 725 basechar 0
LayerCount: 2
Fore
SplineSet
287 -182 m 1,0,-1
 235 -121 l 1,1,2
 303 -65 303 -65 351.5 -9 c 128,-1,3
 400 47 400 47 426.5 113 c 128,-1,4
 453 179 453 179 453 265 c 0,5,6
 453 291 453 291 448.5 318.5 c 128,-1,7
 444 346 444 346 436 371 c 1,8,9
 374 360 374 360 321.5 322.5 c 128,-1,10
 269 285 269 285 228 236.5 c 128,-1,11
 187 188 187 188 161 143 c 1,12,-1
 87 175 l 1,13,-1
 87 611 l 1,14,-1
 -17 611 l 1,15,-1
 -17 679 l 1,16,-1
 624 679 l 1,17,-1
 624 611 l 1,18,-1
 164 611 l 1,19,-1
 164 276 l 1,20,-1
 168 275 l 1,21,22
 218 346 218 346 302 394.5 c 128,-1,23
 386 443 386 443 485 451 c 1,24,25
 505 410 505 410 516.5 359 c 128,-1,26
 528 308 528 308 528 258 c 0,27,28
 528 164 528 164 494.5 81 c 128,-1,29
 461 -2 461 -2 406 -68.5 c 128,-1,30
 351 -135 351 -135 287 -182 c 1,0,-1
EndSplineSet
EndChar

StartChar: uniA821
Encoding: 43041 43041 50
Width: 762
VWidth: 0
GlyphClass: 2
Flags: W
HStem: 0 21G<608 684> 493 69<132.429 270.915> 611 68<-17 610 684 769>
VStem: 608 76<0 517>
AnchorPoint: "+BBEENQQ3BEsEPARPBD0EPQQ+BDUA--2" 651 0 basechar 0
AnchorPoint: "+BBEENQQ3BEsEPARPBD0EPQQ+BDUA--1" 349 725 basechar 0
AnchorPoint: "+BBEENQQ3BEsEPARPBD0EPQQ+BDUA--0" 649 725 basechar 0
LayerCount: 2
Fore
SplineSet
320 -31 m 1,0,1
 297 29 297 29 265 70 c 128,-1,2
 233 111 233 111 197.5 136.5 c 128,-1,3
 162 162 162 162 127.5 176 c 128,-1,4
 93 190 93 190 65 196 c 1,5,-1
 65 270 l 1,6,7
 103 273 103 273 143.5 281.5 c 128,-1,8
 184 290 184 290 219.5 304.5 c 128,-1,9
 255 319 255 319 277 341 c 128,-1,10
 299 363 299 363 299 393 c 0,11,12
 299 439 299 439 276 466 c 128,-1,13
 253 493 253 493 216 493 c 0,14,15
 188 493 188 493 154 481 c 128,-1,16
 120 469 120 469 80 434 c 1,17,-1
 34 495 l 1,18,19
 73 528 73 528 122 545 c 128,-1,20
 171 562 171 562 218 562 c 0,21,22
 272 562 272 562 316 526 c 128,-1,23
 360 490 360 490 371 426 c 1,24,25
 421 468 421 468 481.5 514.5 c 128,-1,26
 542 561 542 561 610 611 c 1,27,-1
 -17 611 l 1,28,-1
 -17 679 l 1,29,-1
 769 679 l 1,30,-1
 769 611 l 1,31,-1
 684 611 l 1,32,-1
 684 0 l 1,33,-1
 608 0 l 1,34,-1
 608 517 l 1,35,-1
 605 518 l 1,36,37
 535 469 535 469 472 419 c 128,-1,38
 409 369 409 369 352 316 c 1,39,40
 327 277 327 277 280 252 c 128,-1,41
 233 227 233 227 176 223 c 1,42,-1
 175 219 l 1,43,44
 213 209 213 209 253.5 180.5 c 128,-1,45
 294 152 294 152 331 108 c 128,-1,46
 368 64 368 64 394 5 c 1,47,-1
 320 -31 l 1,0,1
EndSplineSet
EndChar

StartChar: uniA822
Encoding: 43042 43042 51
Width: 787
VWidth: 0
GlyphClass: 2
Flags: W
HStem: 0 21G<638 714> 611 68<-17 68 144 640 714 799>
VStem: 68 76<197 611> 394 71<35.9007 191.664> 638 76<0 517>
AnchorPoint: "+BBEENQQ3BEsEPARPBD0EPQQ+BDUA--2" 678 0 basechar 0
AnchorPoint: "+BBEENQQ3BEsEPARPBD0EPQQ+BDUA--1" 365 725 basechar 0
AnchorPoint: "+BBEENQQ3BEsEPARPBD0EPQQ+BDUA--0" 682 725 basechar 0
LayerCount: 2
Fore
SplineSet
638 0 m 1,0,-1
 638 517 l 1,1,-1
 635 518 l 1,2,3
 555 468 555 468 466 401 c 128,-1,4
 377 334 377 334 294 250 c 128,-1,5
 211 166 211 166 147 63 c 1,6,-1
 68 95 l 1,7,-1
 68 611 l 1,8,-1
 -17 611 l 1,9,-1
 -17 679 l 1,10,-1
 799 679 l 1,11,-1
 799 611 l 1,12,-1
 714 611 l 1,13,-1
 714 0 l 1,14,-1
 638 0 l 1,0,-1
148 196 m 1,15,16
 193 259 193 259 253 317 c 128,-1,17
 313 375 313 375 379.5 427.5 c 128,-1,18
 446 480 446 480 513 526 c 128,-1,19
 580 572 580 572 640 611 c 1,20,-1
 144 611 l 1,21,-1
 144 197 l 1,22,-1
 148 196 l 1,15,16
544 -82 m 1,23,24
 527 -76 527 -76 502 -64 c 128,-1,25
 477 -52 477 -52 452 -31 c 128,-1,26
 427 -10 427 -10 410.5 22.5 c 128,-1,27
 394 55 394 55 394 102 c 0,28,29
 394 146 394 146 409.5 182 c 128,-1,30
 425 218 425 218 448.5 246 c 128,-1,31
 472 274 472 274 495.5 294 c 128,-1,32
 519 314 519 314 535 326 c 1,33,-1
 570 280 l 1,34,35
 544 258 544 258 520 234.5 c 128,-1,36
 496 211 496 211 480.5 180 c 128,-1,37
 465 149 465 149 465 103 c 0,38,39
 465 72 465 72 477 50.5 c 128,-1,40
 489 29 489 29 507 15.5 c 128,-1,41
 525 2 525 2 542 -5 c 128,-1,42
 559 -12 559 -12 568 -14 c 1,43,-1
 544 -82 l 1,23,24
EndSplineSet
EndChar

StartChar: uniA823
Encoding: 43043 43043 52
Width: 281
VWidth: 0
GlyphClass: 2
Flags: W
HStem: 0 21G<121 197> 611 68<-17 121 197 291>
VStem: 121 76<0 611>
AnchorPoint: "+BBEENQQ3BEsEPARPBD0EPQQ+BDUA--2" 161 0 basechar 0
AnchorPoint: "+BBEENQQ3BEsEPARPBD0EPQQ+BDUA--1" 156 725 basechar 0
AnchorPoint: "+BBEENQQ3BEsEPARPBD0EPQQ+BDUA--0" 161 725 basechar 0
LayerCount: 2
Fore
SplineSet
121 0 m 1,0,-1
 121 611 l 1,1,-1
 -17 611 l 1,2,-1
 -17 679 l 1,3,-1
 291 679 l 1,4,-1
 291 611 l 1,5,-1
 197 611 l 1,6,-1
 197 0 l 1,7,-1
 121 0 l 1,0,-1
EndSplineSet
EndChar

StartChar: uniA824
Encoding: 43044 43044 53
Width: 254
VWidth: 0
GlyphClass: 2
Flags: W
HStem: 0 21G<100 176> 611 68<-17 100 176 270> 888 70<-17.102 87.8846>
VStem: 100 76<0 611 679 863.248>
AnchorPoint: "+BBEENQQ3BEsEPARPBD0EPQQ+BDUA--2" 139 0 basechar 0
AnchorPoint: "+BBEENQQ3BEsEPARPBD0EPQQ+BDUA--1" 48 952 basechar 0
AnchorPoint: "+BBEENQQ3BEsEPARPBD0EPQQ+BDUA--0" 302 822 basechar 0
LayerCount: 2
Fore
SplineSet
100 0 m 1,0,-1
 100 611 l 1,1,-1
 -17 611 l 1,2,-1
 -17 679 l 1,3,-1
 100 679 l 1,4,-1
 100 809 l 2,5,6
 100 840 100 840 89 864 c 128,-1,7
 78 888 78 888 45 888 c 0,8,9
 11 888 11 888 -17 866.5 c 128,-1,10
 -45 845 -45 845 -68.5 808.5 c 128,-1,11
 -92 772 -92 772 -113 728 c 1,12,-1
 -186 761 l 1,13,14
 -158 819 -158 819 -125 863.5 c 128,-1,15
 -92 908 -92 908 -49.5 933 c 128,-1,16
 -7 958 -7 958 49 958 c 0,17,18
 100 958 100 958 127.5 935 c 128,-1,19
 155 912 155 912 165.5 878 c 128,-1,20
 176 844 176 844 176 809 c 2,21,-1
 176 679 l 1,22,-1
 270 679 l 1,23,-1
 270 611 l 1,24,-1
 176 611 l 1,25,-1
 176 0 l 1,26,-1
 100 0 l 1,0,-1
EndSplineSet
EndChar

StartChar: uniA825
Encoding: 43045 43045 54
Width: 0
VWidth: 0
GlyphClass: 4
Flags: W
HStem: -270 68<-369.876 -103.994> -64 71<-177.564 -79.2586>
VStem: -66 72<-170.12 -74.3754>
AnchorPoint: "+BBEENQQ3BEsEPARPBD0EPQQ+BDUA--6" -113 0 mark 0
AnchorPoint: "+BBEENQQ3BEsEPARPBD0EPQQ+BDUA--2" -113 0 mark 0
LayerCount: 2
Fore
SplineSet
-248 -270 m 0,0,1
 -281 -270 -281 -270 -316.5 -266.5 c 128,-1,2
 -352 -263 -352 -263 -390 -256 c 1,3,-1
 -371 -189 l 1,4,5
 -335 -196 -335 -196 -304 -199 c 128,-1,6
 -273 -202 -273 -202 -248 -202 c 0,7,8
 -153 -202 -153 -202 -109.5 -183.5 c 128,-1,9
 -66 -165 -66 -165 -66 -122 c 0,10,11
 -66 -87 -66 -87 -83.5 -75.5 c 128,-1,12
 -101 -64 -101 -64 -125 -64 c 256,13,14
 -149 -64 -149 -64 -174 -71 c 1,15,-1
 -194 -3 l 1,16,17
 -159 7 -159 7 -122 7 c 0,18,19
 -89 7 -89 7 -59.5 -6 c 128,-1,20
 -30 -19 -30 -19 -12 -47 c 128,-1,21
 6 -75 6 -75 6 -122 c 0,22,23
 6 -195 6 -195 -54 -232.5 c 128,-1,24
 -114 -270 -114 -270 -248 -270 c 0,0,1
EndSplineSet
EndChar

StartChar: uniA826
Encoding: 43046 43046 55
Width: 0
VWidth: 0
GlyphClass: 4
Flags: W
HStem: 719 231
VStem: -403 299
AnchorPoint: "+BBEENQQ3BEsEPARPBD0EPQQ+BDUA--7" -157 725 mark 0
AnchorPoint: "+BBEENQQ3BEsEPARPBD0EPQQ+BDUA--4" -98 725 mark 0
AnchorPoint: "+BBEENQQ3BEsEPARPBD0EPQQ+BDUA--3" 48 725 basemark 0
AnchorPoint: "+BBEENQQ3BEsEPARPBD0EPQQ+BDUA--3" -157 725 mark 0
AnchorPoint: "+BBEENQQ3BEsEPARPBD0EPQQ+BDUA--0" -98 725 mark 0
LayerCount: 2
Fore
SplineSet
-169 719 m 1,0,1
 -200 765 -200 765 -226 792.5 c 128,-1,2
 -252 820 -252 820 -277.5 836 c 128,-1,3
 -303 852 -303 852 -333.5 863.5 c 128,-1,4
 -364 875 -364 875 -403 888 c 1,5,-1
 -380 950 l 1,6,7
 -329 931 -329 931 -279.5 906 c 128,-1,8
 -230 881 -230 881 -185 841.5 c 128,-1,9
 -140 802 -140 802 -104 736 c 1,10,-1
 -169 719 l 1,0,1
EndSplineSet
EndChar

StartChar: uniA827
Encoding: 43047 43047 56
Width: 262
VWidth: 0
GlyphClass: 2
Flags: W
HStem: 0 21G<100 176> 611 68<-17 91 176 270>
VStem: 100 76<0 611>
AnchorPoint: "+BBEENQQ3BEsEPARPBD0EPQQ+BDUA--2" 139 0 basechar 0
AnchorPoint: "+BBEENQQ3BEsEPARPBD0EPQQ+BDUA--1" 161 844 basechar 0
AnchorPoint: "+BBEENQQ3BEsEPARPBD0EPQQ+BDUA--0" 268 725 basechar 0
LayerCount: 2
Fore
SplineSet
100 0 m 1,0,-1
 100 611 l 1,1,-1
 -17 611 l 1,2,-1
 -17 679 l 1,3,-1
 91 679 l 1,4,5
 49 752 49 752 -9 798.5 c 128,-1,6
 -67 845 -67 845 -130 871 c 1,7,-1
 -101 935 l 1,8,9
 -20 901 -20 901 50 836.5 c 128,-1,10
 120 772 120 772 163 679 c 1,11,-1
 270 679 l 1,12,-1
 270 611 l 1,13,-1
 176 611 l 1,14,-1
 176 0 l 1,15,-1
 100 0 l 1,0,-1
EndSplineSet
EndChar

StartChar: uniA828
Encoding: 43048 43048 57
Width: 381
VWidth: 0
GlyphClass: 1
Flags: W
HStem: 264 60<153.13 229.452> 416 62<152.171 229.452>
VStem: 80 65<332.684 407.848> 240 71<334.91 405.732>
LayerCount: 2
Fore
SplineSet
194 264 m 0,0,1
 148 264 148 264 114 294 c 128,-1,2
 80 324 80 324 80 371 c 256,3,4
 80 418 80 418 114 448 c 128,-1,5
 148 478 148 478 194 478 c 0,6,7
 241 478 241 478 276 448 c 128,-1,8
 311 418 311 418 311 371 c 256,9,10
 311 324 311 324 276 294 c 128,-1,11
 241 264 241 264 194 264 c 0,0,1
193 324 m 0,12,13
 213 324 213 324 226.5 337.5 c 128,-1,14
 240 351 240 351 240 370 c 0,15,16
 240 390 240 390 226.5 403 c 128,-1,17
 213 416 213 416 193 416 c 0,18,19
 175 416 175 416 160 403 c 128,-1,20
 145 390 145 390 145 370 c 0,21,22
 145 351 145 351 160 337.5 c 128,-1,23
 175 324 175 324 193 324 c 0,12,13
EndSplineSet
EndChar

StartChar: uniA829
Encoding: 43049 43049 58
Width: 331
VWidth: 0
GlyphClass: 1
Flags: W
HStem: 72 60<123.111 199.413> 224 62<126.045 199.851> 344 61<122.426 199.413> 497 62<126.678 199.452>
VStem: 49 66<140.052 213.111 413.12 485.686> 210 71<142.943 213.654 415.713 486.316>
LayerCount: 2
Fore
SplineSet
164 344 m 0,0,1
 134 344 134 344 107.5 358 c 128,-1,2
 81 372 81 372 65 396 c 128,-1,3
 49 420 49 420 49 451 c 0,4,5
 49 499 49 499 83.5 529 c 128,-1,6
 118 559 118 559 164 559 c 0,7,8
 211 559 211 559 246 529 c 128,-1,9
 281 499 281 499 281 451 c 0,10,11
 281 420 281 420 264.5 396 c 128,-1,12
 248 372 248 372 221.5 358 c 128,-1,13
 195 344 195 344 164 344 c 0,0,1
163 405 m 0,14,15
 183 405 183 405 196.5 418.5 c 128,-1,16
 210 432 210 432 210 450 c 0,17,18
 210 470 210 470 196.5 483.5 c 128,-1,19
 183 497 183 497 163 497 c 0,20,21
 144 497 144 497 129.5 483.5 c 128,-1,22
 115 470 115 470 115 450 c 0,23,24
 115 432 115 432 129.5 418.5 c 128,-1,25
 144 405 144 405 163 405 c 0,14,15
164 72 m 0,26,27
 118 72 118 72 83.5 102 c 128,-1,28
 49 132 49 132 49 179 c 256,29,30
 49 226 49 226 83.5 256 c 128,-1,31
 118 286 118 286 164 286 c 0,32,33
 195 286 195 286 221.5 272.5 c 128,-1,34
 248 259 248 259 264.5 235 c 128,-1,35
 281 211 281 211 281 179 c 0,36,37
 281 148 281 148 264.5 123.5 c 128,-1,38
 248 99 248 99 221.5 85.5 c 128,-1,39
 195 72 195 72 164 72 c 0,26,27
163 132 m 0,40,41
 183 132 183 132 196.5 146 c 128,-1,42
 210 160 210 160 210 178 c 0,43,44
 210 198 210 198 196.5 211 c 128,-1,45
 183 224 183 224 163 224 c 0,46,47
 144 224 144 224 129.5 211 c 128,-1,48
 115 198 115 198 115 178 c 0,49,50
 115 160 115 160 129.5 146 c 128,-1,51
 144 132 144 132 163 132 c 0,40,41
EndSplineSet
EndChar

StartChar: uniA82A
Encoding: 43050 43050 59
Width: 628
VWidth: 0
GlyphClass: 1
Flags: W
HStem: 102 61<266.34 342.452> 255 61<266.501 342.452> 344 61<122.426 199.413 415.426 492.413> 497 62<126.678 199.452 419.678 492.452>
VStem: 49 66<413.12 485.686> 193 66<170.861 246.807> 210 71<415.713 486.316> 342 66<413.12 485.686> 353 71<173.41 244.268> 503 71<415.713 486.316>
LayerCount: 2
Fore
SplineSet
457 344 m 0,0,1
 427 344 427 344 400.5 358 c 128,-1,2
 374 372 374 372 358 396 c 128,-1,3
 342 420 342 420 342 451 c 0,4,5
 342 499 342 499 376.5 529 c 128,-1,6
 411 559 411 559 457 559 c 0,7,8
 504 559 504 559 539 529 c 128,-1,9
 574 499 574 499 574 451 c 0,10,11
 574 420 574 420 557.5 396 c 128,-1,12
 541 372 541 372 514.5 358 c 128,-1,13
 488 344 488 344 457 344 c 0,0,1
164 344 m 0,14,15
 134 344 134 344 107.5 358 c 128,-1,16
 81 372 81 372 65 396 c 128,-1,17
 49 420 49 420 49 451 c 0,18,19
 49 499 49 499 83.5 529 c 128,-1,20
 118 559 118 559 164 559 c 0,21,22
 211 559 211 559 246 529 c 128,-1,23
 281 499 281 499 281 451 c 0,24,25
 281 420 281 420 264.5 396 c 128,-1,26
 248 372 248 372 221.5 358 c 128,-1,27
 195 344 195 344 164 344 c 0,14,15
163 405 m 0,28,29
 183 405 183 405 196.5 418.5 c 128,-1,30
 210 432 210 432 210 450 c 0,31,32
 210 470 210 470 196.5 483.5 c 128,-1,33
 183 497 183 497 163 497 c 0,34,35
 144 497 144 497 129.5 483.5 c 128,-1,36
 115 470 115 470 115 450 c 0,37,38
 115 432 115 432 129.5 418.5 c 128,-1,39
 144 405 144 405 163 405 c 0,28,29
456 405 m 0,40,41
 476 405 476 405 489.5 418.5 c 128,-1,42
 503 432 503 432 503 450 c 0,43,44
 503 470 503 470 489.5 483.5 c 128,-1,45
 476 497 476 497 456 497 c 0,46,47
 437 497 437 497 422.5 483.5 c 128,-1,48
 408 470 408 470 408 450 c 0,49,50
 408 432 408 432 422.5 418.5 c 128,-1,51
 437 405 437 405 456 405 c 0,40,41
307 102 m 0,52,53
 261 102 261 102 227 132 c 128,-1,54
 193 162 193 162 193 209 c 0,55,56
 193 257 193 257 227 286.5 c 128,-1,57
 261 316 261 316 307 316 c 0,58,59
 354 316 354 316 389 286.5 c 128,-1,60
 424 257 424 257 424 209 c 0,61,62
 424 162 424 162 389 132 c 128,-1,63
 354 102 354 102 307 102 c 0,52,53
306 163 m 0,64,65
 326 163 326 163 339.5 176.5 c 128,-1,66
 353 190 353 190 353 208 c 0,67,68
 353 228 353 228 339.5 241.5 c 128,-1,69
 326 255 326 255 306 255 c 0,70,71
 288 255 288 255 273.5 241.5 c 128,-1,72
 259 228 259 228 259 208 c 0,73,74
 259 190 259 190 273.5 176.5 c 128,-1,75
 288 163 288 163 306 163 c 0,64,65
EndSplineSet
EndChar

StartChar: uniA82B
Encoding: 43051 43051 60
Width: 646
VWidth: 0
GlyphClass: 1
Flags: W
HStem: 84 60<143.301 219.413 425.111 501.413> 236 62<142.171 219.452 428.045 501.452> 351 61<143.13 219.413 424.587 501.413> 504 62<142.171 219.851 428.045 501.851>
VStem: 70 65<152.837 228.136 420.636 495.848> 230 71<154.943 226.026 422.685 493.654> 351 66<152.052 225.4 420.096 493.111> 512 71<154.943 226.026 422.685 493.654>
LayerCount: 2
Fore
SplineSet
466 351 m 0,0,1
 436 351 436 351 409.5 365 c 128,-1,2
 383 379 383 379 367 403.5 c 128,-1,3
 351 428 351 428 351 459 c 0,4,5
 351 506 351 506 385.5 536 c 128,-1,6
 420 566 420 566 466 566 c 0,7,8
 497 566 497 566 523.5 552.5 c 128,-1,9
 550 539 550 539 566.5 515 c 128,-1,10
 583 491 583 491 583 459 c 0,11,12
 583 428 583 428 566.5 403.5 c 128,-1,13
 550 379 550 379 523.5 365 c 128,-1,14
 497 351 497 351 466 351 c 0,0,1
184 351 m 0,15,16
 138 351 138 351 104 381.5 c 128,-1,17
 70 412 70 412 70 459 c 256,18,19
 70 506 70 506 104 536 c 128,-1,20
 138 566 138 566 184 566 c 0,21,22
 215 566 215 566 241.5 552.5 c 128,-1,23
 268 539 268 539 284.5 515 c 128,-1,24
 301 491 301 491 301 459 c 0,25,26
 301 428 301 428 284.5 403.5 c 128,-1,27
 268 379 268 379 241.5 365 c 128,-1,28
 215 351 215 351 184 351 c 0,15,16
183 412 m 0,29,30
 203 412 203 412 216.5 425.5 c 128,-1,31
 230 439 230 439 230 458 c 0,32,33
 230 478 230 478 216.5 491 c 128,-1,34
 203 504 203 504 183 504 c 0,35,36
 165 504 165 504 150 491 c 128,-1,37
 135 478 135 478 135 458 c 0,38,39
 135 439 135 439 150 425.5 c 128,-1,40
 165 412 165 412 183 412 c 0,29,30
465 412 m 0,41,42
 485 412 485 412 498.5 425.5 c 128,-1,43
 512 439 512 439 512 458 c 0,44,45
 512 478 512 478 498.5 491 c 128,-1,46
 485 504 485 504 465 504 c 0,47,48
 446 504 446 504 431.5 491 c 128,-1,49
 417 478 417 478 417 458 c 0,50,51
 417 439 417 439 431.5 425.5 c 128,-1,52
 446 412 446 412 465 412 c 0,41,42
184 84 m 0,53,54
 138 84 138 84 104 114 c 128,-1,55
 70 144 70 144 70 191 c 0,56,57
 70 239 70 239 104 268.5 c 128,-1,58
 138 298 138 298 184 298 c 0,59,60
 231 298 231 298 266 268.5 c 128,-1,61
 301 239 301 239 301 191 c 0,62,63
 301 160 301 160 284.5 135.5 c 128,-1,64
 268 111 268 111 241.5 97.5 c 128,-1,65
 215 84 215 84 184 84 c 0,53,54
466 84 m 0,66,67
 420 84 420 84 385.5 114 c 128,-1,68
 351 144 351 144 351 191 c 0,69,70
 351 239 351 239 385.5 268.5 c 128,-1,71
 420 298 420 298 466 298 c 0,72,73
 513 298 513 298 548 268.5 c 128,-1,74
 583 239 583 239 583 191 c 0,75,76
 583 160 583 160 566.5 135.5 c 128,-1,77
 550 111 550 111 523.5 97.5 c 128,-1,78
 497 84 497 84 466 84 c 0,66,67
183 144 m 0,79,80
 203 144 203 144 216.5 158 c 128,-1,81
 230 172 230 172 230 190 c 0,82,83
 230 210 230 210 216.5 223 c 128,-1,84
 203 236 203 236 183 236 c 0,85,86
 165 236 165 236 150 223 c 128,-1,87
 135 210 135 210 135 190 c 0,88,89
 135 172 135 172 150 158 c 128,-1,90
 165 144 165 144 183 144 c 0,79,80
465 144 m 0,91,92
 485 144 485 144 498.5 158 c 128,-1,93
 512 172 512 172 512 190 c 0,94,95
 512 210 512 210 498.5 223 c 128,-1,96
 485 236 485 236 465 236 c 0,97,98
 446 236 446 236 431.5 223 c 128,-1,99
 417 210 417 210 417 190 c 0,100,101
 417 172 417 172 431.5 158 c 128,-1,102
 446 144 446 144 465 144 c 0,91,92
EndSplineSet
EndChar

StartChar: uniA82C
Encoding: 43052 43052 61
Width: 0
VWidth: 0
GlyphClass: 4
Flags: W
HStem: -268 191
VStem: -276 298
AnchorPoint: "+BBEENQQ3BEsEPARPBD0EPQQ+BDUA--6" -113 0 mark 0
AnchorPoint: "+BBEENQQ3BEsEPARPBD0EPQQ+BDUA--2" -113 0 mark 0
LayerCount: 2
Fore
SplineSet
-224 -77 m 1,0,-1
 22 -214 l 1,1,-1
 -21 -268 l 1,2,-1
 -276 -141 l 1,3,-1
 -224 -77 l 1,0,-1
EndSplineSet
EndChar

StartChar: uniA807uniA807
Encoding: 65537 -1 62
Width: 1200
VWidth: 0
GlyphClass: 2
Flags: W
HStem: 611 68<-17 87 164 395 470 713 786 1212>
VStem: 87 77<190 611> 395 75<71 308 463 611> 711 75<-99 193 341 522> 1027 76<-99 403>
AnchorPoint: "+BBEENQQ3BEsEPARPBD0EPQQ+BDUA--2" 1069 -98 basechar 0
AnchorPoint: "+BBEENQQ3BEsEPARPBD0EPQQ+BDUA--1" 537 725 basechar 0
AnchorPoint: "+BBEENQQ3BEsEPARPBD0EPQQ+BDUA--0" 751 725 basechar 0
LayerCount: 2
Fore
SplineSet
711 -99 m 1,0,-1
 711 193 l 1,1,2
 647 141 647 141 585 78.5 c 128,-1,3
 523 16 523 16 465 -58 c 1,4,-1
 395 -24 l 1,5,-1
 395 308 l 1,6,7
 343 261 343 261 284.5 200 c 128,-1,8
 226 139 226 139 159 62 c 1,9,-1
 87 95 l 1,10,-1
 87 611 l 1,11,-1
 -17 611 l 1,12,-1
 -17 679 l 1,13,-1
 1212 679 l 1,14,-1
 1212 611 l 1,15,-1
 786 611 l 1,16,-1
 786 341 l 1,17,18
 845 382 845 382 905.5 418.5 c 128,-1,19
 966 455 966 455 1029 492 c 1,20,-1
 1103 492 l 1,21,-1
 1103 -99 l 1,22,-1
 1027 -99 l 1,23,-1
 1027 403 l 1,24,-1
 1024 404 l 1,25,26
 966 372 966 372 906 334 c 128,-1,27
 846 296 846 296 786 252 c 1,28,-1
 786 -99 l 1,29,-1
 711 -99 l 1,0,-1
168 189 m 1,30,31
 229 254 229 254 285 307.5 c 128,-1,32
 341 361 341 361 395 405 c 1,33,-1
 395 611 l 1,34,-1
 164 611 l 1,35,-1
 164 190 l 1,36,-1
 168 189 l 1,30,31
470 463 m 1,37,38
 529 506 529 506 589 541.5 c 128,-1,39
 649 577 649 577 713 611 c 1,40,-1
 470 611 l 1,41,-1
 470 463 l 1,37,38
474 70 m 1,42,43
 532 135 532 135 591 188.5 c 128,-1,44
 650 242 650 242 711 288 c 1,45,-1
 711 522 l 1,46,-1
 708 523 l 1,47,48
 647 493 647 493 589 457.5 c 128,-1,49
 531 422 531 422 470 373 c 1,50,-1
 470 71 l 1,51,-1
 474 70 l 1,42,43
EndSplineSet
Ligature2: "'ccmp' +BBoEPgQ8BD8EPgQ3BDgERgQ4BE8A-/+BDQENQQ6BD4EPAQ/BD4ENwQ4BEYEOARP +BDMEOwQ4BEQEMAAA in Syloti Nagri lookup 0 subtable" uniA807 uniA806 uniA807
EndChar

StartChar: uniA807uniA814
Encoding: 65538 -1 63
Width: 915
VWidth: 0
GlyphClass: 2
Flags: W
HStem: -13 71<419.753 666.76> 611 68<-17 87 164 395 470 743 817 922>
VStem: 87 77<256 611> 385 74<-188.765 -38.4993> 395 75<131 346 479 611> 741 76<-202 30 101.244 522>
AnchorPoint: "+BBEENQQ3BEsEPARPBD0EPQQ+BDUA--2" 779 -147 basechar 0
AnchorPoint: "+BBEENQQ3BEsEPARPBD0EPQQ+BDUA--1" 429 725 basechar 0
AnchorPoint: "+BBEENQQ3BEsEPARPBD0EPQQ+BDUA--0" 784 725 basechar 0
LayerCount: 2
Fore
SplineSet
373 -293 m 1,0,-1
 315 -240 l 1,1,2
 356 -204 356 -204 370.5 -178 c 128,-1,3
 385 -152 385 -152 385 -118 c 0,4,5
 385 -75 385 -75 360.5 -33.5 c 128,-1,6
 336 8 336 8 294 43 c 1,7,-1
 327 106 l 1,8,9
 360 87 360 87 397 76.5 c 128,-1,10
 434 66 434 66 468 62 c 128,-1,11
 502 58 502 58 526 58 c 0,12,13
 582 58 582 58 636.5 71 c 128,-1,14
 691 84 691 84 741 112 c 1,15,-1
 741 522 l 1,16,-1
 738 523 l 1,17,18
 674 501 674 501 606 468.5 c 128,-1,19
 538 436 538 436 470 395 c 1,20,-1
 470 131 l 1,21,-1
 395 131 l 1,22,-1
 395 346 l 1,23,24
 332 302 332 302 272 248.5 c 128,-1,25
 212 195 212 195 159 132 c 1,26,-1
 87 166 l 1,27,-1
 87 611 l 1,28,-1
 -17 611 l 1,29,-1
 -17 679 l 1,30,-1
 922 679 l 1,31,-1
 922 611 l 1,32,-1
 817 611 l 1,33,-1
 817 -202 l 1,34,-1
 741 -202 l 1,35,-1
 741 30 l 1,36,37
 699 11 699 11 645.5 -1 c 128,-1,38
 592 -13 592 -13 538 -13 c 0,39,40
 512 -13 512 -13 477.5 -10 c 128,-1,41
 443 -7 443 -7 419 2 c 1,42,-1
 417 -1 l 1,43,44
 437 -31 437 -31 448 -63 c 128,-1,45
 459 -95 459 -95 459 -128 c 0,46,47
 459 -173 459 -173 438.5 -210 c 128,-1,48
 418 -247 418 -247 373 -293 c 1,0,-1
168 255 m 1,49,50
 224 307 224 307 281 351 c 128,-1,51
 338 395 338 395 395 432 c 1,52,-1
 395 611 l 1,53,-1
 164 611 l 1,54,-1
 164 256 l 1,55,-1
 168 255 l 1,49,50
470 479 m 1,56,57
 538 520 538 520 606 552 c 128,-1,58
 674 584 674 584 743 611 c 1,59,-1
 470 611 l 1,60,-1
 470 479 l 1,56,57
EndSplineSet
Ligature2: "'ccmp' +BBoEPgQ8BD8EPgQ3BDgERgQ4BE8A-/+BDQENQQ6BD4EPAQ/BD4ENwQ4BEYEOARP +BDMEOwQ4BEQEMAAA in Syloti Nagri lookup 0 subtable" uniA807 uniA806 uniA814
EndChar

StartChar: uniA80CuniA80C
Encoding: 65539 -1 64
Width: 979
VWidth: 0
GlyphClass: 2
Flags: W
HStem: 0 21G<440 516 814 890> 158 75<293.906 440 663.648 814> 444 71<265.513 440 640.679 814> 611 68<-17 440 516 814 890 987>
VStem: 440 76<0 158 233 251 435 443.959 515 611> 814 76<0 158 233 443.959 515 611>
AnchorPoint: "+BBEENQQ3BEsEPARPBD0EPQQ+BDUA--2" 849 0 basechar 0
AnchorPoint: "+BBEENQQ3BEsEPARPBD0EPQQ+BDUA--1" 478 725 basechar 0
AnchorPoint: "+BBEENQQ3BEsEPARPBD0EPQQ+BDUA--0" 859 725 basechar 0
LayerCount: 2
Fore
SplineSet
440 0 m 1,0,-1
 440 158 l 1,1,2
 315 163 315 163 216 206 c 128,-1,3
 117 249 117 249 45 352 c 1,4,5
 95 402 95 402 147.5 438.5 c 128,-1,6
 200 475 200 475 265.5 495 c 128,-1,7
 331 515 331 515 419 515 c 2,8,-1
 440 515 l 1,9,-1
 440 611 l 1,10,-1
 -17 611 l 1,11,-1
 -17 679 l 1,12,-1
 987 679 l 1,13,-1
 987 611 l 1,14,-1
 890 611 l 1,15,-1
 890 0 l 1,16,-1
 814 0 l 1,17,-1
 814 158 l 1,18,19
 726 161 726 161 652 183 c 128,-1,20
 578 205 578 205 516 251 c 1,21,-1
 516 0 l 1,22,-1
 440 0 l 1,0,-1
516 435 m 1,23,24
 570 473 570 473 636.5 494 c 128,-1,25
 703 515 703 515 793 515 c 2,26,-1
 814 515 l 1,27,-1
 814 611 l 1,28,-1
 516 611 l 1,29,-1
 516 435 l 1,23,24
424 233 m 2,30,-1
 440 233 l 1,31,-1
 440 443 l 1,32,33
 426 444 426 444 412.5 444 c 128,-1,34
 399 444 399 444 386 444 c 0,35,36
 324 444 324 444 278 427.5 c 128,-1,37
 232 411 232 411 199.5 387 c 128,-1,38
 167 363 167 363 142 339 c 1,39,40
 167 308 167 308 210 284 c 128,-1,41
 253 260 253 260 308.5 246.5 c 128,-1,42
 364 233 364 233 424 233 c 2,30,-1
798 233 m 2,43,-1
 814 233 l 1,44,-1
 814 443 l 1,45,46
 800 444 800 444 786.5 444 c 128,-1,47
 773 444 773 444 760 444 c 0,48,49
 697 444 697 444 652 427 c 128,-1,50
 607 410 607 410 574.5 386 c 128,-1,51
 542 362 542 362 516 339 c 1,52,53
 562 290 562 290 635 261.5 c 128,-1,54
 708 233 708 233 798 233 c 2,43,-1
EndSplineSet
Ligature2: "'ccmp' +BBoEPgQ8BD8EPgQ3BDgERgQ4BE8A-/+BDQENQQ6BD4EPAQ/BD4ENwQ4BEYEOARP +BDMEOwQ4BEQEMAAA in Syloti Nagri lookup 0 subtable" uniA80C uniA806 uniA80C
EndChar

StartChar: uniA80CuniA80D
Encoding: 65540 -1 65
Width: 1062
VWidth: 0
GlyphClass: 2
Flags: W
HStem: -82 70<827.819 909.094> 126 62<823 871.219> 133 62<823.578 926.025> 240 74<255.192 411> 485 68<237.271 411> 611 68<-17 411 487 1071>
VStem: 411 76<314 485 553 611> 749 74<2.44092 91 188 404> 940 76<19.7856 118.522>
AnchorPoint: "+BBEENQQ3BEsEPARPBD0EPQQ+BDUA--2" 870 -69 basechar 0
AnchorPoint: "+BBEENQQ3BEsEPARPBD0EPQQ+BDUA--1" 451 725 basechar 0
AnchorPoint: "+BBEENQQ3BEsEPARPBD0EPQQ+BDUA--0" 445 725 basechar 0
LayerCount: 2
Fore
SplineSet
582 -147 m 1,0,-1
 514 -122 l 1,1,2
 539 -49 539 -49 577.5 7 c 128,-1,3
 616 63 616 63 661.5 103 c 128,-1,4
 707 143 707 143 749 166 c 1,5,-1
 749 404 l 1,6,-1
 746 405 l 1,7,8
 725 392 725 392 685 359.5 c 128,-1,9
 645 327 645 327 595 273 c 128,-1,10
 545 219 545 219 495 141 c 1,11,-1
 411 166 l 1,12,-1
 411 240 l 1,13,14
 337 243 337 243 268 258.5 c 128,-1,15
 199 274 199 274 140 311 c 128,-1,16
 81 348 81 348 35 413 c 1,17,18
 85 463 85 463 138 493.5 c 128,-1,19
 191 524 191 524 257 538.5 c 128,-1,20
 323 553 323 553 411 553 c 1,21,-1
 411 611 l 1,22,-1
 -17 611 l 1,23,-1
 -17 679 l 1,24,-1
 1071 679 l 1,25,-1
 1071 611 l 1,26,-1
 487 611 l 1,27,-1
 487 266 l 1,28,-1
 491 265 l 1,29,30
 541 320 541 320 578 357 c 128,-1,31
 615 394 615 394 652.5 425 c 128,-1,32
 690 456 690 456 739 490 c 1,33,-1
 823 457 l 1,34,-1
 823 188 l 1,35,36
 836 191 836 191 848.5 193 c 128,-1,37
 861 195 861 195 874 195 c 0,38,39
 948 195 948 195 982 163.5 c 128,-1,40
 1016 132 1016 132 1016 80 c 0,41,42
 1016 56 1016 56 1003.5 28.5 c 128,-1,43
 991 1 991 1 969 -24.5 c 128,-1,44
 947 -50 947 -50 917.5 -66 c 128,-1,45
 888 -82 888 -82 855 -82 c 0,46,47
 806 -82 806 -82 783.5 -62 c 128,-1,48
 761 -42 761 -42 755 -12 c 128,-1,49
 749 18 749 18 749 46 c 2,50,-1
 749 91 l 1,51,52
 709 60 709 60 661 1.5 c 128,-1,53
 613 -57 613 -57 582 -147 c 1,0,-1
411 314 m 1,54,-1
 411 484 l 1,55,56
 402 485 402 485 393 485 c 128,-1,57
 384 485 384 485 376 485 c 0,58,59
 313 485 313 485 268 473 c 128,-1,60
 223 461 223 461 190.5 441.5 c 128,-1,61
 158 422 158 422 132 400 c 1,62,63
 183 348 183 348 253 331 c 128,-1,64
 323 314 323 314 411 314 c 1,54,-1
856 -12 m 0,65,66
 880 -12 880 -12 899 1.5 c 128,-1,67
 918 15 918 15 929 36 c 128,-1,68
 940 57 940 57 940 79 c 0,69,70
 940 99 940 99 925 116 c 128,-1,71
 910 133 910 133 872 133 c 0,72,73
 847 133 847 133 823 126 c 1,74,-1
 823 44 l 2,75,76
 823 16 823 16 828.5 2 c 128,-1,77
 834 -12 834 -12 856 -12 c 0,65,66
EndSplineSet
Ligature2: "'ccmp' +BBoEPgQ8BD8EPgQ3BDgERgQ4BE8A-/+BDQENQQ6BD4EPAQ/BD4ENwQ4BEYEOARP +BDMEOwQ4BEQEMAAA in Syloti Nagri lookup 0 subtable" uniA80C uniA806 uniA80D
EndChar

StartChar: uniA80EuniA80E
Encoding: 65541 -1 66
Width: 775
VWidth: 0
GlyphClass: 2
Flags: W
HStem: -98 67<195.669 378.359> 225 67<195.61 378.359> 611 68<-13 141 214.175 610 686 781>
VStem: 59 79<28.6185 201.977 351.672 526.062> 410 76<-1.90118 101.982 320.925 425.255> 610 76<-99 154 220 478 543 611>
AnchorPoint: "+BBEENQQ3BEsEPARPBD0EPQQ+BDUA--2" 655 -98 basechar 0
AnchorPoint: "+BBEENQQ3BEsEPARPBD0EPQQ+BDUA--1" 381 725 basechar 0
AnchorPoint: "+BBEENQQ3BEsEPARPBD0EPQQ+BDUA--0" 644 725 basechar 0
LayerCount: 2
Fore
SplineSet
610 -99 m 1,0,-1
 610 154 l 1,1,-1
 439 135 l 1,2,-1
 438 132 l 1,3,4
 460 120 460 120 473 99 c 128,-1,5
 486 78 486 78 486 44 c 0,6,7
 486 -6 486 -6 457 -37.5 c 128,-1,8
 428 -69 428 -69 381.5 -83.5 c 128,-1,9
 335 -98 335 -98 282 -98 c 0,10,11
 210 -98 210 -98 160.5 -70 c 128,-1,12
 111 -42 111 -42 85 5.5 c 128,-1,13
 59 53 59 53 59 111 c 0,14,15
 59 201 59 201 128 275 c 1,16,17
 94 304 94 304 76.5 345 c 128,-1,18
 59 386 59 386 59 434 c 0,19,20
 59 534 59 534 141 611 c 1,21,-1
 -13 611 l 1,22,-1
 -13 679 l 1,23,-1
 781 679 l 1,24,-1
 781 611 l 1,25,-1
 686 611 l 1,26,-1
 686 -99 l 1,27,-1
 610 -99 l 1,0,-1
284 292 m 0,28,29
 335 292 335 292 372.5 310.5 c 128,-1,30
 410 329 410 329 410 374 c 0,31,32
 410 407 410 407 396 422 c 128,-1,33
 382 437 382 437 360 441.5 c 128,-1,34
 338 446 338 446 314 446 c 1,35,-1
 318 512 l 1,36,-1
 610 543 l 1,37,-1
 610 611 l 1,38,-1
 245 611 l 1,39,40
 138 547 138 547 138 435 c 0,41,42
 138 374 138 374 173 333 c 128,-1,43
 208 292 208 292 284 292 c 0,28,29
284 -31 m 0,44,45
 335 -31 335 -31 372.5 -12.5 c 128,-1,46
 410 6 410 6 410 50 c 0,47,48
 410 83 410 83 396 98.5 c 128,-1,49
 382 114 382 114 360 118.5 c 128,-1,50
 338 123 338 123 314 123 c 1,51,-1
 318 189 l 1,52,-1
 610 220 l 1,53,-1
 610 478 l 1,54,-1
 439 459 l 1,55,-1
 438 456 l 1,56,57
 460 443 460 443 473 422 c 128,-1,58
 486 401 486 401 486 368 c 0,59,60
 486 318 486 318 457 286 c 128,-1,61
 428 254 428 254 381.5 239.5 c 128,-1,62
 335 225 335 225 282 225 c 0,63,64
 255 225 255 225 231 229.5 c 128,-1,65
 207 234 207 234 187 241 c 1,66,67
 138 188 138 188 138 112 c 0,68,69
 138 51 138 51 173 10 c 128,-1,70
 208 -31 208 -31 284 -31 c 0,44,45
EndSplineSet
Ligature2: "'ccmp' +BBoEPgQ8BD8EPgQ3BDgERgQ4BE8A-/+BDQENQQ6BD4EPAQ/BD4ENwQ4BEYEOARP +BDMEOwQ4BEQEMAAA in Syloti Nagri lookup 0 subtable" uniA80E uniA806 uniA80E
EndChar

StartChar: uniA814uniA814
Encoding: 65542 -1 67
Width: 610
VWidth: 0
GlyphClass: 2
Flags: W
HStem: 149 71<274.563 461> 386 74<172.382 408.358> 611 68<-17 464 539 617>
VStem: 102 72<255.439 403.094> 233 74<2.38477 139.502> 464 75<-99 166 235.33 424 495.146 611>
AnchorPoint: "+BBEENQQ3BEsEPARPBD0EPQQ+BDUA--2" 499 -98 basechar 0
AnchorPoint: "+BBEENQQ3BEsEPARPBD0EPQQ+BDUA--1" 273 725 basechar 0
AnchorPoint: "+BBEENQQ3BEsEPARPBD0EPQQ+BDUA--0" 504 725 basechar 0
LayerCount: 2
Fore
SplineSet
235 -99 m 1,0,-1
 173 -48 l 1,1,2
 202 -16 202 -16 217.5 13 c 128,-1,3
 233 42 233 42 233 73 c 0,4,5
 233 103 233 103 219.5 131.5 c 128,-1,6
 206 160 206 160 171 185 c 1,7,-1
 210 250 l 1,8,9
 276 220 276 220 343 220 c 0,10,11
 368 220 368 220 400 225 c 128,-1,12
 432 230 432 230 464 243 c 1,13,-1
 464 424 l 1,14,15
 420 403 420 403 377 394.5 c 128,-1,16
 334 386 334 386 287 386 c 0,17,18
 250 386 250 386 217 394.5 c 128,-1,19
 184 403 184 403 149 416 c 1,20,-1
 147 413 l 1,21,22
 161 388 161 388 167.5 361.5 c 128,-1,23
 174 335 174 335 174 308 c 0,24,25
 174 269 174 269 156 230.5 c 128,-1,26
 138 192 138 192 105 155 c 1,27,-1
 41 203 l 1,28,29
 68 232 68 232 85 264 c 128,-1,30
 102 296 102 296 102 326 c 0,31,32
 102 361 102 361 89.5 395 c 128,-1,33
 77 429 77 429 37 457 c 1,34,-1
 78 517 l 1,35,36
 122 492 122 492 173 476 c 128,-1,37
 224 460 224 460 272 460 c 0,38,39
 325 460 325 460 370 470.5 c 128,-1,40
 415 481 415 481 464 505 c 1,41,-1
 464 611 l 1,42,-1
 -17 611 l 1,43,-1
 -17 679 l 1,44,-1
 617 679 l 1,45,-1
 617 611 l 1,46,-1
 539 611 l 1,47,-1
 539 -99 l 1,48,-1
 464 -99 l 1,49,-1
 464 166 l 1,50,51
 435 157 435 157 407.5 153 c 128,-1,52
 380 149 380 149 355 149 c 0,53,54
 333 149 333 149 312.5 153 c 128,-1,55
 292 157 292 157 274 164 c 1,56,-1
 271 161 l 1,57,58
 291 134 291 134 299 110 c 128,-1,59
 307 86 307 86 307 59 c 0,60,61
 307 19 307 19 288 -21 c 128,-1,62
 269 -61 269 -61 235 -99 c 1,0,-1
EndSplineSet
Ligature2: "'ccmp' +BBoEPgQ8BD8EPgQ3BDgERgQ4BE8A-/+BDQENQQ6BD4EPAQ/BD4ENwQ4BEYEOARP +BDMEOwQ4BEQEMAAA in Syloti Nagri lookup 0 subtable" uniA814 uniA806 uniA814
EndChar

StartChar: uniA818uniA814
Encoding: 65543 -1 68
Width: 619
VWidth: 0
GlyphClass: 2
Flags: W
HStem: 88 67<222.785 415.377> 220 66<129.92 234.426> 611 68<-17 158 240.056 465.218 541 627>
VStem: 30 76<310.602 463.196> 183 74<-57.735 78.9691> 251 79<305.282 422.404> 466 75<-99 122 188.688 610.913>
AnchorPoint: "+BBEENQQ3BEsEPARPBD0EPQQ+BDUA--2" 505 -98 basechar 0
AnchorPoint: "+BBEENQQ3BEsEPARPBD0EPQQ+BDUA--1" 300 725 basechar 0
AnchorPoint: "+BBEENQQ3BEsEPARPBD0EPQQ+BDUA--0" 526 725 basechar 0
LayerCount: 2
Fore
SplineSet
185 -158 m 1,0,-1
 122 -109 l 1,1,2
 151 -77 151 -77 167 -47.5 c 128,-1,3
 183 -18 183 -18 183 12 c 0,4,5
 183 43 183 43 169.5 71 c 128,-1,6
 156 99 156 99 121 124 c 1,7,-1
 160 187 l 1,8,9
 197 168 197 168 230.5 161.5 c 128,-1,10
 264 155 264 155 299 155 c 0,11,12
 380 155 380 155 466 199 c 1,13,-1
 466 609 l 1,14,15
 441 613 441 613 412 614 c 128,-1,16
 383 615 383 615 366 615 c 0,17,18
 310 615 310 615 264 599.5 c 128,-1,19
 218 584 218 584 179 541 c 1,20,21
 263 501 263 501 296.5 455.5 c 128,-1,22
 330 410 330 410 330 357 c 0,23,24
 330 301 330 301 292.5 260.5 c 128,-1,25
 255 220 255 220 184 220 c 0,26,27
 145 220 145 220 109.5 237.5 c 128,-1,28
 74 255 74 255 52 290.5 c 128,-1,29
 30 326 30 326 30 379 c 0,30,31
 30 447 30 447 66 506 c 128,-1,32
 102 565 102 565 158 611 c 1,33,-1
 -17 611 l 1,34,-1
 -17 679 l 1,35,-1
 627 679 l 1,36,-1
 627 611 l 1,37,-1
 541 611 l 1,38,-1
 541 -99 l 1,39,-1
 466 -99 l 1,40,-1
 466 122 l 1,41,42
 430 106 430 106 394 97 c 128,-1,43
 358 88 358 88 320 88 c 0,44,45
 273 88 273 88 223 103 c 1,46,-1
 221 100 l 1,47,48
 241 74 241 74 249 49.5 c 128,-1,49
 257 25 257 25 257 -2 c 0,50,51
 257 -42 257 -42 237.5 -81 c 128,-1,52
 218 -120 218 -120 185 -158 c 1,0,-1
185 286 m 0,53,54
 219 286 219 286 235 308 c 128,-1,55
 251 330 251 330 251 358 c 0,56,57
 251 395 251 395 226 427 c 128,-1,58
 201 459 201 459 140 484 c 1,59,60
 122 457 122 457 114 431.5 c 128,-1,61
 106 406 106 406 106 380 c 0,62,63
 106 342 106 342 125 314 c 128,-1,64
 144 286 144 286 185 286 c 0,53,54
EndSplineSet
Ligature2: "'ccmp' +BBoEPgQ8BD8EPgQ3BDgERgQ4BE8A-/+BDQENQQ6BD4EPAQ/BD4ENwQ4BEYEOARP +BDMEOwQ4BEQEMAAA in Syloti Nagri lookup 0 subtable" uniA818 uniA806 uniA814
EndChar

StartChar: uniA818uniA816
Encoding: 65544 -1 69
Width: 1050
VWidth: 0
GlyphClass: 2
Flags: W
HStem: -164 75<875.481 986.729> 93 70<158.356 261.017> 593 86<347.711 452.906> 611 68<-17 289 530 1063>
VStem: 53 78<191.495 354.372> 280 78<183.455 303.599> 453 77<276 592.957> 793 73<-68.8878 404>
AnchorPoint: "+BBEENQQ3BEsEPARPBD0EPQQ+BDUA--2" 918 -137 basechar 0
AnchorPoint: "+BBEENQQ3BEsEPARPBD0EPQQ+BDUA--1" 488 725 basechar 0
AnchorPoint: "+BBEENQQ3BEsEPARPBD0EPQQ+BDUA--0" 504 725 basechar 0
LayerCount: 2
Fore
SplineSet
915 -164 m 0,0,1
 864 -164 864 -164 838 -142 c 128,-1,2
 812 -120 812 -120 802.5 -87 c 128,-1,3
 793 -54 793 -54 793 -22 c 2,4,-1
 793 404 l 1,5,-1
 790 406 l 1,6,7
 726 363 726 363 662 301.5 c 128,-1,8
 598 240 598 240 533 143 c 1,9,-1
 453 176 l 1,10,-1
 453 592 l 2,11,12
 450 593 450 593 444.5 593 c 128,-1,13
 439 593 439 593 437 593 c 0,14,15
 370 593 370 593 309 548.5 c 128,-1,16
 248 504 248 504 199 436 c 1,17,18
 291 398 291 398 324.5 347.5 c 128,-1,19
 358 297 358 297 358 240 c 0,20,21
 358 202 358 202 340.5 168.5 c 128,-1,22
 323 135 323 135 289.5 114 c 128,-1,23
 256 93 256 93 208 93 c 0,24,25
 169 93 169 93 133.5 112.5 c 128,-1,26
 98 132 98 132 75.5 169.5 c 128,-1,27
 53 207 53 207 53 260 c 0,28,29
 53 308 53 308 71.5 358.5 c 128,-1,30
 90 409 90 409 122.5 456.5 c 128,-1,31
 155 504 155 504 197.5 544 c 128,-1,32
 240 584 240 584 289 611 c 1,33,-1
 -17 611 l 1,34,-1
 -17 679 l 1,35,-1
 1063 679 l 1,36,-1
 1063 611 l 1,37,-1
 530 611 l 1,38,-1
 530 276 l 1,39,-1
 534 275 l 1,40,41
 571 316 571 316 601 345 c 128,-1,42
 631 374 631 374 659 397.5 c 128,-1,43
 687 421 687 421 716.5 442.5 c 128,-1,44
 746 464 746 464 783 490 c 1,45,-1
 866 457 l 1,46,-1
 866 -19 l 2,47,48
 866 -50 866 -50 875.5 -69.5 c 128,-1,49
 885 -89 885 -89 913 -89 c 0,50,51
 930 -89 930 -89 946.5 -82 c 128,-1,52
 963 -75 963 -75 976 -67 c 1,53,-1
 1013 -132 l 1,54,55
 970 -164 970 -164 915 -164 c 0,0,1
209 163 m 0,56,57
 243 163 243 163 261.5 185 c 128,-1,58
 280 207 280 207 280 235 c 0,59,60
 280 273 280 273 254 310.5 c 128,-1,61
 228 348 228 348 163 375 c 1,62,63
 131 317 131 317 131 256 c 0,64,65
 131 216 131 216 154 189.5 c 128,-1,66
 177 163 177 163 209 163 c 0,56,57
EndSplineSet
Ligature2: "'ccmp' +BBoEPgQ8BD8EPgQ3BDgERgQ4BE8A-/+BDQENQQ6BD4EPAQ/BD4ENwQ4BEYEOARP +BDMEOwQ4BEQEMAAA in Syloti Nagri lookup 0 subtable" uniA818 uniA806 uniA816
EndChar

StartChar: uniA818uniA818
Encoding: 65545 -1 70
Width: 679
VWidth: 0
GlyphClass: 2
Flags: W
HStem: -197 72<208.659 305.654> 212 66<378.067 526> 229 72<127.659 224.654> 611 68<-16 167 248.395 525.031 602 688>
VStem: 31 77<323.869 466.147> 112 77<-102.131 39.7739> 239 84<317.532 428.549> 320 84<-108.609 2.64178> 526 76<-99 212 278 610.913>
AnchorPoint: "+BBEENQQ3BEsEPARPBD0EPQQ+BDUA--2" 564 -98 basechar 0
AnchorPoint: "+BBEENQQ3BEsEPARPBD0EPQQ+BDUA--1" 338 725 basechar 0
AnchorPoint: "+BBEENQQ3BEsEPARPBD0EPQQ+BDUA--0" 569 725 basechar 0
LayerCount: 2
Fore
SplineSet
260 -197 m 0,0,1
 222 -197 222 -197 188 -179.5 c 128,-1,2
 154 -162 154 -162 133 -127.5 c 128,-1,3
 112 -93 112 -93 112 -42 c 0,4,5
 112 8 112 8 138.5 64 c 128,-1,6
 165 120 165 120 217 168.5 c 128,-1,7
 269 217 269 217 345 247.5 c 128,-1,8
 421 278 421 278 521 278 c 2,9,-1
 526 278 l 1,10,-1
 526 609 l 1,11,12
 495 613 495 613 461.5 614 c 128,-1,13
 428 615 428 615 404 615 c 0,14,15
 373 615 373 615 329.5 609.5 c 128,-1,16
 286 604 286 604 244.5 588 c 128,-1,17
 203 572 203 572 176 541 c 1,18,19
 258 503 258 503 290.5 458.5 c 128,-1,20
 323 414 323 414 323 362 c 0,21,22
 323 307 323 307 285 268 c 128,-1,23
 247 229 247 229 179 229 c 0,24,25
 141 229 141 229 107 246.5 c 128,-1,26
 73 264 73 264 52 298.5 c 128,-1,27
 31 333 31 333 31 384 c 0,28,29
 31 450 31 450 66.5 506.5 c 128,-1,30
 102 563 102 563 167 611 c 1,31,-1
 -16 611 l 1,32,-1
 -16 679 l 1,33,-1
 688 679 l 1,34,-1
 688 611 l 1,35,-1
 602 611 l 1,36,-1
 602 -99 l 1,37,-1
 526 -99 l 1,38,-1
 526 212 l 1,39,-1
 509 212 l 2,40,41
 439 212 439 212 374 189 c 128,-1,42
 309 166 309 166 259 110 c 1,43,44
 341 72 341 72 372.5 30 c 128,-1,45
 404 -12 404 -12 404 -65 c 0,46,47
 404 -119 404 -119 366 -158 c 128,-1,48
 328 -197 328 -197 260 -197 c 0,0,1
179 301 m 0,49,50
 209 301 209 301 224 320.5 c 128,-1,51
 239 340 239 340 239 367 c 0,52,53
 239 401 239 401 216.5 429.5 c 128,-1,54
 194 458 194 458 138 481 c 1,55,56
 108 432 108 432 108 386 c 0,57,58
 108 352 108 352 125 326.5 c 128,-1,59
 142 301 142 301 179 301 c 0,49,50
260 -125 m 0,60,61
 290 -125 290 -125 305 -105.5 c 128,-1,62
 320 -86 320 -86 320 -60 c 0,63,64
 320 -25 320 -25 297.5 3.5 c 128,-1,65
 275 32 275 32 219 55 c 1,66,67
 189 6 189 6 189 -40 c 0,68,69
 189 -74 189 -74 206 -99.5 c 128,-1,70
 223 -125 223 -125 260 -125 c 0,60,61
EndSplineSet
Ligature2: "'ccmp' +BBoEPgQ8BD8EPgQ3BDgERgQ4BE8A-/+BDQENQQ6BD4EPAQ/BD4ENwQ4BEYEOARP +BDMEOwQ4BEQEMAAA in Syloti Nagri lookup 0 subtable" uniA818 uniA806 uniA818
EndChar

StartChar: uniA81BuniA81B
Encoding: 65546 -1 71
Width: 521
VWidth: 0
GlyphClass: 2
Flags: W
HStem: -96 68<149.919 327.175> 150 65<147.805 333.14> 251 71<136.584 329.531> 500 70<138.561 336.851> 611 68<-17 370 445 531>
VStem: 29 80<349.747 471.795> 41 77<4.39429 119.52> 370 75<-119 -58 4.95264 121.438 181 289 354.838 476.477 534 611>
AnchorPoint: "+BBEENQQ3BEsEPARPBD0EPQQ+BDUA--2" 408 -98 basechar 0
AnchorPoint: "+BBEENQQ3BEsEPARPBD0EPQQ+BDUA--1" 241 725 basechar 0
AnchorPoint: "+BBEENQQ3BEsEPARPBD0EPQQ+BDUA--0" 408 725 basechar 0
LayerCount: 2
Fore
SplineSet
370 -119 m 1,0,-1
 370 -58 l 1,1,2
 341 -75 341 -75 303.5 -85.5 c 128,-1,3
 266 -96 266 -96 225 -96 c 0,4,5
 182 -96 182 -96 139.5 -81 c 128,-1,6
 97 -66 97 -66 69 -31 c 128,-1,7
 41 4 41 4 41 65 c 0,8,9
 41 124 41 124 69.5 156.5 c 128,-1,10
 98 189 98 189 141.5 202 c 128,-1,11
 185 215 185 215 228 215 c 0,12,13
 269 215 269 215 304 205.5 c 128,-1,14
 339 196 339 196 370 181 c 1,15,-1
 370 289 l 1,16,17
 309 251 309 251 220 251 c 0,18,19
 187 251 187 251 153 258.5 c 128,-1,20
 119 266 119 266 91 284 c 128,-1,21
 63 302 63 302 46 333 c 128,-1,22
 29 364 29 364 29 411 c 0,23,24
 29 472 29 472 58.5 506.5 c 128,-1,25
 88 541 88 541 132 555.5 c 128,-1,26
 176 570 176 570 221 570 c 0,27,28
 263 570 263 570 300 560 c 128,-1,29
 337 550 337 550 370 534 c 1,30,-1
 370 611 l 1,31,-1
 -17 611 l 1,32,-1
 -17 679 l 1,33,-1
 531 679 l 1,34,-1
 531 611 l 1,35,-1
 445 611 l 1,36,-1
 445 -119 l 1,37,-1
 370 -119 l 1,0,-1
231 322 m 0,38,39
 272 322 272 322 306 333.5 c 128,-1,40
 340 345 340 345 370 371 c 1,41,-1
 370 466 l 1,42,43
 343 481 343 481 309.5 490.5 c 128,-1,44
 276 500 276 500 240 500 c 0,45,46
 211 500 211 500 180.5 495 c 128,-1,47
 150 490 150 490 129.5 471.5 c 128,-1,48
 109 453 109 453 109 411 c 256,49,50
 109 369 109 369 128.5 350.5 c 128,-1,51
 148 332 148 332 176.5 327 c 128,-1,52
 205 322 205 322 231 322 c 0,38,39
236 -28 m 0,53,54
 276 -28 276 -28 310.5 -13.5 c 128,-1,55
 345 1 345 1 370 19 c 1,56,-1
 370 110 l 1,57,58
 342 126 342 126 307.5 138 c 128,-1,59
 273 150 273 150 232 150 c 0,60,61
 206 150 206 150 179.5 143 c 128,-1,62
 153 136 153 136 135.5 118 c 128,-1,63
 118 100 118 100 118 65 c 0,64,65
 118 25 118 25 137 5 c 128,-1,66
 156 -15 156 -15 183.5 -21.5 c 128,-1,67
 211 -28 211 -28 236 -28 c 0,53,54
EndSplineSet
Ligature2: "'ccmp' +BBoEPgQ8BD8EPgQ3BDgERgQ4BE8A-/+BDQENQQ6BD4EPAQ/BD4ENwQ4BEYEOARP +BDMEOwQ4BEQEMAAA in Syloti Nagri lookup 0 subtable" uniA81B uniA806 uniA81B
EndChar

StartChar: uniA81DuniA81B
Encoding: 65547 -1 72
Width: 737
VWidth: 0
GlyphClass: 2
Flags: W
HStem: -100 66<375.392 548.886> 144 64<375.371 552.377> 182 62<178.448 277.759> 611 68<-17 58.6465 136 356 436.676 582 658 743>
VStem: 90 72<264.107 384.429> 272 74<-1.51324 115.693> 297 70<261.915 378.543> 582 76<-119 -66 -5.7854 118.315 174 611>
AnchorPoint: "+BBEENQQ3BEsEPARPBD0EPQQ+BDUA--2" 623 -98 basechar 0
AnchorPoint: "+BBEENQQ3BEsEPARPBD0EPQQ+BDUA--1" 381 725 basechar 0
AnchorPoint: "+BBEENQQ3BEsEPARPBD0EPQQ+BDUA--0" 617 725 basechar 0
LayerCount: 2
Fore
SplineSet
582 -119 m 1,0,-1
 582 -66 l 1,1,2
 553 -83 553 -83 521.5 -91.5 c 128,-1,3
 490 -100 490 -100 449 -100 c 0,4,5
 407 -100 407 -100 366.5 -85 c 128,-1,6
 326 -70 326 -70 299 -35.5 c 128,-1,7
 272 -1 272 -1 272 59 c 0,8,9
 272 116 272 116 299 148.5 c 128,-1,10
 326 181 326 181 367.5 194.5 c 128,-1,11
 409 208 409 208 451 208 c 0,12,13
 487 208 487 208 518 198.5 c 128,-1,14
 549 189 549 189 582 174 c 1,15,-1
 582 611 l 1,16,-1
 470 611 l 1,17,18
 409 572 409 572 360.5 540 c 128,-1,19
 312 508 312 508 276 479 c 1,20,21
 326 429 326 429 346.5 391.5 c 128,-1,22
 367 354 367 354 367 307 c 0,23,24
 367 252 367 252 329 217 c 128,-1,25
 291 182 291 182 227 182 c 0,26,27
 161 182 161 182 125.5 220.5 c 128,-1,28
 90 259 90 259 90 309 c 0,29,30
 90 356 90 356 112 396 c 128,-1,31
 134 436 134 436 183 480 c 1,32,33
 154 506 154 506 117 538.5 c 128,-1,34
 80 571 80 571 33 611 c 1,35,-1
 -17 611 l 1,36,-1
 -17 679 l 1,37,-1
 743 679 l 1,38,-1
 743 611 l 1,39,-1
 658 611 l 1,40,-1
 658 -119 l 1,41,-1
 582 -119 l 1,0,-1
233 521 m 1,42,43
 259 541 259 541 289.5 563.5 c 128,-1,44
 320 586 320 586 356 611 c 1,45,-1
 136 611 l 1,46,47
 164 585 164 585 188.5 563 c 128,-1,48
 213 541 213 541 233 521 c 1,42,43
227 244 m 0,49,50
 256 244 256 244 276.5 262 c 128,-1,51
 297 280 297 280 297 314 c 0,52,53
 297 343 297 343 280 371.5 c 128,-1,54
 263 400 263 400 227 437 c 1,55,56
 162 373 162 373 162 316 c 0,57,58
 162 290 162 290 177.5 267 c 128,-1,59
 193 244 193 244 227 244 c 0,49,50
458 -34 m 0,60,61
 499 -34 499 -34 528 -22 c 128,-1,62
 557 -10 557 -10 582 9 c 1,63,-1
 582 107 l 1,64,65
 553 124 553 124 521 134 c 128,-1,66
 489 144 489 144 454 144 c 0,67,68
 429 144 429 144 404 136.5 c 128,-1,69
 379 129 379 129 362.5 110.5 c 128,-1,70
 346 92 346 92 346 59 c 0,71,72
 346 21 346 21 362 1 c 128,-1,73
 378 -19 378 -19 404 -26.5 c 128,-1,74
 430 -34 430 -34 458 -34 c 0,60,61
EndSplineSet
Ligature2: "'ccmp' +BBoEPgQ8BD8EPgQ3BDgERgQ4BE8A-/+BDQENQQ6BD4EPAQ/BD4ENwQ4BEYEOARP +BDMEOwQ4BEQEMAAA in Syloti Nagri lookup 0 subtable" uniA81D uniA806 uniA81B
EndChar

StartChar: uniA81DuniA81D
Encoding: 65548 -1 73
Width: 788
VWidth: 0
GlyphClass: 2
Flags: W
HStem: -91 63<373.946 473.451> 182 62<159.948 259.446> 611 68<-5 45.4487 118 338 417.454 634 710 796>
VStem: 72 71<264.107 384.208> 279 69<289.879 378.758> 286 71<-8.49127 109.991> 493 69<-10.5441 106.527> 634 76<-99 318 379.145 611>
AnchorPoint: "+BBEENQQ3BEsEPARPBD0EPQQ+BDUA--2" 671 -98 basechar 0
AnchorPoint: "+BBEENQQ3BEsEPARPBD0EPQQ+BDUA--1" 402 725 basechar 0
AnchorPoint: "+BBEENQQ3BEsEPARPBD0EPQQ+BDUA--0" 666 725 basechar 0
LayerCount: 2
Fore
SplineSet
634 -99 m 1,0,-1
 634 318 l 1,1,2
 530 252 530 252 468 203 c 1,3,4
 504 170 504 170 524.5 143.5 c 128,-1,5
 545 117 545 117 553.5 91.5 c 128,-1,6
 562 66 562 66 562 34 c 0,7,8
 562 -20 562 -20 524.5 -55.5 c 128,-1,9
 487 -91 487 -91 423 -91 c 0,10,11
 379 -91 379 -91 348.5 -73 c 128,-1,12
 318 -55 318 -55 302 -26 c 128,-1,13
 286 3 286 3 286 36 c 0,14,15
 286 82 286 82 307.5 121 c 128,-1,16
 329 160 329 160 375 203 c 1,17,18
 365 211 365 211 353.5 220.5 c 128,-1,19
 342 230 342 230 329 240 c 1,20,21
 313 213 313 213 282 197.5 c 128,-1,22
 251 182 251 182 209 182 c 0,23,24
 143 182 143 182 107.5 220.5 c 128,-1,25
 72 259 72 259 72 309 c 0,26,27
 72 356 72 356 94 396 c 128,-1,28
 116 436 116 436 165 480 c 1,29,30
 136 506 136 506 101.5 538.5 c 128,-1,31
 67 571 67 571 20 611 c 1,32,-1
 -5 611 l 1,33,-1
 -5 679 l 1,34,-1
 796 679 l 1,35,-1
 796 611 l 1,36,-1
 710 611 l 1,37,-1
 710 -99 l 1,38,-1
 634 -99 l 1,0,-1
214 521 m 1,39,40
 265 560 265 560 338 611 c 1,41,-1
 118 611 l 1,42,43
 147 585 147 585 170.5 563 c 128,-1,44
 194 541 194 541 214 521 c 1,39,40
423 244 m 1,45,46
 462 275 462 275 514.5 311.5 c 128,-1,47
 567 348 567 348 634 393 c 1,48,-1
 634 611 l 1,49,-1
 451 611 l 1,50,51
 328 535 328 535 258 479 c 1,52,53
 307 429 307 429 327 392 c 128,-1,54
 347 355 347 355 348 309 c 1,55,56
 369 290 369 290 388 274 c 128,-1,57
 407 258 407 258 423 244 c 1,45,46
209 244 m 0,58,59
 237 244 237 244 258 262 c 128,-1,60
 279 280 279 280 279 314 c 0,61,62
 279 343 279 343 262 371.5 c 128,-1,63
 245 400 245 400 209 437 c 1,64,65
 175 404 175 404 159 374.5 c 128,-1,66
 143 345 143 345 143 316 c 0,67,68
 143 290 143 290 158.5 267 c 128,-1,69
 174 244 174 244 209 244 c 0,58,59
423 -28 m 0,70,71
 451 -28 451 -28 472 -10.5 c 128,-1,72
 493 7 493 7 493 41 c 0,73,74
 493 70 493 70 477 97.5 c 128,-1,75
 461 125 461 125 421 162 c 1,76,77
 357 99 357 99 357 43 c 0,78,79
 357 17 357 17 373 -5.5 c 128,-1,80
 389 -28 389 -28 423 -28 c 0,70,71
EndSplineSet
Ligature2: "'ccmp' +BBoEPgQ8BD8EPgQ3BDgERgQ4BE8A-/+BDQENQQ6BD4EPAQ/BD4ENwQ4BEYEOARP +BDMEOwQ4BEQEMAAA in Syloti Nagri lookup 0 subtable" uniA81D uniA806 uniA81D
EndChar

StartChar: uniA81EuniA81F
Encoding: 65549 -1 74
Width: 663
VWidth: 0
GlyphClass: 2
Flags: W
HStem: 80 79<117.049 209.095> 290 79<96.0294 189.637> 611 68<-17 439 585 670>
VStem: 277 70<-96.0786 54.6963> 509 76<-99 369 440.985 573>
AnchorPoint: "+BBEENQQ3BEsEPARPBD0EPQQ+BDUA--2" 548 -98 basechar 0
AnchorPoint: "+BBEENQQ3BEsEPARPBD0EPQQ+BDUA--1" 327 725 basechar 0
AnchorPoint: "+BBEENQQ3BEsEPARPBD0EPQQ+BDUA--0" 542 725 basechar 0
LayerCount: 2
Fore
SplineSet
509 -99 m 1,0,-1
 509 369 l 1,1,2
 456 327 456 327 409.5 283 c 128,-1,3
 363 239 363 239 305 174 c 0,4,5
 268 133 268 133 234.5 106.5 c 128,-1,6
 201 80 201 80 157 80 c 0,7,8
 129 80 129 80 103.5 92.5 c 128,-1,9
 78 105 78 105 55 136 c 1,10,-1
 109 189 l 1,11,12
 123 173 123 173 137 166 c 128,-1,13
 151 159 151 159 164 159 c 0,14,15
 183 159 183 159 200 173 c 128,-1,16
 217 187 217 187 244 215 c 0,17,18
 290 263 290 263 331 303 c 128,-1,19
 372 343 372 343 415 381 c 128,-1,20
 458 419 458 419 509 458 c 1,21,-1
 509 573 l 1,22,-1
 506 576 l 1,23,24
 449 533 449 533 396.5 487 c 128,-1,25
 344 441 344 441 283 379 c 0,26,27
 243 339 243 339 211.5 314.5 c 128,-1,28
 180 290 180 290 136 290 c 0,29,30
 108 290 108 290 82.5 302.5 c 128,-1,31
 57 315 57 315 34 346 c 1,32,-1
 88 399 l 1,33,34
 102 383 102 383 115.5 376 c 128,-1,35
 129 369 129 369 142 369 c 0,36,37
 162 369 162 369 178 381 c 128,-1,38
 194 393 194 393 222 420 c 0,39,40
 279 475 279 475 331.5 521 c 128,-1,41
 384 567 384 567 439 611 c 1,42,-1
 -17 611 l 1,43,-1
 -17 679 l 1,44,-1
 670 679 l 1,45,-1
 670 611 l 1,46,-1
 585 611 l 1,47,-1
 585 -99 l 1,48,-1
 509 -99 l 1,0,-1
367 -191 m 1,49,50
 333 -171 333 -171 305 -129 c 128,-1,51
 277 -87 277 -87 277 -26 c 0,52,53
 277 24 277 24 298 62 c 128,-1,54
 319 100 319 100 350 129 c 128,-1,55
 381 158 381 158 411 180 c 1,56,-1
 448 129 l 1,57,58
 408 101 408 101 377.5 66 c 128,-1,59
 347 31 347 31 347 -22 c 0,60,61
 347 -63 347 -63 364.5 -90 c 128,-1,62
 382 -117 382 -117 411 -135 c 1,63,-1
 367 -191 l 1,49,50
EndSplineSet
Ligature2: "'ccmp' +BBoEPgQ8BD8EPgQ3BDgERgQ4BE8A-/+BDQENQQ6BD4EPAQ/BD4ENwQ4BEYEOARP +BDMEOwQ4BEQEMAAA in Syloti Nagri lookup 0 subtable" uniA81E uniA806 uniA81F
EndChar

StartChar: uniA821uniA807
Encoding: 65550 -1 75
Width: 1321
VWidth: 0
GlyphClass: 2
Flags: W
HStem: 0 21G<829 904 1176 1251> 493 69<132.429 270.849> 611 68<-7 511 588 829 904 1178 1251 1326>
VStem: 511 77<190 450 520.767 611> 829 75<0 306 456 611> 1176 75<0 522>
AnchorPoint: "+BBEENQQ3BEsEPARPBD0EPQQ+BDUA--2" 1214 0 basechar 0
AnchorPoint: "+BBEENQQ3BEsEPARPBD0EPQQ+BDUA--1" 703 725 basechar 0
AnchorPoint: "+BBEENQQ3BEsEPARPBD0EPQQ+BDUA--0" 1213 725 basechar 0
LayerCount: 2
Fore
SplineSet
320 -31 m 1,0,1
 297 29 297 29 265 70 c 128,-1,2
 233 111 233 111 197.5 136.5 c 128,-1,3
 162 162 162 162 127.5 176 c 128,-1,4
 93 190 93 190 65 196 c 1,5,-1
 65 270 l 1,6,7
 103 273 103 273 143.5 281.5 c 128,-1,8
 184 290 184 290 219.5 304.5 c 128,-1,9
 255 319 255 319 277 341 c 128,-1,10
 299 363 299 363 299 393 c 0,11,12
 299 439 299 439 276 466 c 128,-1,13
 253 493 253 493 216 493 c 0,14,15
 188 493 188 493 154 481 c 128,-1,16
 120 469 120 469 80 434 c 1,17,-1
 34 495 l 1,18,19
 73 528 73 528 122 545 c 128,-1,20
 171 562 171 562 218 562 c 0,21,22
 272 562 272 562 315.5 526 c 128,-1,23
 359 490 359 490 370 426 c 1,24,25
 401 452 401 452 436.5 480 c 128,-1,26
 472 508 472 508 511 537 c 1,27,-1
 511 611 l 1,28,-1
 -7 611 l 1,29,-1
 -7 679 l 1,30,-1
 1326 679 l 1,31,-1
 1326 611 l 1,32,-1
 1251 611 l 1,33,-1
 1251 0 l 1,34,-1
 1176 0 l 1,35,-1
 1176 522 l 1,36,-1
 1173 523 l 1,37,38
 1115 498 1115 498 1047 460 c 128,-1,39
 979 422 979 422 904 366 c 1,40,-1
 904 0 l 1,41,-1
 829 0 l 1,42,-1
 829 306 l 1,43,44
 771 258 771 258 709.5 197.5 c 128,-1,45
 648 137 648 137 583 62 c 1,46,-1
 511 95 l 1,47,-1
 511 450 l 1,48,49
 468 418 468 418 428.5 384.5 c 128,-1,50
 389 351 389 351 351 316 c 1,51,52
 326 277 326 277 279.5 252 c 128,-1,53
 233 227 233 227 176 223 c 1,54,-1
 175 219 l 1,55,56
 213 209 213 209 253.5 180.5 c 128,-1,57
 294 152 294 152 331 108 c 128,-1,58
 368 64 368 64 394 5 c 1,59,-1
 320 -31 l 1,0,1
592 189 m 1,60,61
 651 252 651 252 710.5 305 c 128,-1,62
 770 358 770 358 829 403 c 1,63,-1
 829 611 l 1,64,-1
 588 611 l 1,65,-1
 588 190 l 1,66,-1
 592 189 l 1,60,61
904 456 m 1,67,68
 976 505 976 505 1045 542.5 c 128,-1,69
 1114 580 1114 580 1178 611 c 1,70,-1
 904 611 l 1,71,-1
 904 456 l 1,67,68
EndSplineSet
Ligature2: "'ccmp' +BBoEPgQ8BD8EPgQ3BDgERgQ4BE8A-/+BDQENQQ6BD4EPAQ/BD4ENwQ4BEYEOARP +BDMEOwQ4BEQEMAAA in Syloti Nagri lookup 0 subtable" uniA821 uniA806 uniA807
EndChar

StartChar: uniA821uniA80C
Encoding: 65551 -1 76
Width: 851
VWidth: 0
GlyphClass: 2
Flags: W
HStem: 0 21G<699 775> 72 72<554.347 699> 291 70<529.034 699> 493 69<132.429 271.026> 611 68<-17 701 775 860>
VStem: 699 76<0 72 144 290.988 361 517>
AnchorPoint: "+BBEENQQ3BEsEPARPBD0EPQQ+BDUA--2" 747 0 basechar 0
AnchorPoint: "+BBEENQQ3BEsEPARPBD0EPQQ+BDUA--1" 402 725 basechar 0
AnchorPoint: "+BBEENQQ3BEsEPARPBD0EPQQ+BDUA--0" 751 725 basechar 0
LayerCount: 2
Fore
SplineSet
320 -31 m 1,0,1
 297 29 297 29 265 70 c 128,-1,2
 233 111 233 111 197.5 136.5 c 128,-1,3
 162 162 162 162 127.5 176 c 128,-1,4
 93 190 93 190 65 196 c 1,5,-1
 65 270 l 1,6,7
 103 273 103 273 143.5 281.5 c 128,-1,8
 184 290 184 290 219.5 304.5 c 128,-1,9
 255 319 255 319 277 341 c 128,-1,10
 299 363 299 363 299 393 c 0,11,12
 299 439 299 439 276 466 c 128,-1,13
 253 493 253 493 216 493 c 0,14,15
 188 493 188 493 154 481 c 128,-1,16
 120 469 120 469 80 434 c 1,17,-1
 34 495 l 1,18,19
 73 528 73 528 122 545 c 128,-1,20
 171 562 171 562 218 562 c 0,21,22
 255 562 255 562 288 544.5 c 128,-1,23
 321 527 321 527 344 494.5 c 128,-1,24
 367 462 367 462 372 417 c 1,25,26
 417 448 417 448 472.5 481 c 128,-1,27
 528 514 528 514 587 547.5 c 128,-1,28
 646 581 646 581 701 611 c 1,29,-1
 -17 611 l 1,30,-1
 -17 679 l 1,31,-1
 860 679 l 1,32,-1
 860 611 l 1,33,-1
 775 611 l 1,34,-1
 775 0 l 1,35,-1
 699 0 l 1,36,-1
 699 72 l 1,37,38
 631 75 631 75 570 89.5 c 128,-1,39
 509 104 509 104 457.5 137.5 c 128,-1,40
 406 171 406 171 364 230 c 1,41,42
 409 277 409 277 455 305.5 c 128,-1,43
 501 334 501 334 559 347.5 c 128,-1,44
 617 361 617 361 699 361 c 1,45,-1
 699 517 l 1,46,-1
 696 518 l 1,47,48
 646 494 646 494 582.5 460 c 128,-1,49
 519 426 519 426 457 387 c 128,-1,50
 395 348 395 348 347 309 c 1,51,52
 322 273 322 273 276 250 c 128,-1,53
 230 227 230 227 176 223 c 1,54,-1
 175 219 l 1,55,56
 213 209 213 209 253.5 180.5 c 128,-1,57
 294 152 294 152 331 108 c 128,-1,58
 368 64 368 64 394 5 c 1,59,-1
 320 -31 l 1,0,1
664 144 m 0,60,61
 672 144 672 144 681 144 c 128,-1,62
 690 144 690 144 699 145 c 1,63,-1
 699 289 l 1,64,65
 687 291 687 291 675.5 291 c 128,-1,66
 664 291 664 291 652 291 c 0,67,68
 593 291 593 291 544.5 276 c 128,-1,69
 496 261 496 261 460 221 c 1,70,71
 497 178 497 178 546.5 161 c 128,-1,72
 596 144 596 144 664 144 c 0,60,61
EndSplineSet
Ligature2: "'ccmp' +BBoEPgQ8BD8EPgQ3BDgERgQ4BE8A-/+BDQENQQ6BD4EPAQ/BD4ENwQ4BEYEOARP +BDMEOwQ4BEQEMAAA in Syloti Nagri lookup 0 subtable" uniA821 uniA806 uniA80C
EndChar

StartChar: uniA821uniA80D
Encoding: 65552 -1 77
Width: 1165
VWidth: 0
GlyphClass: 2
Flags: W
HStem: -82 70<928.819 1010.09> 126 62<924 972.219> 133 62<924.578 1027.02> 493 69<132.429 270.849> 611 68<-8 511 588 1172>
VStem: 511 77<276 450 520.767 611> 850 74<2.44092 91 188 404> 1041 76<19.7856 118.522>
AnchorPoint: "+BBEENQQ3BEsEPARPBD0EPQQ+BDUA--2" 967 -69 basechar 0
AnchorPoint: "+BBEENQQ3BEsEPARPBD0EPQQ+BDUA--1" 547 725 basechar 0
AnchorPoint: "+BBEENQQ3BEsEPARPBD0EPQQ+BDUA--0" 542 725 basechar 0
LayerCount: 2
Fore
SplineSet
683 -147 m 1,0,-1
 615 -122 l 1,1,2
 640 -49 640 -49 678.5 7 c 128,-1,3
 717 63 717 63 762.5 103 c 128,-1,4
 808 143 808 143 850 166 c 1,5,-1
 850 404 l 1,6,-1
 847 405 l 1,7,8
 826 392 826 392 784.5 361 c 128,-1,9
 743 330 743 330 692 277 c 128,-1,10
 641 224 641 224 591 143 c 1,11,-1
 511 176 l 1,12,-1
 511 450 l 1,13,14
 468 418 468 418 428.5 384.5 c 128,-1,15
 389 351 389 351 351 316 c 1,16,17
 326 277 326 277 279.5 252 c 128,-1,18
 233 227 233 227 176 223 c 1,19,-1
 175 219 l 1,20,21
 213 209 213 209 253.5 180.5 c 128,-1,22
 294 152 294 152 331 108 c 128,-1,23
 368 64 368 64 394 5 c 1,24,-1
 320 -31 l 1,25,26
 297 29 297 29 265 70 c 128,-1,27
 233 111 233 111 197.5 136.5 c 128,-1,28
 162 162 162 162 127.5 176 c 128,-1,29
 93 190 93 190 65 196 c 1,30,-1
 65 270 l 1,31,32
 103 273 103 273 143.5 281.5 c 128,-1,33
 184 290 184 290 219.5 304.5 c 128,-1,34
 255 319 255 319 277 341 c 128,-1,35
 299 363 299 363 299 393 c 0,36,37
 299 439 299 439 276 466 c 128,-1,38
 253 493 253 493 216 493 c 0,39,40
 188 493 188 493 154 481 c 128,-1,41
 120 469 120 469 80 434 c 1,42,-1
 34 495 l 1,43,44
 73 528 73 528 122 545 c 128,-1,45
 171 562 171 562 218 562 c 0,46,47
 272 562 272 562 315.5 526 c 128,-1,48
 359 490 359 490 370 426 c 1,49,50
 401 452 401 452 436.5 480 c 128,-1,51
 472 508 472 508 511 537 c 1,52,-1
 511 611 l 1,53,-1
 -8 611 l 1,54,-1
 -8 679 l 1,55,-1
 1172 679 l 1,56,-1
 1172 611 l 1,57,-1
 588 611 l 1,58,-1
 588 276 l 1,59,-1
 592 275 l 1,60,61
 629 316 629 316 659 345 c 128,-1,62
 689 374 689 374 716.5 397.5 c 128,-1,63
 744 421 744 421 773.5 442.5 c 128,-1,64
 803 464 803 464 840 490 c 1,65,-1
 924 457 l 1,66,-1
 924 188 l 1,67,68
 937 191 937 191 949.5 193 c 128,-1,69
 962 195 962 195 975 195 c 0,70,71
 1049 195 1049 195 1083 163.5 c 128,-1,72
 1117 132 1117 132 1117 80 c 0,73,74
 1117 56 1117 56 1104.5 28.5 c 128,-1,75
 1092 1 1092 1 1070 -24.5 c 128,-1,76
 1048 -50 1048 -50 1018.5 -66 c 128,-1,77
 989 -82 989 -82 956 -82 c 0,78,79
 907 -82 907 -82 884.5 -62 c 128,-1,80
 862 -42 862 -42 856 -12 c 128,-1,81
 850 18 850 18 850 46 c 2,82,-1
 850 91 l 1,83,84
 810 60 810 60 762 1.5 c 128,-1,85
 714 -57 714 -57 683 -147 c 1,0,-1
957 -12 m 0,86,87
 981 -12 981 -12 1000 1.5 c 128,-1,88
 1019 15 1019 15 1030 36 c 128,-1,89
 1041 57 1041 57 1041 79 c 0,90,91
 1041 99 1041 99 1026 116 c 128,-1,92
 1011 133 1011 133 973 133 c 0,93,94
 948 133 948 133 924 126 c 1,95,-1
 924 44 l 2,96,97
 924 16 924 16 929.5 2 c 128,-1,98
 935 -12 935 -12 957 -12 c 0,86,87
EndSplineSet
Ligature2: "'ccmp' +BBoEPgQ8BD8EPgQ3BDgERgQ4BE8A-/+BDQENQQ6BD4EPAQ/BD4ENwQ4BEYEOARP +BDMEOwQ4BEQEMAAA in Syloti Nagri lookup 0 subtable" uniA821 uniA806 uniA80D
EndChar

StartChar: uniA821uniA814
Encoding: 65553 -1 78
Width: 851
VWidth: 0
GlyphClass: 2
Flags: W
HStem: 0 21G<699 775> 199 67<65 120.917 525.785 698.093> 493 69<132.429 271.026> 611 68<-17 701 775 860>
VStem: 486 74<48.4465 189.969> 699 76<0 211 277.964 517>
AnchorPoint: "+BBEENQQ3BEsEPARPBD0EPQQ+BDUA--2" 741 0 basechar 0
AnchorPoint: "+BBEENQQ3BEsEPARPBD0EPQQ+BDUA--1" 402 725 basechar 0
AnchorPoint: "+BBEENQQ3BEsEPARPBD0EPQQ+BDUA--0" 735 725 basechar 0
LayerCount: 2
Fore
SplineSet
486 -59 m 1,0,-1
 423 -10 l 1,1,2
 452 22 452 22 469 57.5 c 128,-1,3
 486 93 486 93 486 123 c 0,4,5
 486 154 486 154 472.5 182 c 128,-1,6
 459 210 459 210 424 235 c 1,7,-1
 463 298 l 1,8,9
 500 279 500 279 533.5 272.5 c 128,-1,10
 567 266 567 266 602 266 c 0,11,12
 630 266 630 266 652.5 271 c 128,-1,13
 675 276 675 276 699 286 c 1,14,-1
 699 517 l 1,15,-1
 696 518 l 1,16,17
 646 494 646 494 582.5 460 c 128,-1,18
 519 426 519 426 457 387 c 128,-1,19
 395 348 395 348 347 309 c 1,20,21
 322 273 322 273 276 250 c 128,-1,22
 230 227 230 227 176 223 c 1,23,-1
 175 219 l 1,24,25
 231 203 231 203 288 148.5 c 128,-1,26
 345 94 345 94 384 5 c 1,27,-1
 310 -31 l 1,28,29
 279 50 279 50 235.5 96 c 128,-1,30
 192 142 192 142 147 165 c 128,-1,31
 102 188 102 188 65 196 c 1,32,-1
 65 270 l 1,33,34
 103 273 103 273 143.5 281.5 c 128,-1,35
 184 290 184 290 219.5 304.5 c 128,-1,36
 255 319 255 319 277 341 c 128,-1,37
 299 363 299 363 299 393 c 0,38,39
 299 439 299 439 276 466 c 128,-1,40
 253 493 253 493 216 493 c 0,41,42
 188 493 188 493 154 481 c 128,-1,43
 120 469 120 469 80 434 c 1,44,-1
 34 495 l 1,45,46
 73 528 73 528 122 545 c 128,-1,47
 171 562 171 562 218 562 c 0,48,49
 255 562 255 562 288 544.5 c 128,-1,50
 321 527 321 527 344 494.5 c 128,-1,51
 367 462 367 462 372 417 c 1,52,53
 417 448 417 448 472.5 481 c 128,-1,54
 528 514 528 514 587 547.5 c 128,-1,55
 646 581 646 581 701 611 c 1,56,-1
 -17 611 l 1,57,-1
 -17 679 l 1,58,-1
 860 679 l 1,59,-1
 860 611 l 1,60,-1
 775 611 l 1,61,-1
 775 0 l 1,62,-1
 699 0 l 1,63,-1
 699 211 l 1,64,65
 665 199 665 199 623 199 c 0,66,67
 576 199 576 199 526 214 c 1,68,-1
 524 211 l 1,69,70
 544 185 544 185 552 160.5 c 128,-1,71
 560 136 560 136 560 109 c 0,72,73
 560 70 560 70 539.5 24.5 c 128,-1,74
 519 -21 519 -21 486 -59 c 1,0,-1
EndSplineSet
Ligature2: "'ccmp' +BBoEPgQ8BD8EPgQ3BDgERgQ4BE8A-/+BDQENQQ6BD4EPAQ/BD4ENwQ4BEYEOARP +BDMEOwQ4BEQEMAAA in Syloti Nagri lookup 0 subtable" uniA821 uniA806 uniA814
EndChar

StartChar: uniA821uniA81B
Encoding: 65554 -1 79
Width: 851
VWidth: 0
GlyphClass: 2
Flags: W
HStem: 0 21G<699 775> 35 67<496.874 666.929> 282 64<494.441 670.86> 493 69<132.429 271.026> 611 68<-17 701 775 860>
VStem: 389 77<134.801 251.401> 699 76<0 74 129.304 259.061 312 517>
AnchorPoint: "+BBEENQQ3BEsEPARPBD0EPQQ+BDUA--2" 741 0 basechar 0
AnchorPoint: "+BBEENQQ3BEsEPARPBD0EPQQ+BDUA--1" 402 725 basechar 0
AnchorPoint: "+BBEENQQ3BEsEPARPBD0EPQQ+BDUA--0" 741 725 basechar 0
LayerCount: 2
Fore
SplineSet
320 -31 m 1,0,1
 297 29 297 29 265 70 c 128,-1,2
 233 111 233 111 197.5 136.5 c 128,-1,3
 162 162 162 162 127.5 176 c 128,-1,4
 93 190 93 190 65 196 c 1,5,-1
 65 270 l 1,6,7
 103 273 103 273 143.5 281.5 c 128,-1,8
 184 290 184 290 219.5 304.5 c 128,-1,9
 255 319 255 319 277 341 c 128,-1,10
 299 363 299 363 299 393 c 0,11,12
 299 439 299 439 276 466 c 128,-1,13
 253 493 253 493 216 493 c 0,14,15
 188 493 188 493 154 481 c 128,-1,16
 120 469 120 469 80 434 c 1,17,-1
 34 495 l 1,18,19
 73 528 73 528 122 545 c 128,-1,20
 171 562 171 562 218 562 c 0,21,22
 255 562 255 562 288 544.5 c 128,-1,23
 321 527 321 527 344 494.5 c 128,-1,24
 367 462 367 462 372 417 c 1,25,26
 417 448 417 448 472.5 481 c 128,-1,27
 528 514 528 514 587 547.5 c 128,-1,28
 646 581 646 581 701 611 c 1,29,-1
 -17 611 l 1,30,-1
 -17 679 l 1,31,-1
 860 679 l 1,32,-1
 860 611 l 1,33,-1
 775 611 l 1,34,-1
 775 0 l 1,35,-1
 699 0 l 1,36,-1
 699 74 l 1,37,38
 671 57 671 57 642 46 c 128,-1,39
 613 35 613 35 573 35 c 0,40,41
 530 35 530 35 487.5 50 c 128,-1,42
 445 65 445 65 417 100.5 c 128,-1,43
 389 136 389 136 389 196 c 0,44,45
 389 253 389 253 416.5 286 c 128,-1,46
 444 319 444 319 485.5 332.5 c 128,-1,47
 527 346 527 346 569 346 c 0,48,49
 604 346 604 346 635.5 336.5 c 128,-1,50
 667 327 667 327 699 312 c 1,51,-1
 699 517 l 1,52,-1
 696 518 l 1,53,54
 646 494 646 494 582.5 460 c 128,-1,55
 519 426 519 426 457 387 c 128,-1,56
 395 348 395 348 347 309 c 1,57,58
 322 273 322 273 276 250 c 128,-1,59
 230 227 230 227 176 223 c 1,60,-1
 175 219 l 1,61,62
 213 209 213 209 253.5 180.5 c 128,-1,63
 294 152 294 152 331 108 c 128,-1,64
 368 64 368 64 394 5 c 1,65,-1
 320 -31 l 1,0,1
576 102 m 0,66,67
 614 102 614 102 644 113.5 c 128,-1,68
 674 125 674 125 699 144 c 1,69,-1
 699 247 l 1,70,71
 672 264 672 264 643 273 c 128,-1,72
 614 282 614 282 577 282 c 0,73,74
 550 282 550 282 524.5 275 c 128,-1,75
 499 268 499 268 482.5 249.5 c 128,-1,76
 466 231 466 231 466 196 c 0,77,78
 466 157 466 157 483 137 c 128,-1,79
 500 117 500 117 525.5 109.5 c 128,-1,80
 551 102 551 102 576 102 c 0,66,67
EndSplineSet
Ligature2: "'ccmp' +BBoEPgQ8BD8EPgQ3BDgERgQ4BE8A-/+BDQENQQ6BD4EPAQ/BD4ENwQ4BEYEOARP +BDMEOwQ4BEQEMAAA in Syloti Nagri lookup 0 subtable" uniA821 uniA806 uniA81B
EndChar

StartChar: uni2010
Encoding: 8208 8208 83
Width: 322
VWidth: 0
GlyphClass: 1
Flags: W
HStem: 229 78<40 282>
VStem: 40 242<229 307>
LayerCount: 2
Fore
SplineSet
282 229 m 1,0,-1
 40 229 l 1,1,-1
 40 307 l 1,2,-1
 282 307 l 1,3,-1
 282 229 l 1,0,-1
EndSplineSet
EndChar

StartChar: uni2011
Encoding: 8209 8209 84
Width: 322
VWidth: 0
GlyphClass: 1
Flags: W
HStem: 229 78<40 282>
VStem: 40 242<229 307>
LayerCount: 2
Fore
SplineSet
282 229 m 1,0,-1
 40 229 l 1,1,-1
 40 307 l 1,2,-1
 282 307 l 1,3,-1
 282 229 l 1,0,-1
EndSplineSet
EndChar

StartChar: uni2055
Encoding: 8277 8277 85
Width: 639
VWidth: 0
GlyphClass: 1
Flags: W
HStem: 59 56<294.614 332.081> 167 65<91.3605 168.356 458.583 532.785> 228 58<295.563 326.875> 404 59<297.649 326.232> 485 64<94.1101 160.292 465.977 529.976> 589 56<294.614 332.081>
VStem: 31 60<232.105 275.732 442.687 484.797> 229 62<126.86 228.499 474.523 582.946> 336 62<126.86 228.499 474.574 577.14> 536 60<234.598 276.333 441.981 482.22>
LayerCount: 2
Fore
SplineSet
313 59 m 0,0,1
 264 59 264 59 246.5 86.5 c 128,-1,2
 229 114 229 114 229 154 c 0,3,4
 229 173 229 173 232.5 193 c 128,-1,5
 236 213 236 213 240 229 c 1,6,7
 223 216 223 216 201.5 202 c 128,-1,8
 180 188 180 188 157 179 c 0,9,10
 144 174 144 174 133 170.5 c 128,-1,11
 122 167 122 167 109 167 c 0,12,13
 79 167 79 167 55 196 c 128,-1,14
 31 225 31 225 31 262 c 0,15,16
 31 292 31 292 50.5 310.5 c 128,-1,17
 70 329 70 329 100 339.5 c 128,-1,18
 130 350 130 350 162 353 c 1,19,20
 134 360 134 360 104 374 c 128,-1,21
 74 388 74 388 53.5 409.5 c 128,-1,22
 33 431 33 431 33 459 c 0,23,24
 33 481 33 481 45.5 501.5 c 128,-1,25
 58 522 58 522 77 535.5 c 128,-1,26
 96 549 96 549 115 549 c 0,27,28
 144 549 144 549 174 530 c 0,29,30
 192 519 192 519 209.5 503.5 c 128,-1,31
 227 488 227 488 240 474 c 1,32,33
 236 491 236 491 232.5 510.5 c 128,-1,34
 229 530 229 530 229 549 c 0,35,36
 229 590 229 590 246.5 617.5 c 128,-1,37
 264 645 264 645 313 645 c 0,38,39
 363 645 363 645 380.5 617.5 c 128,-1,40
 398 590 398 590 398 550 c 0,41,42
 398 531 398 531 395 511 c 128,-1,43
 392 491 392 491 387 474 c 1,44,45
 411 501 411 501 445 525 c 128,-1,46
 479 549 479 549 513 549 c 0,47,48
 533 549 533 549 551.5 535.5 c 128,-1,49
 570 522 570 522 582 501.5 c 128,-1,50
 594 481 594 481 594 459 c 0,51,52
 594 431 594 431 574.5 410 c 128,-1,53
 555 389 555 389 525.5 375 c 128,-1,54
 496 361 496 361 465 353 c 1,55,56
 482 351 482 351 499 347.5 c 128,-1,57
 516 344 516 344 531 338 c 0,58,59
 559 328 559 328 577.5 310 c 128,-1,60
 596 292 596 292 596 263 c 0,61,62
 596 242 596 242 586.5 219.5 c 128,-1,63
 577 197 577 197 559.5 182 c 128,-1,64
 542 167 542 167 518 167 c 0,65,66
 497 167 497 167 472.5 177 c 128,-1,67
 448 187 448 187 426 201.5 c 128,-1,68
 404 216 404 216 387 230 c 1,69,70
 392 212 392 212 395 192.5 c 128,-1,71
 398 173 398 173 398 153 c 0,72,73
 398 114 398 114 380.5 86.5 c 128,-1,74
 363 59 363 59 313 59 c 0,0,1
301 462 m 0,75,76
 304 462 304 462 306.5 462.5 c 128,-1,77
 309 463 309 463 311 463 c 0,78,79
 320 463 320 463 324 462 c 1,80,81
 328 479 328 479 332 503.5 c 128,-1,82
 336 528 336 528 336 550 c 0,83,84
 336 566 336 566 331 577.5 c 128,-1,85
 326 589 326 589 313 589 c 0,86,87
 301 589 301 589 296 577.5 c 128,-1,88
 291 566 291 566 291 549 c 0,89,90
 291 527 291 527 294.5 503 c 128,-1,91
 298 479 298 479 301 462 c 0,75,76
203 402 m 1,92,93
 207 410 207 410 214 417 c 1,94,95
 203 428 203 428 184.5 444 c 128,-1,96
 166 460 166 460 147 472.5 c 128,-1,97
 128 485 128 485 113 485 c 0,98,99
 106 485 106 485 100 480 c 128,-1,100
 94 475 94 475 94 467 c 0,101,102
 94 455 94 455 111 443.5 c 128,-1,103
 128 432 128 432 153.5 422 c 128,-1,104
 179 412 179 412 203 402 c 1,92,93
426 399 m 1,105,106
 444 407 444 407 467 417.5 c 128,-1,107
 490 428 490 428 511 440 c 0,108,109
 520 445 520 445 526.5 452 c 128,-1,110
 533 459 533 459 533 467 c 256,111,112
 533 475 533 475 527.5 480 c 128,-1,113
 522 485 522 485 515 485 c 0,114,115
 510 485 510 485 502 483 c 128,-1,116
 494 481 494 481 486 476 c 0,117,118
 464 463 464 463 443.5 447.5 c 128,-1,119
 423 432 423 432 410 421 c 1,120,121
 420 411 420 411 426 399 c 1,105,106
311 286 m 0,122,123
 337 286 337 286 354.5 303.5 c 128,-1,124
 372 321 372 321 372 345 c 0,125,126
 372 370 372 370 354.5 387 c 128,-1,127
 337 404 337 404 311 404 c 0,128,129
 286 404 286 404 270 387 c 128,-1,130
 254 370 254 370 254 345 c 0,131,132
 254 321 254 321 270 303.5 c 128,-1,133
 286 286 286 286 311 286 c 0,122,123
110 232 m 0,134,135
 120 232 120 232 139.5 240.5 c 128,-1,136
 159 249 159 249 180 259.5 c 128,-1,137
 201 270 201 270 212 276 c 1,138,139
 203 288 203 288 199 300 c 1,140,141
 172 293 172 293 147.5 287 c 128,-1,142
 123 281 123 281 107 273.5 c 128,-1,143
 91 266 91 266 91 252 c 0,144,145
 91 232 91 232 110 232 c 0,134,135
518 232 m 0,146,147
 524 232 524 232 530 237 c 128,-1,148
 536 242 536 242 536 252 c 0,149,150
 536 266 536 266 520 274 c 128,-1,151
 504 282 504 282 479.5 287.5 c 128,-1,152
 455 293 455 293 429 299 c 1,153,154
 425 289 425 289 416 280 c 1,155,156
 429 271 429 271 448.5 259.5 c 128,-1,157
 468 248 468 248 487.5 240 c 128,-1,158
 507 232 507 232 518 232 c 0,146,147
313 115 m 0,159,160
 326 115 326 115 331 126.5 c 128,-1,161
 336 138 336 138 336 153 c 0,162,163
 336 172 336 172 333 192.5 c 128,-1,164
 330 213 330 213 327 229 c 1,165,166
 323 228 323 228 319.5 228 c 128,-1,167
 316 228 316 228 312 228 c 0,168,169
 309 228 309 228 305.5 228.5 c 128,-1,170
 302 229 302 229 299 229 c 0,171,172
 296 213 296 213 293.5 193 c 128,-1,173
 291 173 291 173 291 154 c 0,174,175
 291 138 291 138 296 126.5 c 128,-1,176
 301 115 301 115 313 115 c 0,159,160
EndSplineSet
EndChar

StartChar: uni25CC
Encoding: 9676 9676 86
Width: 594
VWidth: 0
GlyphClass: 2
Flags: W
AnchorPoint: "+BBEENQQ3BEsEPARPBD0EPQQ+BDUA--7" 314 647 basechar 0
AnchorPoint: "+BBEENQQ3BEsEPARPBD0EPQQ+BDUA--6" 380 0 basechar 0
AnchorPoint: "+BBEENQQ3BEsEPARPBD0EPQQ+BDUA--5" 314 650 basechar 0
AnchorPoint: "+BBEENQQ3BEsEPARPBD0EPQQ+BDUA--4" 317 641 basechar 0
LayerCount: 2
Fore
SplineSet
323 514 m 0,0,1
 323 487 323 487 297 487 c 256,2,3
 271 487 271 487 271 514 c 0,4,5
 271 540 271 540 297 540 c 256,6,7
 323 540 323 540 323 514 c 0,0,1
408 496 m 0,8,9
 408 470 408 470 383 470 c 0,10,11
 355 470 355 470 355 496 c 0,12,13
 355 523 355 523 383 523 c 0,14,15
 408 523 408 523 408 496 c 0,8,9
239 496 m 0,16,17
 239 470 239 470 212 470 c 0,18,19
 186 470 186 470 186 496 c 0,20,21
 186 523 186 523 212 523 c 0,22,23
 239 523 239 523 239 496 c 0,16,17
480 448 m 0,24,25
 480 422 480 422 455 422 c 0,26,27
 428 422 428 422 428 448 c 0,28,29
 428 475 428 475 455 475 c 0,30,31
 480 475 480 475 480 448 c 0,24,25
167 448 m 0,32,33
 167 422 167 422 140 422 c 0,34,35
 114 422 114 422 114 447 c 0,36,37
 114 475 114 475 140 475 c 0,38,39
 167 475 167 475 167 448 c 0,32,33
529 376 m 0,40,41
 529 349 529 349 502 349 c 0,42,43
 476 349 476 349 476 376 c 0,44,45
 476 402 476 402 503 402 c 0,46,47
 529 402 529 402 529 376 c 0,40,41
118 376 m 0,48,49
 118 349 118 349 93 349 c 0,50,51
 65 349 65 349 65 376 c 0,52,53
 65 402 65 402 92 402 c 0,54,55
 118 402 118 402 118 376 c 0,48,49
546 291 m 256,56,57
 546 265 546 265 521 265 c 0,58,59
 494 265 494 265 494 291 c 256,60,61
 494 317 494 317 521 317 c 0,62,63
 546 317 546 317 546 291 c 256,56,57
101 291 m 256,64,65
 101 265 101 265 75 265 c 0,66,67
 48 265 48 265 48 291 c 256,68,69
 48 317 48 317 75 317 c 0,70,71
 101 317 101 317 101 291 c 256,64,65
529 206 m 0,72,73
 529 180 529 180 502 180 c 0,74,75
 476 180 476 180 476 206 c 0,76,77
 476 233 476 233 502 233 c 0,78,79
 529 233 529 233 529 206 c 0,72,73
118 206 m 0,80,81
 118 180 118 180 92 180 c 0,82,83
 65 180 65 180 65 206 c 0,84,85
 65 233 65 233 92 233 c 0,86,87
 118 233 118 233 118 206 c 0,80,81
480 133 m 0,88,89
 480 107 480 107 455 107 c 0,90,91
 428 107 428 107 428 133 c 0,92,93
 428 160 428 160 455 160 c 0,94,95
 480 160 480 160 480 133 c 0,88,89
167 133 m 0,96,97
 167 107 167 107 140 107 c 0,98,99
 114 107 114 107 114 133 c 0,100,101
 114 160 114 160 140 160 c 0,102,103
 167 160 167 160 167 133 c 0,96,97
408 85 m 0,104,105
 408 60 408 60 383 60 c 0,106,107
 355 60 355 60 355 85 c 0,108,109
 355 112 355 112 383 112 c 0,110,111
 408 112 408 112 408 85 c 0,104,105
239 87 m 0,112,113
 239 60 239 60 212 60 c 0,114,115
 186 60 186 60 186 85 c 0,116,117
 186 112 186 112 212 112 c 0,118,119
 239 112 239 112 239 87 c 0,112,113
323 69 m 0,120,121
 323 42 323 42 297 42 c 256,122,123
 271 42 271 42 271 69 c 0,124,125
 271 95 271 95 297 95 c 256,126,127
 323 95 323 95 323 69 c 0,120,121
EndSplineSet
EndChar
